solid AssimpScene
 facet normal 0.9517087936401367 -0.3070022463798523 0
  outer loop
  vertex -1.548400044441223 20 -4.724300384521484
  vertex -8 0 9.5
  vertex -8 0 -59.5
  endloop
 endfacet

 facet normal 0.9517086744308472 -0.3070027828216553 -2.580230557214236e-06
  outer loop
  vertex -1.548400044441223 20 4.724300384521484
  vertex 2 31 9.5
  vertex -8 0 9.5
  endloop
 endfacet

 facet normal 0.9517039060592651 -0.3070176541805267 6.543566541949986e-06
  outer loop
  vertex -0.09949994087219238 24.49140167236328 -4.986900329589844
  vertex -1.283499956130981 20.82120132446289 -4.830999374389648
  vertex -8 0 -59.5
  endloop
 endfacet

 facet normal 0.9511681795120239 -0.3086476027965546 0.003976899664849043
  outer loop
  vertex -1.294100046157837 20.78829956054688 4.829599380493164
  vertex 2 31 9.5
  vertex -1.303299903869629 20.7598991394043 4.825799942016602
  endloop
 endfacet

 facet normal 0.951819896697998 -0.3066577017307281 -0.000144810022902675
  outer loop
  vertex -1.283499956130981 20.82120132446289 -4.830999374389648
  vertex -1.294100046157837 20.78829956054688 -4.829599380493164
  vertex -8 0 -59.5
  endloop
 endfacet

 facet normal 0.9517053961753845 -0.3070130050182343 4.340898158261552e-06
  outer loop
  vertex -1.294100046157837 20.78829956054688 -4.829599380493164
  vertex -1.548400044441223 20 -4.724300384521484
  vertex -8 0 -59.5
  endloop
 endfacet

 facet normal 0.9517087936401367 -0.3070022463798523 0
  outer loop
  vertex -1.548400044441223 20 -4.724300384521484
  vertex -1.548400044441223 20 -2.681900024414062
  vertex -8 0 9.5
  endloop
 endfacet

 facet normal 0.9517087936401367 -0.3070022463798523 0
  outer loop
  vertex -1.548400044441223 20 -2.681900024414062
  vertex -1.548400044441223 20 -1.54840087890625
  vertex -8 0 9.5
  endloop
 endfacet

 facet normal 0.9517087936401367 -0.3070022463798523 0
  outer loop
  vertex -1.548400044441223 20 -1.54840087890625
  vertex -1.548400044441223 20 -0.8939990997314453
  vertex -8 0 9.5
  endloop
 endfacet

 facet normal 0.9517087936401367 -0.3070022463798523 0
  outer loop
  vertex -1.548400044441223 20 -0.8939990997314453
  vertex -1.548400044441223 20 -0.4148998260498047
  vertex -8 0 9.5
  endloop
 endfacet

 facet normal 0.9517087936401367 -0.3070022463798523 0
  outer loop
  vertex -1.548400044441223 20 -0.4148998260498047
  vertex -1.548400044441223 20 0
  vertex -8 0 9.5
  endloop
 endfacet

 facet normal 0.9517087936401367 -0.3070022463798523 0
  outer loop
  vertex -1.548400044441223 20 0
  vertex -1.548400044441223 20 0.4148998260498047
  vertex -8 0 9.5
  endloop
 endfacet

 facet normal 0.9517087936401367 -0.3070022463798523 0
  outer loop
  vertex -1.548400044441223 20 0.4148998260498047
  vertex -1.548400044441223 20 0.8939990997314453
  vertex -8 0 9.5
  endloop
 endfacet

 facet normal 0.9517087936401367 -0.3070022463798523 0
  outer loop
  vertex -1.548400044441223 20 0.8939990997314453
  vertex -1.548400044441223 20 1.54840087890625
  vertex -8 0 9.5
  endloop
 endfacet

 facet normal 0.9517087936401367 -0.3070022463798523 0
  outer loop
  vertex -1.548400044441223 20 1.54840087890625
  vertex -1.548400044441223 20 2.681900024414062
  vertex -8 0 9.5
  endloop
 endfacet

 facet normal 0.9517087936401367 -0.3070022463798523 0
  outer loop
  vertex -1.548400044441223 20 2.681900024414062
  vertex -1.548400044441223 20 4.724300384521484
  vertex -8 0 9.5
  endloop
 endfacet

 facet normal 0.9517239332199097 -0.3069554567337036 -0.0001229519839398563
  outer loop
  vertex -1.303299903869629 20.7598991394043 4.825799942016602
  vertex 2 31 9.5
  vertex -1.548400044441223 20 4.724300384521484
  endloop
 endfacet

 facet normal 0.9517076015472412 -0.3070060312747955 7.222053682198748e-06
  outer loop
  vertex -0.05970001220703125 24.61489868164062 4.992099761962891
  vertex 2 31 9.5
  vertex -1.294100046157837 20.78829956054688 4.829599380493164
  endloop
 endfacet

 facet normal 0.9517242908477783 -0.3069540560245514 -7.404009375022724e-05
  outer loop
  vertex 0 24.79999923706055 5
  vertex 2 31 9.5
  vertex -0.05970001220703125 24.61489868164062 4.992099761962891
  endloop
 endfacet

 facet normal 0.951705276966095 -0.3070135414600372 1.637976674828678e-05
  outer loop
  vertex 1.184500217437744 28.47179985046387 4.843999862670898
  vertex 2 31 9.5
  vertex 0 24.79999923706055 5
  endloop
 endfacet

 facet normal 0.9517454504966736 -0.3068886399269104 -5.847312422702089e-05
  outer loop
  vertex 1.294099807739258 28.81170082092285 4.829599380493164
  vertex 2 31 9.5
  vertex 1.184500217437744 28.47179985046387 4.843999862670898
  endloop
 endfacet

 facet normal 0.9516687393188477 -0.3071264922618866 6.456067058024928e-05
  outer loop
  vertex 1.321499824523926 28.8966007232666 4.818300247192383
  vertex 2 31 9.5
  vertex 1.294099807739258 28.81170082092285 4.829599380493164
  endloop
 endfacet

 facet normal 0.9517107009887695 -0.3069963455200195 0
  outer loop
  vertex 2 31 9.5
  vertex 1.321499824523926 28.8966007232666 4.818300247192383
  vertex 2 31 4.537200927734375
  endloop
 endfacet

 facet normal 0 0 1
  outer loop
  vertex -2 31 9.5
  vertex -8 0 9.5
  vertex 2 31 9.5
  endloop
 endfacet

 facet normal 0 -1 0
  outer loop
  vertex -12 0 9.5
  vertex -8 0 -59.5
  vertex -8 0 9.5
  endloop
 endfacet

 facet normal 0.9517086744308472 -0.3070027828216553 -8.363726919924375e-07
  outer loop
  vertex -0.09949994087219238 24.49140167236328 -4.986900329589844
  vertex -8 0 -59.5
  vertex 2 31 -59.5
  endloop
 endfacet

 facet normal 0.9517518281936646 -0.3068690001964569 1.679875094851013e-05
  outer loop
  vertex 0 24.79999923706055 -5
  vertex -0.09949994087219238 24.49140167236328 -4.986900329589844
  vertex 2 31 -59.5
  endloop
 endfacet

 facet normal 0.9517110586166382 -0.3069952726364136 0
  outer loop
  vertex 2 31 -4.537200927734375
  vertex 1.404500007629395 29.15390014648438 -4.783899307250977
  vertex 2 31 -59.5
  endloop
 endfacet

 facet normal 0.951697826385498 -0.3070361614227295 -1.522918751106772e-06
  outer loop
  vertex 1.404500007629395 29.15390014648438 -4.783899307250977
  vertex 1.294099807739258 28.81170082092285 -4.829599380493164
  vertex 2 31 -59.5
  endloop
 endfacet

 facet normal 0.9517077803611755 -0.3070055544376373 -1.699103080454734e-07
  outer loop
  vertex 1.294099807739258 28.81170082092285 -4.829599380493164
  vertex 0.06469988822937012 25.0005989074707 -4.991500854492188
  vertex 2 31 -59.5
  endloop
 endfacet

 facet normal 0.9517220258712769 -0.3069613575935364 5.196772690396756e-06
  outer loop
  vertex 0.06469988822937012 25.0005989074707 -4.991500854492188
  vertex 0 24.79999923706055 -5
  vertex 2 31 -59.5
  endloop
 endfacet

 facet normal 0 1 0
  outer loop
  vertex 1.718999862670898 31 4.653600692749023
  vertex 2 31 9.5
  vertex 2 31 4.537200927734375
  endloop
 endfacet

 facet normal 0 1 0
  outer loop
  vertex 1.718999862670898 31 4.653600692749023
  vertex 1.294099807739258 31 4.829599380493164
  vertex 2 31 9.5
  endloop
 endfacet

 facet normal 0 1 0
  outer loop
  vertex -1.294100046157837 31 4.829599380493164
  vertex -1.426700115203857 31 4.774700164794922
  vertex -2 31 9.5
  endloop
 endfacet

 facet normal 0 1 0
  outer loop
  vertex 2 31 9.5
  vertex 1.294099807739258 31 4.829599380493164
  vertex 1.151700019836426 31 4.848300933837891
  endloop
 endfacet

 facet normal 0 1 0
  outer loop
  vertex 2 31 9.5
  vertex 1.151700019836426 31 4.848300933837891
  vertex 0 31 5
  endloop
 endfacet

 facet normal 0 1 0
  outer loop
  vertex 2 31 9.5
  vertex 0 31 5
  vertex -2 31 9.5
  endloop
 endfacet

 facet normal 0 1 0
  outer loop
  vertex 0 31 5
  vertex -0.1424000263214111 31 4.981300354003906
  vertex -2 31 9.5
  endloop
 endfacet

 facet normal 0 1 0
  outer loop
  vertex -0.1424000263214111 31 4.981300354003906
  vertex -1.294100046157837 31 4.829599380493164
  vertex -2 31 9.5
  endloop
 endfacet

 facet normal 0 1 0
  outer loop
  vertex -1.426700115203857 31 4.774700164794922
  vertex -2 31 4.537200927734375
  vertex -2 31 9.5
  endloop
 endfacet

 facet normal 0 0 1
  outer loop
  vertex -2 31 9.5
  vertex -12 0 9.5
  vertex -8 0 9.5
  endloop
 endfacet

 facet normal 0 -1 0
  outer loop
  vertex -12 0 9.5
  vertex -12 0 -59.5
  vertex -8 0 -59.5
  endloop
 endfacet

 facet normal 0 0 -1
  outer loop
  vertex 2 31 -59.5
  vertex -8 0 -59.5
  vertex -12 0 -59.5
  endloop
 endfacet

 facet normal 0 1 0
  outer loop
  vertex 2 31 -59.5
  vertex 1.168300151824951 31 -4.846200942993164
  vertex 1.294099807739258 31 -4.829599380493164
  endloop
 endfacet

 facet normal 0 1 0
  outer loop
  vertex 1.426700115203857 31 -4.774700164794922
  vertex 2 31 -59.5
  vertex 1.294099807739258 31 -4.829599380493164
  endloop
 endfacet

 facet normal 0 1 0
  outer loop
  vertex 1.426700115203857 31 -4.774700164794922
  vertex 2 31 -4.537200927734375
  vertex 2 31 -59.5
  endloop
 endfacet

 facet normal 0 1 0
  outer loop
  vertex 1.168300151824951 31 -4.846200942993164
  vertex 2 31 -59.5
  vertex -2 31 -59.5
  endloop
 endfacet

 facet normal -0.9517085552215576 0.3070029020309448 0
  outer loop
  vertex -2 31 4.537200927734375
  vertex -2.5 29.45000076293945 4.330099105834961
  vertex -2 31 9.5
  endloop
 endfacet

 facet normal -0.9517157077789307 0.3069808483123779 7.30813462723745e-06
  outer loop
  vertex -2.5 29.45000076293945 4.330099105834961
  vertex -2.594799995422363 29.15609931945801 4.257299423217773
  vertex -2 31 9.5
  endloop
 endfacet

 facet normal -0.9517061114311218 0.3070106506347656 -4.262863058102084e-06
  outer loop
  vertex -2.594799995422363 29.15609931945801 4.257299423217773
  vertex -3.535500049591064 26.2400016784668 3.535499572753906
  vertex -2 31 9.5
  endloop
 endfacet

 facet normal -0.9517637491226196 0.3068319857120514 0.0001531613379484043
  outer loop
  vertex -3.535500049591064 26.2400016784668 3.535499572753906
  vertex -3.583899974822998 26.08990097045898 3.472400665283203
  vertex -2 31 9.5
  endloop
 endfacet

 facet normal -0.9517074823379517 0.3070063292980194 -3.676629148685606e-06
  outer loop
  vertex -3.583899974822998 26.08990097045898 3.472400665283203
  vertex -4.330100059509277 23.77669906616211 2.5
  vertex -2 31 9.5
  endloop
 endfacet

 facet normal -0.9517086744308472 0.3070027828216553 3.976066125233046e-07
  outer loop
  vertex -4.330100059509277 23.77669906616211 2.5
  vertex -12 0 9.5
  vertex -2 31 9.5
  endloop
 endfacet

 facet normal -0.9516820907592773 0.3070846498012543 0.000307544571114704
  outer loop
  vertex -4.348700046539307 23.71910095214844 2.4552001953125
  vertex -12 0 9.5
  vertex -4.330100059509277 23.77669906616211 2.5
  endloop
 endfacet

 facet normal -0.9517107009887695 0.3069964051246643 -2.058068457699846e-05
  outer loop
  vertex -4.829599857330322 22.22819900512695 1.294099807739258
  vertex -12 0 9.5
  vertex -4.348700046539307 23.71910095214844 2.4552001953125
  endloop
 endfacet

 facet normal -0.9516274929046631 0.3072531521320343 0.0007475590100511909
  outer loop
  vertex -4.833399772644043 22.21649932861328 1.265399932861328
  vertex -12 0 9.5
  vertex -4.829599857330322 22.22819900512695 1.294099807739258
  endloop
 endfacet

 facet normal -0.9517096877098083 0.3069996535778046 -7.941403055156115e-06
  outer loop
  vertex -5 21.70000076293945 0
  vertex -12 0 9.5
  vertex -4.833399772644043 22.21649932861328 1.265399932861328
  endloop
 endfacet

 facet normal -0.9516894817352295 0.3070621192455292 0.0001497203338658437
  outer loop
  vertex -4.997099876403809 21.70899963378906 -0.02210044860839844
  vertex -12 0 9.5
  vertex -5 21.70000076293945 0
  endloop
 endfacet

 facet normal -0.9517106413841248 0.3069967329502106 -1.496933236921905e-05
  outer loop
  vertex -4.829599857330322 22.22819900512695 -1.294099807739258
  vertex -12 0 9.5
  vertex -4.997099876403809 21.70899963378906 -0.02210044860839844
  endloop
 endfacet

 facet normal -0.9517084360122681 0.3070034384727478 3.259398511090694e-07
  outer loop
  vertex -2 31 -59.5
  vertex -12 0 9.5
  vertex -4.829599857330322 22.22819900512695 -1.294099807739258
  endloop
 endfacet

 facet normal -0.9519194960594177 0.3063482046127319 -0.0001086846677935682
  outer loop
  vertex -2 31 -59.5
  vertex -4.829599857330322 22.22819900512695 -1.294099807739258
  vertex -4.818300247192383 22.26330184936523 -1.321399688720703
  endloop
 endfacet

 facet normal -0.951707124710083 0.3070074021816254 5.964246838630061e-07
  outer loop
  vertex -2 31 -59.5
  vertex -4.818300247192383 22.26330184936523 -1.321399688720703
  vertex -4.330100059509277 23.77669906616211 -2.5
  endloop
 endfacet

 facet normal -0.9516310095787048 0.3072434663772583 3.362524876138195e-05
  outer loop
  vertex -2 31 -59.5
  vertex -4.330100059509277 23.77669906616211 -2.5
  vertex -4.299300193786621 23.87210083007812 -2.54010009765625
  endloop
 endfacet

 facet normal -0.9517134428024292 0.3069879412651062 -1.675599719419552e-06
  outer loop
  vertex -2 31 -59.5
  vertex -4.299300193786621 23.87210083007812 -2.54010009765625
  vertex -3.535500049591064 26.2400016784668 -3.535499572753906
  endloop
 endfacet

 facet normal -0.9516279101371765 0.3072529435157776 2.320670864719432e-05
  outer loop
  vertex -2 31 -59.5
  vertex -3.535500049591064 26.2400016784668 -3.535499572753906
  vertex -3.468699932098389 26.4468994140625 -3.586700439453125
  endloop
 endfacet

 facet normal -0.9517126083374023 0.3069905340671539 -3.841753937194881e-07
  outer loop
  vertex -2 31 -59.5
  vertex -3.468699932098389 26.4468994140625 -3.586700439453125
  vertex -2.5 29.45000076293945 -4.330099105834961
  endloop
 endfacet

 facet normal -0.9516986012458801 0.3070342242717743 9.690379556559492e-07
  outer loop
  vertex -2 31 -59.5
  vertex -2.5 29.45000076293945 -4.330099105834961
  vertex -2.381599903106689 29.8169994354248 -4.379100799560547
  endloop
 endfacet

 facet normal -0.9517116546630859 0.3069932758808136 0
  outer loop
  vertex -2 31 -59.5
  vertex -2.381599903106689 29.8169994354248 -4.379100799560547
  vertex -2 31 -4.537200927734375
  endloop
 endfacet

 facet normal -0.9517086744308472 0.3070027828216553 0
  outer loop
  vertex -2 31 -59.5
  vertex -12 0 -59.5
  vertex -12 0 9.5
  endloop
 endfacet

 facet normal 0 0 -1
  outer loop
  vertex 2 31 -59.5
  vertex -12 0 -59.5
  vertex -2 31 -59.5
  endloop
 endfacet

 facet normal 0 1 0
  outer loop
  vertex 0 31 -5
  vertex 0.1424000263214111 31 -4.981300354003906
  vertex -2 31 -59.5
  endloop
 endfacet

 facet normal 0 1 0
  outer loop
  vertex -2 31 -59.5
  vertex -2 31 -4.537200927734375
  vertex -1.294100046157837 31 -4.829599380493164
  endloop
 endfacet

 facet normal 0 1 0
  outer loop
  vertex -1.151700019836426 31 -4.848300933837891
  vertex -2 31 -59.5
  vertex -1.294100046157837 31 -4.829599380493164
  endloop
 endfacet

 facet normal 0 1 0
  outer loop
  vertex -1.151700019836426 31 -4.848300933837891
  vertex 0 31 -5
  vertex -2 31 -59.5
  endloop
 endfacet

 facet normal 0 1 0
  outer loop
  vertex 0.1424000263214111 31 -4.981300354003906
  vertex 1.168300151824951 31 -4.846200942993164
  vertex -2 31 -59.5
  endloop
 endfacet

 facet normal 0.130589559674263 0 0.9914364814758301
  outer loop
  vertex 0 120 5
  vertex 0 31 5
  vertex 1.151700019836426 31 4.848300933837891
  endloop
 endfacet

 facet normal 0.1302131712436676 0 0.9914860129356384
  outer loop
  vertex 1.294099807739258 120 4.829599380493164
  vertex 1.151700019836426 31 4.848300933837891
  vertex 1.294099807739258 31 4.829599380493164
  endloop
 endfacet

 facet normal 0.1305481493473053 -5.45201032764453e-07 0.9914419651031494
  outer loop
  vertex 1.294099807739258 120 4.829599380493164
  vertex 0 120 5
  vertex 1.151700019836426 31 4.848300933837891
  endloop
 endfacet

 facet normal -0.1301999241113663 0 0.9914878606796265
  outer loop
  vertex 0 120 5
  vertex -0.1424000263214111 31 4.981300354003906
  vertex 0 31 5
  endloop
 endfacet

 facet normal -0.1305481195449829 5.667596951752785e-07 0.9914419651031494
  outer loop
  vertex 0 120 5
  vertex -1.294100046157837 120 4.829599380493164
  vertex -0.1424000263214111 31 4.981300354003906
  endloop
 endfacet

 facet normal 0 1 0
  outer loop
  vertex 0 120 5
  vertex 1.294099807739258 120 4.829599380493164
  vertex 0 120 0
  endloop
 endfacet

 facet normal 0.3816656470298767 -0.0001631508202990517 0.9243004322052002
  outer loop
  vertex 1.321499824523926 28.8966007232666 4.818300247192383
  vertex 1.294099807739258 28.81170082092285 4.829599380493164
  vertex 2.5 20 4.330099105834961
  endloop
 endfacet

 facet normal 0.3826822340488434 0 0.9238801002502441
  outer loop
  vertex 1.294099807739258 120 4.829599380493164
  vertex 1.294099807739258 31 4.829599380493164
  vertex 1.718999862670898 31 4.653600692749023
  endloop
 endfacet

 facet normal 0.3826727569103241 -1.511630358663751e-07 0.9238839149475098
  outer loop
  vertex 2.5 20 4.330099105834961
  vertex 1.294099807739258 120 4.829599380493164
  vertex 2 31 4.537200927734375
  endloop
 endfacet

 facet normal 0.3826994597911835 9.645906828836814e-08 0.9238730072975159
  outer loop
  vertex 2 31 4.537200927734375
  vertex 1.294099807739258 120 4.829599380493164
  vertex 1.718999862670898 31 4.653600692749023
  endloop
 endfacet

 facet normal 0.3826835155487061 0 0.9238795638084412
  outer loop
  vertex 1.294099807739258 28.81170082092285 4.829599380493164
  vertex 1.294099807739258 20 4.829599380493164
  vertex 2.5 20 4.330099105834961
  endloop
 endfacet

 facet normal 0.3827388882637024 3.367383669683477e-06 0.9238566160202026
  outer loop
  vertex 1.321499824523926 28.8966007232666 4.818300247192383
  vertex 2.5 20 4.330099105834961
  vertex 2 31 4.537200927734375
  endloop
 endfacet

 facet normal 0 1 0
  outer loop
  vertex -1.294100046157837 120 4.829599380493164
  vertex 0 120 5
  vertex 0 120 0
  endloop
 endfacet

 facet normal -0.1305911839008331 0 0.9914363622665405
  outer loop
  vertex -1.294100046157837 120 4.829599380493164
  vertex -1.294100046157837 31 4.829599380493164
  vertex -0.1424000263214111 31 4.981300354003906
  endloop
 endfacet

 facet normal 0 1 0
  outer loop
  vertex 1.294099807739258 120 4.829599380493164
  vertex 2.5 120 4.330099105834961
  vertex 0 120 0
  endloop
 endfacet

 facet normal 0.3826835155487061 0 0.9238795638084412
  outer loop
  vertex 1.294099807739258 120 4.829599380493164
  vertex 2.5 20 4.330099105834961
  vertex 2.5 120 4.330099105834961
  endloop
 endfacet

 facet normal 0.1302720755338669 0 0.9914783239364624
  outer loop
  vertex 1.184500217437744 28.47179985046387 4.843999862670898
  vertex 1.294099807739258 20 4.829599380493164
  vertex 1.294099807739258 28.81170082092285 4.829599380493164
  endloop
 endfacet

 facet normal 0 -1 0
  outer loop
  vertex 2.5 20 4.330099105834961
  vertex 1.294099807739258 20 4.829599380493164
  vertex 0 20 0
  endloop
 endfacet

 facet normal 0 1 0
  outer loop
  vertex -2.5 120 4.330099105834961
  vertex -1.294100046157837 120 4.829599380493164
  vertex 0 120 0
  endloop
 endfacet

 facet normal -0.382531613111496 0 0.9239424467086792
  outer loop
  vertex -1.294100046157837 120 4.829599380493164
  vertex -1.426700115203857 31 4.774700164794922
  vertex -1.294100046157837 31 4.829599380493164
  endloop
 endfacet

 facet normal -0.3826835751533508 2.652130604019476e-07 0.9238795042037964
  outer loop
  vertex -1.294100046157837 120 4.829599380493164
  vertex -2.5 120 4.330099105834961
  vertex -1.426700115203857 31 4.774700164794922
  endloop
 endfacet

 facet normal 0 1 0
  outer loop
  vertex 2.5 120 4.330099105834961
  vertex 3.535500049591064 120 3.535499572753906
  vertex 0 120 0
  endloop
 endfacet

 facet normal 0.6087770462036133 0 0.793341338634491
  outer loop
  vertex 2.5 120 4.330099105834961
  vertex 2.5 20 4.330099105834961
  vertex 3.535500049591064 20 3.535499572753906
  endloop
 endfacet

 facet normal 0.1305481493473053 0 0.9914419651031494
  outer loop
  vertex 0 24.79999923706055 5
  vertex 0 20 5
  vertex 1.294099807739258 20 4.829599380493164
  endloop
 endfacet

 facet normal 0.1305620521306992 3.816413027379895e-06 0.9914401769638062
  outer loop
  vertex 1.184500217437744 28.47179985046387 4.843999862670898
  vertex 0 24.79999923706055 5
  vertex 1.294099807739258 20 4.829599380493164
  endloop
 endfacet

 facet normal 0 -1 0
  outer loop
  vertex 3.535500049591064 20 3.535499572753906
  vertex 2.5 20 4.330099105834961
  vertex 0 20 0
  endloop
 endfacet

 facet normal 0 -1 0
  outer loop
  vertex 1.294099807739258 20 4.829599380493164
  vertex 0 20 5
  vertex 0 20 0
  endloop
 endfacet

 facet normal 0 1 0
  outer loop
  vertex -3.535500049591064 120 3.535499572753906
  vertex -2.5 120 4.330099105834961
  vertex 0 120 0
  endloop
 endfacet

 facet normal -0.3826755881309509 0 0.9238827228546143
  outer loop
  vertex -2.5 120 4.330099105834961
  vertex -2.5 29.45000076293945 4.330099105834961
  vertex -2 31 4.537200927734375
  endloop
 endfacet

 facet normal -0.3827256262302399 -3.28957554529552e-07 0.923862099647522
  outer loop
  vertex -1.426700115203857 31 4.774700164794922
  vertex -2.5 120 4.330099105834961
  vertex -2 31 4.537200927734375
  endloop
 endfacet

 facet normal 0.6087770462036133 0 0.793341338634491
  outer loop
  vertex 2.5 120 4.330099105834961
  vertex 3.535500049591064 20 3.535499572753906
  vertex 3.535500049591064 120 3.535499572753906
  endloop
 endfacet

 facet normal 0 1 0
  outer loop
  vertex 3.535500049591064 120 3.535499572753906
  vertex 4.330100059509277 120 2.5
  vertex 0 120 0
  endloop
 endfacet

 facet normal -0.1311885565519333 0 0.9913574457168579
  outer loop
  vertex -0.05970001220703125 24.61489868164062 4.992099761962891
  vertex 0 20 5
  vertex 0 24.79999923706055 5
  endloop
 endfacet

 facet normal 0 -1 0
  outer loop
  vertex 4.330100059509277 20 2.5
  vertex 3.535500049591064 20 3.535499572753906
  vertex 0 20 0
  endloop
 endfacet

 facet normal 0 -1 0
  outer loop
  vertex 0 20 5
  vertex -1.294100046157837 20 4.829599380493164
  vertex 0 20 0
  endloop
 endfacet

 facet normal 0 1 0
  outer loop
  vertex -4.330100059509277 120 2.5
  vertex -3.535500049591064 120 3.535499572753906
  vertex 0 120 0
  endloop
 endfacet

 facet normal -0.6087770462036133 0 0.793341338634491
  outer loop
  vertex -2.5 29.45000076293945 4.330099105834961
  vertex -2.5 120 4.330099105834961
  vertex -3.535500049591064 120 3.535499572753906
  endloop
 endfacet

 facet normal -0.609052300453186 -5.000462806492578e-06 0.793130099773407
  outer loop
  vertex -2.594799995422363 29.15609931945801 4.257299423217773
  vertex -2.5 29.45000076293945 4.330099105834961
  vertex -3.535500049591064 120 3.535499572753906
  endloop
 endfacet

 facet normal 0.7933411002159119 0 0.6087775230407715
  outer loop
  vertex 3.535500049591064 120 3.535499572753906
  vertex 3.535500049591064 20 3.535499572753906
  vertex 4.330100059509277 20 2.5
  endloop
 endfacet

 facet normal 0.7933411002159119 0 0.6087775230407715
  outer loop
  vertex 3.535500049591064 120 3.535499572753906
  vertex 4.330100059509277 20 2.5
  vertex 4.330100059509277 120 2.5
  endloop
 endfacet

 facet normal 0 1 0
  outer loop
  vertex 4.330100059509277 120 2.5
  vertex 4.82960033416748 120 1.294099807739258
  vertex 0 120 0
  endloop
 endfacet

 facet normal -0.1305481195449829 0 0.9914419651031494
  outer loop
  vertex -1.294100046157837 20.78829956054688 4.829599380493164
  vertex -1.294100046157837 20 4.829599380493164
  vertex 0 20 5
  endloop
 endfacet

 facet normal -0.1305430382490158 8.496901500620879e-06 0.9914426207542419
  outer loop
  vertex -0.05970001220703125 24.61489868164062 4.992099761962891
  vertex -1.294100046157837 20.78829956054688 4.829599380493164
  vertex 0 20 5
  endloop
 endfacet

 facet normal 0 -1 0
  outer loop
  vertex 4.82960033416748 20 1.294099807739258
  vertex 4.330100059509277 20 2.5
  vertex 0 20 0
  endloop
 endfacet

 facet normal 0 -1 0
  outer loop
  vertex -1.548400044441223 20 2.681900024414062
  vertex 0 20 0
  vertex -1.294100046157837 20 4.829599380493164
  endloop
 endfacet

 facet normal 0 -1 0
  outer loop
  vertex -1.548400044441223 20 4.724300384521484
  vertex -1.548400044441223 20 2.681900024414062
  vertex -1.294100046157837 20 4.829599380493164
  endloop
 endfacet

 facet normal 0 1 0
  outer loop
  vertex -4.829599857330322 120 1.294099807739258
  vertex -4.330100059509277 120 2.5
  vertex 0 120 0
  endloop
 endfacet

 facet normal -0.7933411002159119 0 0.6087775230407715
  outer loop
  vertex -3.535500049591064 26.2400016784668 3.535499572753906
  vertex -3.535500049591064 120 3.535499572753906
  vertex -4.330100059509277 120 2.5
  endloop
 endfacet

 facet normal -0.7934565544128418 -2.641979790496407e-06 0.6086269617080688
  outer loop
  vertex -3.583899974822998 26.08990097045898 3.472400665283203
  vertex -3.535500049591064 26.2400016784668 3.535499572753906
  vertex -4.330100059509277 120 2.5
  endloop
 endfacet

 facet normal -0.6087483167648315 0 0.7933634519577026
  outer loop
  vertex -2.594799995422363 29.15609931945801 4.257299423217773
  vertex -3.535500049591064 120 3.535499572753906
  vertex -3.535500049591064 26.2400016784668 3.535499572753906
  endloop
 endfacet

 facet normal 0.9238795638084412 0 0.3826835155487061
  outer loop
  vertex 4.330100059509277 120 2.5
  vertex 4.330100059509277 20 2.5
  vertex 4.82960033416748 20 1.294099807739258
  endloop
 endfacet

 facet normal 0.9238795638084412 0 0.3826835155487061
  outer loop
  vertex 4.330100059509277 120 2.5
  vertex 4.82960033416748 20 1.294099807739258
  vertex 4.82960033416748 120 1.294099807739258
  endloop
 endfacet

 facet normal 0 1 0
  outer loop
  vertex 4.82960033416748 120 1.294099807739258
  vertex 5 120 0
  vertex 0 120 0
  endloop
 endfacet

 facet normal -0.3817169964313507 0 0.9242792129516602
  outer loop
  vertex -1.303299903869629 20.7598991394043 4.825799942016602
  vertex -1.294100046157837 20 4.829599380493164
  vertex -1.294100046157837 20.78829956054688 4.829599380493164
  endloop
 endfacet

 facet normal 0 -1 0
  outer loop
  vertex 5 20 0
  vertex 4.82960033416748 20 1.294099807739258
  vertex 0 20 0
  endloop
 endfacet

 facet normal 0 -1 0
  outer loop
  vertex -1.548400044441223 20 1.54840087890625
  vertex 0 20 0
  vertex -1.548400044441223 20 2.681900024414062
  endloop
 endfacet

 facet normal -0.3825733065605164 -1.213740142702591e-05 0.9239251613616943
  outer loop
  vertex -1.548400044441223 20 4.724300384521484
  vertex -1.294100046157837 20 4.829599380493164
  vertex -1.303299903869629 20.7598991394043 4.825799942016602
  endloop
 endfacet

 facet normal 0 1 0
  outer loop
  vertex -5 120 0
  vertex -4.829599857330322 120 1.294099807739258
  vertex 0 120 0
  endloop
 endfacet

 facet normal -0.9238796234130859 0 0.382683277130127
  outer loop
  vertex -4.330100059509277 23.77669906616211 2.5
  vertex -4.330100059509277 120 2.5
  vertex -4.829599857330322 120 1.294099807739258
  endloop
 endfacet

 facet normal -0.9235686659812927 1.101190082408721e-05 0.3834331929683685
  outer loop
  vertex -4.348700046539307 23.71910095214844 2.4552001953125
  vertex -4.330100059509277 23.77669906616211 2.5
  vertex -4.829599857330322 120 1.294099807739258
  endloop
 endfacet

 facet normal -0.7933334112167358 0 0.608787477016449
  outer loop
  vertex -3.583899974822998 26.08990097045898 3.472400665283203
  vertex -4.330100059509277 120 2.5
  vertex -4.330100059509277 23.77669906616211 2.5
  endloop
 endfacet

 facet normal 0.9914421439170837 0 0.130547434091568
  outer loop
  vertex 4.82960033416748 120 1.294099807739258
  vertex 4.82960033416748 20 1.294099807739258
  vertex 5 20 0
  endloop
 endfacet

 facet normal 0.9914421439170837 0 0.130547434091568
  outer loop
  vertex 4.82960033416748 120 1.294099807739258
  vertex 5 20 0
  vertex 5 120 0
  endloop
 endfacet

 facet normal 0 1 0
  outer loop
  vertex 5 120 0
  vertex 4.82960033416748 120 -1.294099807739258
  vertex 0 120 0
  endloop
 endfacet

 facet normal 0 -1 0
  outer loop
  vertex 4.82960033416748 20 -1.294099807739258
  vertex 5 20 0
  vertex 0 20 0
  endloop
 endfacet

 facet normal 0 -1 0
  outer loop
  vertex -1.548400044441223 20 0.8939990997314453
  vertex 0 20 0
  vertex -1.548400044441223 20 1.54840087890625
  endloop
 endfacet

 facet normal 0 1 0
  outer loop
  vertex -4.829599857330322 120 -1.294099807739258
  vertex -5 120 0
  vertex 0 120 0
  endloop
 endfacet

 facet normal -0.991442084312439 0 0.1305476874113083
  outer loop
  vertex -4.829599857330322 22.22819900512695 1.294099807739258
  vertex -4.829599857330322 120 1.294099807739258
  vertex -5 120 0
  endloop
 endfacet

 facet normal -0.9913485646247864 9.545506145514082e-06 0.131256565451622
  outer loop
  vertex -4.833399772644043 22.21649932861328 1.265399932861328
  vertex -4.829599857330322 22.22819900512695 1.294099807739258
  vertex -5 120 0
  endloop
 endfacet

 facet normal -0.9238917827606201 0 0.3826538920402527
  outer loop
  vertex -4.348700046539307 23.71910095214844 2.4552001953125
  vertex -4.829599857330322 120 1.294099807739258
  vertex -4.829599857330322 22.22819900512695 1.294099807739258
  endloop
 endfacet

 facet normal 0.9914421439170837 0 -0.130547434091568
  outer loop
  vertex 5 120 0
  vertex 5 20 0
  vertex 4.82960033416748 20 -1.294099807739258
  endloop
 endfacet

 facet normal 0.9914421439170837 0 -0.130547434091568
  outer loop
  vertex 5 120 0
  vertex 4.82960033416748 20 -1.294099807739258
  vertex 4.82960033416748 120 -1.294099807739258
  endloop
 endfacet

 facet normal 0 1 0
  outer loop
  vertex 4.82960033416748 120 -1.294099807739258
  vertex 4.330100059509277 120 -2.5
  vertex 0 120 0
  endloop
 endfacet

 facet normal 0 -1 0
  outer loop
  vertex 4.330100059509277 20 -2.5
  vertex 4.82960033416748 20 -1.294099807739258
  vertex 0 20 0
  endloop
 endfacet

 facet normal 0 -1 0
  outer loop
  vertex -1.548400044441223 20 0.4148998260498047
  vertex 0 20 0
  vertex -1.548400044441223 20 0.8939990997314453
  endloop
 endfacet

 facet normal 0 1 0
  outer loop
  vertex -4.330100059509277 120 -2.5
  vertex -4.829599857330322 120 -1.294099807739258
  vertex 0 120 0
  endloop
 endfacet

 facet normal -0.991442084312439 1.014981734215326e-07 -0.1305476874113083
  outer loop
  vertex -4.997099876403809 21.70899963378906 -0.02210044860839844
  vertex -5 120 0
  vertex -4.829599857330322 120 -1.294099807739258
  endloop
 endfacet

 facet normal -0.9915003180503845 0 -0.1301039159297943
  outer loop
  vertex -4.997099876403809 21.70899963378906 -0.02210044860839844
  vertex -5 21.70000076293945 0
  vertex -5 120 0
  endloop
 endfacet

 facet normal -0.9914442300796509 0 0.1305315345525742
  outer loop
  vertex -4.833399772644043 22.21649932861328 1.265399932861328
  vertex -5 120 0
  vertex -5 21.70000076293945 0
  endloop
 endfacet

 facet normal 0.9238795638084412 0 -0.3826835155487061
  outer loop
  vertex 4.82960033416748 120 -1.294099807739258
  vertex 4.82960033416748 20 -1.294099807739258
  vertex 4.330100059509277 20 -2.5
  endloop
 endfacet

 facet normal 0.9238795638084412 0 -0.3826835155487061
  outer loop
  vertex 4.82960033416748 120 -1.294099807739258
  vertex 4.330100059509277 20 -2.5
  vertex 4.330100059509277 120 -2.5
  endloop
 endfacet

 facet normal 0 1 0
  outer loop
  vertex 4.330100059509277 120 -2.5
  vertex 3.535500049591064 120 -3.535499572753906
  vertex 0 120 0
  endloop
 endfacet

 facet normal 0 -1 0
  outer loop
  vertex 3.535500049591064 20 -3.535499572753906
  vertex 4.330100059509277 20 -2.5
  vertex 0 20 0
  endloop
 endfacet

 facet normal 0 -1 0
  outer loop
  vertex -1.548400044441223 20 0
  vertex 0 20 0
  vertex -1.548400044441223 20 0.4148998260498047
  endloop
 endfacet

 facet normal 0 1 0
  outer loop
  vertex -3.535500049591064 120 -3.535499572753906
  vertex -4.330100059509277 120 -2.5
  vertex 0 120 0
  endloop
 endfacet

 facet normal -0.9238796234130859 7.569568083454215e-08 -0.382683277130127
  outer loop
  vertex -4.818300247192383 22.26330184936523 -1.321399688720703
  vertex -4.829599857330322 120 -1.294099807739258
  vertex -4.330100059509277 120 -2.5
  endloop
 endfacet

 facet normal -0.92397540807724 0 -0.3824519515037537
  outer loop
  vertex -4.818300247192383 22.26330184936523 -1.321399688720703
  vertex -4.829599857330322 22.22819900512695 -1.294099807739258
  vertex -4.829599857330322 120 -1.294099807739258
  endloop
 endfacet

 facet normal -0.991441011428833 0 -0.1305554211139679
  outer loop
  vertex -4.997099876403809 21.70899963378906 -0.02210044860839844
  vertex -4.829599857330322 120 -1.294099807739258
  vertex -4.829599857330322 22.22819900512695 -1.294099807739258
  endloop
 endfacet

 facet normal 0.7933411002159119 0 -0.6087775230407715
  outer loop
  vertex 4.330100059509277 120 -2.5
  vertex 4.330100059509277 20 -2.5
  vertex 3.535500049591064 20 -3.535499572753906
  endloop
 endfacet

 facet normal 0.7933411002159119 0 -0.6087775230407715
  outer loop
  vertex 4.330100059509277 120 -2.5
  vertex 3.535500049591064 20 -3.535499572753906
  vertex 3.535500049591064 120 -3.535499572753906
  endloop
 endfacet

 facet normal 0 1 0
  outer loop
  vertex 3.535500049591064 120 -3.535499572753906
  vertex 2.5 120 -4.330099105834961
  vertex 0 120 0
  endloop
 endfacet

 facet normal 0 -1 0
  outer loop
  vertex 2.5 20 -4.330099105834961
  vertex 3.535500049591064 20 -3.535499572753906
  vertex 0 20 0
  endloop
 endfacet

 facet normal 0 -1 0
  outer loop
  vertex -1.548400044441223 20 -0.4148998260498047
  vertex 0 20 0
  vertex -1.548400044441223 20 0
  endloop
 endfacet

 facet normal 0 1 0
  outer loop
  vertex -2.5 120 -4.330099105834961
  vertex -3.535500049591064 120 -3.535499572753906
  vertex 0 120 0
  endloop
 endfacet

 facet normal -0.7933411002159119 -2.377757652993751e-07 -0.6087775230407715
  outer loop
  vertex -4.299300193786621 23.87210083007812 -2.54010009765625
  vertex -4.330100059509277 120 -2.5
  vertex -3.535500049591064 120 -3.535499572753906
  endloop
 endfacet

 facet normal -0.7930657863616943 0 -0.6091360449790955
  outer loop
  vertex -4.299300193786621 23.87210083007812 -2.54010009765625
  vertex -4.330100059509277 23.77669906616211 -2.5
  vertex -4.330100059509277 120 -2.5
  endloop
 endfacet

 facet normal -0.9238774180412292 0 -0.3826886713504791
  outer loop
  vertex -4.818300247192383 22.26330184936523 -1.321399688720703
  vertex -4.330100059509277 120 -2.5
  vertex -4.330100059509277 23.77669906616211 -2.5
  endloop
 endfacet

 facet normal 0.6087770462036133 0 -0.793341338634491
  outer loop
  vertex 3.535500049591064 120 -3.535499572753906
  vertex 3.535500049591064 20 -3.535499572753906
  vertex 2.5 20 -4.330099105834961
  endloop
 endfacet

 facet normal 0.6087770462036133 0 -0.793341338634491
  outer loop
  vertex 3.535500049591064 120 -3.535499572753906
  vertex 2.5 20 -4.330099105834961
  vertex 2.5 120 -4.330099105834961
  endloop
 endfacet

 facet normal 0 1 0
  outer loop
  vertex 2.5 120 -4.330099105834961
  vertex 1.294099807739258 120 -4.829599380493164
  vertex 0 120 0
  endloop
 endfacet

 facet normal 0 -1 0
  outer loop
  vertex 1.294099807739258 20 -4.829599380493164
  vertex 2.5 20 -4.330099105834961
  vertex 0 20 0
  endloop
 endfacet

 facet normal 0 -1 0
  outer loop
  vertex -1.548400044441223 20 -0.8939990997314453
  vertex 0 20 0
  vertex -1.548400044441223 20 -0.4148998260498047
  endloop
 endfacet

 facet normal 0 1 0
  outer loop
  vertex -1.294100046157837 120 -4.829599380493164
  vertex -2.5 120 -4.330099105834961
  vertex 0 120 0
  endloop
 endfacet

 facet normal -0.6087770462036133 -4.975292995368363e-07 -0.793341338634491
  outer loop
  vertex -3.468699932098389 26.4468994140625 -3.586700439453125
  vertex -3.535500049591064 120 -3.535499572753906
  vertex -2.5 120 -4.330099105834961
  endloop
 endfacet

 facet normal -0.6083382368087769 0 -0.7936779260635376
  outer loop
  vertex -3.468699932098389 26.4468994140625 -3.586700439453125
  vertex -3.535500049591064 26.2400016784668 -3.535499572753906
  vertex -3.535500049591064 120 -3.535499572753906
  endloop
 endfacet

 facet normal -0.7933521866798401 0 -0.6087629795074463
  outer loop
  vertex -4.299300193786621 23.87210083007812 -2.54010009765625
  vertex -3.535500049591064 120 -3.535499572753906
  vertex -3.535500049591064 26.2400016784668 -3.535499572753906
  endloop
 endfacet

 facet normal 0.3826835155487061 -2.946308768514427e-06 -0.9238795638084412
  outer loop
  vertex 1.404500007629395 29.15390014648438 -4.783899307250977
  vertex 2.5 20 -4.330099105834961
  vertex 1.294099807739258 20 -4.829599380493164
  endloop
 endfacet

 facet normal 0.3827221989631653 2.479326894899714e-06 -0.9238635301589966
  outer loop
  vertex 2 31 -4.537200927734375
  vertex 2.5 20 -4.330099105834961
  vertex 1.404500007629395 29.15390014648438 -4.783899307250977
  endloop
 endfacet

 facet normal 0.3826755881309509 0 -0.9238827228546143
  outer loop
  vertex 2.5 120 -4.330099105834961
  vertex 2.5 20 -4.330099105834961
  vertex 2 31 -4.537200927734375
  endloop
 endfacet

 facet normal 0.3827256262302399 -3.28957554529552e-07 -0.923862099647522
  outer loop
  vertex 2.5 120 -4.330099105834961
  vertex 2 31 -4.537200927734375
  vertex 1.426700115203857 31 -4.774700164794922
  endloop
 endfacet

 facet normal 0.3825309872627258 0 -0.9239426851272583
  outer loop
  vertex 1.294099807739258 120 -4.829599380493164
  vertex 1.426700115203857 31 -4.774700164794922
  vertex 1.294099807739258 31 -4.829599380493164
  endloop
 endfacet

 facet normal 0.3826835155487061 2.661255393832107e-07 -0.9238795638084412
  outer loop
  vertex 1.294099807739258 120 -4.829599380493164
  vertex 2.5 120 -4.330099105834961
  vertex 1.426700115203857 31 -4.774700164794922
  endloop
 endfacet

 facet normal 0 1 0
  outer loop
  vertex 1.294099807739258 120 -4.829599380493164
  vertex 0 120 -5
  vertex 0 120 0
  endloop
 endfacet

 facet normal 0 -1 0
  outer loop
  vertex 0 20 -5
  vertex 1.294099807739258 20 -4.829599380493164
  vertex 0 20 0
  endloop
 endfacet

 facet normal 0 -1 0
  outer loop
  vertex -1.548400044441223 20 -1.54840087890625
  vertex 0 20 0
  vertex -1.548400044441223 20 -0.8939990997314453
  endloop
 endfacet

 facet normal 0 1 0
  outer loop
  vertex 0 120 -5
  vertex -1.294100046157837 120 -4.829599380493164
  vertex 0 120 0
  endloop
 endfacet

 facet normal -0.3826835751533508 -4.220570986035455e-07 -0.9238795042037964
  outer loop
  vertex -2.381599903106689 29.8169994354248 -4.379100799560547
  vertex -2.5 120 -4.330099105834961
  vertex -1.294100046157837 120 -4.829599380493164
  endloop
 endfacet

 facet normal -0.3824090957641602 0 -0.9239931106567383
  outer loop
  vertex -2.381599903106689 29.8169994354248 -4.379100799560547
  vertex -2.5 29.45000076293945 -4.330099105834961
  vertex -2.5 120 -4.330099105834961
  endloop
 endfacet

 facet normal -0.6088073253631592 0 -0.7933181524276733
  outer loop
  vertex -3.468699932098389 26.4468994140625 -3.586700439453125
  vertex -2.5 120 -4.330099105834961
  vertex -2.5 29.45000076293945 -4.330099105834961
  endloop
 endfacet

 facet normal 0.382474958896637 0 -0.9239658713340759
  outer loop
  vertex 1.404500007629395 29.15390014648438 -4.783899307250977
  vertex 1.294099807739258 20 -4.829599380493164
  vertex 1.294099807739258 28.81170082092285 -4.829599380493164
  endloop
 endfacet

 facet normal 0.1308339089155197 0 -0.9914042949676514
  outer loop
  vertex 1.294099807739258 120 -4.829599380493164
  vertex 1.294099807739258 31 -4.829599380493164
  vertex 1.168300151824951 31 -4.846200942993164
  endloop
 endfacet

 facet normal 0.1305614411830902 3.918373181477364e-07 -0.9914402365684509
  outer loop
  vertex 0.1424000263214111 31 -4.981300354003906
  vertex 1.294099807739258 120 -4.829599380493164
  vertex 1.168300151824951 31 -4.846200942993164
  endloop
 endfacet

 facet normal 0.1301999241113663 0 -0.9914878606796265
  outer loop
  vertex 0 120 -5
  vertex 0.1424000263214111 31 -4.981300354003906
  vertex 0 31 -5
  endloop
 endfacet

 facet normal 0.1305481493473053 5.667981781698472e-07 -0.9914419651031494
  outer loop
  vertex 0 120 -5
  vertex 1.294099807739258 120 -4.829599380493164
  vertex 0.1424000263214111 31 -4.981300354003906
  endloop
 endfacet

 facet normal 0 -1 0
  outer loop
  vertex -1.294100046157837 20 -4.829599380493164
  vertex 0 20 -5
  vertex 0 20 0
  endloop
 endfacet

 facet normal 0.1305481493473053 -4.007650204584934e-06 -0.9914419651031494
  outer loop
  vertex 0.06469988822937012 25.0005989074707 -4.991500854492188
  vertex 1.294099807739258 20 -4.829599380493164
  vertex 0 20 -5
  endloop
 endfacet

 facet normal 0.1305641680955887 0 -0.9914398193359375
  outer loop
  vertex 0.06469988822937012 25.0005989074707 -4.991500854492188
  vertex 1.294099807739258 28.81170082092285 -4.829599380493164
  vertex 1.294099807739258 20 -4.829599380493164
  endloop
 endfacet

 facet normal 0 -1 0
  outer loop
  vertex -1.548400044441223 20 -2.681900024414062
  vertex 0 20 0
  vertex -1.548400044441223 20 -1.54840087890625
  endloop
 endfacet

 facet normal -0.1302129626274109 0 -0.9914860725402832
  outer loop
  vertex -1.294100046157837 120 -4.829599380493164
  vertex -1.151700019836426 31 -4.848300933837891
  vertex -1.294100046157837 31 -4.829599380493164
  endloop
 endfacet

 facet normal -0.1305481195449829 -5.455123073261348e-07 -0.9914419651031494
  outer loop
  vertex -1.294100046157837 120 -4.829599380493164
  vertex 0 120 -5
  vertex -1.151700019836426 31 -4.848300933837891
  endloop
 endfacet

 facet normal -0.3826891779899597 0 -0.9238771796226501
  outer loop
  vertex -1.294100046157837 120 -4.829599380493164
  vertex -1.294100046157837 31 -4.829599380493164
  vertex -2 31 -4.537200927734375
  endloop
 endfacet

 facet normal -0.3827600181102753 6.586282665921317e-07 -0.9238478541374207
  outer loop
  vertex -2.381599903106689 29.8169994354248 -4.379100799560547
  vertex -1.294100046157837 120 -4.829599380493164
  vertex -2 31 -4.537200927734375
  endloop
 endfacet

 facet normal -0.130589559674263 0 -0.9914364814758301
  outer loop
  vertex 0 120 -5
  vertex 0 31 -5
  vertex -1.151700019836426 31 -4.848300933837891
  endloop
 endfacet

 facet normal 0 -1 0
  outer loop
  vertex -1.548400044441223 20 -2.681900024414062
  vertex -1.294100046157837 20 -4.829599380493164
  vertex 0 20 0
  endloop
 endfacet

 facet normal 0 -1 0
  outer loop
  vertex -1.548400044441223 20 -2.681900024414062
  vertex -1.548400044441223 20 -4.724300384521484
  vertex -1.294100046157837 20 -4.829599380493164
  endloop
 endfacet

 facet normal -0.1305481195449829 -5.103377588966396e-06 -0.9914419651031494
  outer loop
  vertex -1.283499956130981 20.82120132446289 -4.830999374389648
  vertex 0 20 -5
  vertex -1.294100046157837 20 -4.829599380493164
  endloop
 endfacet

 facet normal -0.1305287033319473 0 -0.9914446473121643
  outer loop
  vertex -0.09949994087219238 24.49140167236328 -4.986900329589844
  vertex 0 24.79999923706055 -5
  vertex 0 20 -5
  endloop
 endfacet

 facet normal -0.1305451393127441 -3.708718736561423e-07 -0.9914423823356628
  outer loop
  vertex -1.283499956130981 20.82120132446289 -4.830999374389648
  vertex -0.09949994087219238 24.49140167236328 -4.986900329589844
  vertex 0 20 -5
  endloop
 endfacet

 facet normal 0.1302436590194702 0 -0.9914820194244385
  outer loop
  vertex 0.06469988822937012 25.0005989074707 -4.991500854492188
  vertex 0 20 -5
  vertex 0 24.79999923706055 -5
  endloop
 endfacet

 facet normal -0.3825733065605164 0 -0.9239251613616943
  outer loop
  vertex -1.294100046157837 20.78829956054688 -4.829599380493164
  vertex -1.294100046157837 20 -4.829599380493164
  vertex -1.548400044441223 20 -4.724300384521484
  endloop
 endfacet

 facet normal -0.1309367269277573 0 -0.9913908243179321
  outer loop
  vertex -1.283499956130981 20.82120132446289 -4.830999374389648
  vertex -1.294100046157837 20 -4.829599380493164
  vertex -1.294100046157837 20.78829956054688 -4.829599380493164
  endloop
 endfacet

endsolidAssimpScene
