solid AssimpScene
 facet normal 0.1305659264326096 0 0.9914395809173584
  outer loop
  vertex 0 120 5
  vertex 0 24.47370147705078 5
  vertex 1.223299980163574 25.47159957885742 4.838899612426758
  endloop
 endfacet

 facet normal 0.1302440613508224 -4.237560460751411e-06 0.9914819598197937
  outer loop
  vertex 0 120 5
  vertex 1.223299980163574 25.47159957885742 4.838899612426758
  vertex 1.294099807739258 25.52939987182617 4.829599380493164
  endloop
 endfacet

 facet normal 0.1305481493473053 0 0.9914419651031494
  outer loop
  vertex 1.294099807739258 120 4.829599380493164
  vertex 0 120 5
  vertex 1.294099807739258 25.52939987182617 4.829599380493164
  endloop
 endfacet

 facet normal -0.1297871321439743 1.048771446221508e-05 0.991541862487793
  outer loop
  vertex -1.294099807739258 120 4.829599380493164
  vertex -0.05729961395263672 24.42689895629883 4.992500305175781
  vertex 0 24.47370147705078 5
  endloop
 endfacet

 facet normal -0.1305481493473053 0 0.9914419651031494
  outer loop
  vertex 0 120 5
  vertex -1.294099807739258 120 4.829599380493164
  vertex 0 24.47370147705078 5
  endloop
 endfacet

 facet normal 0 1 0
  outer loop
  vertex 0 120 5
  vertex 1.294099807739258 120 4.829599380493164
  vertex 0 120 0
  endloop
 endfacet

 facet normal 0.3827002346515656 0 0.9238725900650024
  outer loop
  vertex 1.294099807739258 120 4.829599380493164
  vertex 1.294099807739258 25.52939987182617 4.829599380493164
  vertex 2.422200202941895 26.44969940185547 4.362300872802734
  endloop
 endfacet

 facet normal 0 1 0
  outer loop
  vertex -1.294099807739258 120 4.829599380493164
  vertex 0 120 5
  vertex 0 120 0
  endloop
 endfacet

 facet normal -0.1305837780237198 0 0.9914373159408569
  outer loop
  vertex -1.294099807739258 120 4.829599380493164
  vertex -1.294099807739258 23.41799926757812 4.829599380493164
  vertex -0.05729961395263672 24.42689895629883 4.992500305175781
  endloop
 endfacet

 facet normal 0 1 0
  outer loop
  vertex 1.294099807739258 120 4.829599380493164
  vertex 2.5 120 4.330099105834961
  vertex 0 120 0
  endloop
 endfacet

 facet normal 0.3824430108070374 -3.633525011537131e-06 0.9239790439605713
  outer loop
  vertex 1.294099807739258 120 4.829599380493164
  vertex 2.422200202941895 26.44969940185547 4.362300872802734
  vertex 2.5 26.51319885253906 4.330099105834961
  endloop
 endfacet

 facet normal 0.3826835155487061 0 0.9238795638084412
  outer loop
  vertex 2.5 120 4.330099105834961
  vertex 1.294099807739258 120 4.829599380493164
  vertex 2.5 26.51319885253906 4.330099105834961
  endloop
 endfacet

 facet normal 0 1 0
  outer loop
  vertex -2.5 120 4.330099105834961
  vertex -1.294099807739258 120 4.829599380493164
  vertex 0 120 0
  endloop
 endfacet

 facet normal -0.3826673030853271 2.366875264669943e-07 0.923886239528656
  outer loop
  vertex -2.5 120 4.330099105834961
  vertex -1.33489990234375 23.38470077514648 4.812700271606445
  vertex -1.294099807739258 23.41799926757812 4.829599380493164
  endloop
 endfacet

 facet normal -0.3826835155487061 0 0.9238795638084412
  outer loop
  vertex -1.294099807739258 120 4.829599380493164
  vertex -2.5 120 4.330099105834961
  vertex -1.294099807739258 23.41799926757812 4.829599380493164
  endloop
 endfacet

 facet normal 0 1 0
  outer loop
  vertex 2.5 120 4.330099105834961
  vertex 3.535499572753906 120 3.535499572753906
  vertex 0 120 0
  endloop
 endfacet

 facet normal 0.6087831854820251 0 0.7933366298675537
  outer loop
  vertex 2.5 120 4.330099105834961
  vertex 2.5 26.51319885253906 4.330099105834961
  vertex 3.45989990234375 27.29629898071289 3.593500137329102
  endloop
 endfacet

 facet normal 0 1 0
  outer loop
  vertex -3.535500049591064 120 3.535499572753906
  vertex -2.5 120 4.330099105834961
  vertex 0 120 0
  endloop
 endfacet

 facet normal -0.3826840817928314 0 0.9238793253898621
  outer loop
  vertex -2.5 120 4.330099105834961
  vertex -2.5 22.43420028686523 4.330099105834961
  vertex -1.33489990234375 23.38470077514648 4.812700271606445
  endloop
 endfacet

 facet normal 0.6087020039558411 -1.336230184278975e-06 0.7933989763259888
  outer loop
  vertex 2.5 120 4.330099105834961
  vertex 3.45989990234375 27.29629898071289 3.593500137329102
  vertex 3.535499572753906 27.3578987121582 3.535499572753906
  endloop
 endfacet

 facet normal 0.6087772250175476 0 0.7933412790298462
  outer loop
  vertex 3.535499572753906 120 3.535499572753906
  vertex 2.5 120 4.330099105834961
  vertex 3.535499572753906 27.3578987121582 3.535499572753906
  endloop
 endfacet

 facet normal 0 1 0
  outer loop
  vertex 3.535499572753906 120 3.535499572753906
  vertex 4.330100059509277 120 2.5
  vertex 0 120 0
  endloop
 endfacet

 facet normal 0 1 0
  outer loop
  vertex -4.330100059509277 120 2.5
  vertex -3.535500049591064 120 3.535499572753906
  vertex 0 120 0
  endloop
 endfacet

 facet normal -0.6087770462036133 0 0.793341338634491
  outer loop
  vertex -2.5 22.43420028686523 4.330099105834961
  vertex -2.5 120 4.330099105834961
  vertex -3.535500049591064 120 3.535499572753906
  endloop
 endfacet

 facet normal -0.6090806722640991 -5.121049525769195e-06 0.793108344078064
  outer loop
  vertex -2.525000095367432 22.41379928588867 4.31089973449707
  vertex -2.5 22.43420028686523 4.330099105834961
  vertex -3.535500049591064 120 3.535499572753906
  endloop
 endfacet

 facet normal 0.7933288812637329 0 0.6087933778762817
  outer loop
  vertex 3.535499572753906 120 3.535499572753906
  vertex 3.535499572753906 27.3578987121582 3.535499572753906
  vertex 4.266900062561035 27.9546012878418 2.582399368286133
  endloop
 endfacet

 facet normal 0.7934791445732117 3.223191924917046e-06 0.608597457408905
  outer loop
  vertex 3.535499572753906 120 3.535499572753906
  vertex 4.266900062561035 27.9546012878418 2.582399368286133
  vertex 4.330100059509277 28.00609970092773 2.5
  endloop
 endfacet

 facet normal 0.7933408617973328 0 0.6087777018547058
  outer loop
  vertex 4.330100059509277 120 2.5
  vertex 3.535499572753906 120 3.535499572753906
  vertex 4.330100059509277 28.00609970092773 2.5
  endloop
 endfacet

 facet normal 0 1 0
  outer loop
  vertex 4.330100059509277 120 2.5
  vertex 4.82960033416748 120 1.294099807739258
  vertex 0 120 0
  endloop
 endfacet

 facet normal 0 1 0
  outer loop
  vertex -4.829599857330322 120 1.294099807739258
  vertex -4.330100059509277 120 2.5
  vertex 0 120 0
  endloop
 endfacet

 facet normal -0.7933411002159119 0 0.6087775230407715
  outer loop
  vertex -3.535500049591064 21.58950042724609 3.535499572753906
  vertex -3.535500049591064 120 3.535499572753906
  vertex -4.330100059509277 120 2.5
  endloop
 endfacet

 facet normal -0.7953009009361267 -4.278870619600639e-05 0.6062148809432983
  outer loop
  vertex -3.547999858856201 21.57920074462891 3.519100189208984
  vertex -3.535500049591064 21.58950042724609 3.535499572753906
  vertex -4.330100059509277 120 2.5
  endloop
 endfacet

 facet normal -0.6087694764137268 0 0.793347179889679
  outer loop
  vertex -2.525000095367432 22.41379928588867 4.31089973449707
  vertex -3.535500049591064 120 3.535499572753906
  vertex -3.535500049591064 21.58950042724609 3.535499572753906
  endloop
 endfacet

 facet normal 0.9238988161087036 0 0.3826369941234589
  outer loop
  vertex 4.330100059509277 120 2.5
  vertex 4.330100059509277 28.00609970092773 2.5
  vertex 4.787699699401855 28.3794994354248 1.395099639892578
  endloop
 endfacet

 facet normal 0.9236697554588318 -7.807777365087532e-06 0.3831895887851715
  outer loop
  vertex 4.330100059509277 120 2.5
  vertex 4.787699699401855 28.3794994354248 1.395099639892578
  vertex 4.82960033416748 28.41360092163086 1.294099807739258
  endloop
 endfacet

 facet normal 0.9238795638084412 0 0.3826835155487061
  outer loop
  vertex 4.82960033416748 120 1.294099807739258
  vertex 4.330100059509277 120 2.5
  vertex 4.82960033416748 28.41360092163086 1.294099807739258
  endloop
 endfacet

 facet normal 0 1 0
  outer loop
  vertex 4.82960033416748 120 1.294099807739258
  vertex 5 120 0
  vertex 0 120 0
  endloop
 endfacet

 facet normal 0 1 0
  outer loop
  vertex -5 120 0
  vertex -4.829599857330322 120 1.294099807739258
  vertex 0 120 0
  endloop
 endfacet

 facet normal -0.9238796234130859 0 0.382683128118515
  outer loop
  vertex -4.330100059509277 20.94120025634766 2.5
  vertex -4.330100059509277 120 2.5
  vertex -4.829599857330322 120 1.294099807739258
  endloop
 endfacet

 facet normal -0.9233188629150391 1.927611083374359e-05 0.3840343356132507
  outer loop
  vertex -4.334799766540527 20.93740081787109 2.488700866699219
  vertex -4.330100059509277 20.94120025634766 2.5
  vertex -4.829599857330322 120 1.294099807739258
  endloop
 endfacet

 facet normal -0.7933093309402466 0 0.6088188290596008
  outer loop
  vertex -3.547999858856201 21.57920074462891 3.519100189208984
  vertex -4.330100059509277 120 2.5
  vertex -4.330100059509277 20.94120025634766 2.5
  endloop
 endfacet

 facet normal 0.9914474487304688 0 0.1305064558982849
  outer loop
  vertex 4.82960033416748 120 1.294099807739258
  vertex 4.82960033416748 28.41360092163086 1.294099807739258
  vertex 4.985400199890137 28.54080009460449 0.1105003356933594
  endloop
 endfacet

 facet normal 0.9913842678070068 -6.306528575805714e-06 0.1309854686260223
  outer loop
  vertex 4.82960033416748 120 1.294099807739258
  vertex 4.985400199890137 28.54080009460449 0.1105003356933594
  vertex 5 28.5526008605957 0
  endloop
 endfacet

 facet normal 0.9914421439170837 0 0.130547434091568
  outer loop
  vertex 5 120 0
  vertex 4.82960033416748 120 1.294099807739258
  vertex 5 28.5526008605957 0
  endloop
 endfacet

 facet normal 0 1 0
  outer loop
  vertex 5 120 0
  vertex 4.82960033416748 120 -1.294099807739258
  vertex 0 120 0
  endloop
 endfacet

 facet normal 0 1 0
  outer loop
  vertex -4.829599857330322 120 -1.294099807739258
  vertex -5 120 0
  vertex 0 120 0
  endloop
 endfacet

 facet normal -0.991442084312439 0 0.1305477917194366
  outer loop
  vertex -4.829599857330322 20.53369903564453 1.294099807739258
  vertex -4.829599857330322 120 1.294099807739258
  vertex -5 120 0
  endloop
 endfacet

 facet normal -0.9915925860404968 -1.520022760814754e-05 0.129399299621582
  outer loop
  vertex -4.83050012588501 20.53300094604492 1.287200927734375
  vertex -4.829599857330322 20.53369903564453 1.294099807739258
  vertex -5 120 0
  endloop
 endfacet

 facet normal -0.9238849878311157 0 0.3826703131198883
  outer loop
  vertex -4.334799766540527 20.93740081787109 2.488700866699219
  vertex -4.829599857330322 120 1.294099807739258
  vertex -4.829599857330322 20.53369903564453 1.294099807739258
  endloop
 endfacet

 facet normal 0.9914472103118896 0 -0.1305086761713028
  outer loop
  vertex 5 120 0
  vertex 5 28.5526008605957 0
  vertex 4.843999862670898 28.42530059814453 -1.185100555419922
  endloop
 endfacet

 facet normal 0.9913865327835083 0 -0.1309687793254852
  outer loop
  vertex 4.82960033416748 120 -1.294099807739258
  vertex 4.843999862670898 28.42530059814453 -1.185100555419922
  vertex 4.82960033416748 28.41360092163086 -1.294099807739258
  endloop
 endfacet

 facet normal 0.9914421439170837 5.102571662973787e-07 -0.130547434091568
  outer loop
  vertex 4.82960033416748 120 -1.294099807739258
  vertex 5 120 0
  vertex 4.843999862670898 28.42530059814453 -1.185100555419922
  endloop
 endfacet

 facet normal 0 1 0
  outer loop
  vertex 4.82960033416748 120 -1.294099807739258
  vertex 4.330100059509277 120 -2.5
  vertex 0 120 0
  endloop
 endfacet

 facet normal 0 1 0
  outer loop
  vertex -4.330100059509277 120 -2.5
  vertex -4.829599857330322 120 -1.294099807739258
  vertex 0 120 0
  endloop
 endfacet

 facet normal -0.991442084312439 -2.829186200870026e-07 -0.1305477917194366
  outer loop
  vertex -4.999300003051758 20.39530181884766 -0.005100250244140625
  vertex -5 120 0
  vertex -4.829599857330322 120 -1.294099807739258
  endloop
 endfacet

 facet normal -0.9907125234603882 0 -0.135972872376442
  outer loop
  vertex -4.999300003051758 20.39530181884766 -0.005100250244140625
  vertex -5 20.39469909667969 0
  vertex -5 120 0
  endloop
 endfacet

 facet normal -0.9914411902427673 0 0.1305539458990097
  outer loop
  vertex -4.83050012588501 20.53300094604492 1.287200927734375
  vertex -5 120 0
  vertex -5 20.39469909667969 0
  endloop
 endfacet

 facet normal 0.9238980412483215 0 -0.3826390504837036
  outer loop
  vertex 4.82960033416748 120 -1.294099807739258
  vertex 4.82960033416748 28.41360092163086 -1.294099807739258
  vertex 4.37030029296875 28.03890037536621 -2.403099060058594
  endloop
 endfacet

 facet normal 0.9236685633659363 0 -0.3831923305988312
  outer loop
  vertex 4.330100059509277 120 -2.5
  vertex 4.37030029296875 28.03890037536621 -2.403099060058594
  vertex 4.330100059509277 28.00609970092773 -2.5
  endloop
 endfacet

 facet normal 0.9238795638084412 6.283541438278917e-07 -0.3826835155487061
  outer loop
  vertex 4.330100059509277 120 -2.5
  vertex 4.82960033416748 120 -1.294099807739258
  vertex 4.37030029296875 28.03890037536621 -2.403099060058594
  endloop
 endfacet

 facet normal 0 1 0
  outer loop
  vertex 4.330100059509277 120 -2.5
  vertex 3.535499572753906 120 -3.535499572753906
  vertex 0 120 0
  endloop
 endfacet

 facet normal 0 1 0
  outer loop
  vertex -3.535500049591064 120 -3.535499572753906
  vertex -4.330100059509277 120 -2.5
  vertex 0 120 0
  endloop
 endfacet

 facet normal -0.9238796234130859 -6.840991773060523e-08 -0.382683128118515
  outer loop
  vertex -4.826900005340576 20.5359001159668 -1.300600051879883
  vertex -4.829599857330322 120 -1.294099807739258
  vertex -4.330100059509277 120 -2.5
  endloop
 endfacet

 facet normal -0.9235092997550964 0 -0.3835761249065399
  outer loop
  vertex -4.826900005340576 20.5359001159668 -1.300600051879883
  vertex -4.829599857330322 20.53369903564453 -1.294099807739258
  vertex -4.829599857330322 120 -1.294099807739258
  endloop
 endfacet

 facet normal -0.9914448261260986 0 -0.1305262893438339
  outer loop
  vertex -4.999300003051758 20.39530181884766 -0.005100250244140625
  vertex -4.829599857330322 120 -1.294099807739258
  vertex -4.829599857330322 20.53369903564453 -1.294099807739258
  endloop
 endfacet

 facet normal 0.793318510055542 0 -0.608806848526001
  outer loop
  vertex 4.330100059509277 120 -2.5
  vertex 4.330100059509277 28.00609970092773 -2.5
  vertex 3.594300270080566 27.40589904785156 -3.458799362182617
  endloop
 endfacet

 facet normal 0.7936203479766846 0 -0.6084133386611938
  outer loop
  vertex 3.535499572753906 120 -3.535499572753906
  vertex 3.594300270080566 27.40589904785156 -3.458799362182617
  vertex 3.535499572753906 27.3578987121582 -3.535499572753906
  endloop
 endfacet

 facet normal 0.7933408617973328 -4.793059815710876e-07 -0.6087777018547058
  outer loop
  vertex 3.535499572753906 120 -3.535499572753906
  vertex 4.330100059509277 120 -2.5
  vertex 3.594300270080566 27.40589904785156 -3.458799362182617
  endloop
 endfacet

 facet normal 0 1 0
  outer loop
  vertex 3.535499572753906 120 -3.535499572753906
  vertex 2.5 120 -4.330099105834961
  vertex 0 120 0
  endloop
 endfacet

 facet normal 0 1 0
  outer loop
  vertex -2.5 120 -4.330099105834961
  vertex -3.535500049591064 120 -3.535499572753906
  vertex 0 120 0
  endloop
 endfacet

 facet normal -0.7933411002159119 1.595021217326575e-07 -0.6087775230407715
  outer loop
  vertex -4.3225998878479 20.9473991394043 -2.509799957275391
  vertex -4.330100059509277 120 -2.5
  vertex -3.535500049591064 120 -3.535499572753906
  endloop
 endfacet

 facet normal -0.7941197752952576 0 -0.6077612638473511
  outer loop
  vertex -4.3225998878479 20.9473991394043 -2.509799957275391
  vertex -4.330100059509277 20.94120025634766 -2.5
  vertex -4.330100059509277 120 -2.5
  endloop
 endfacet

 facet normal -0.9238816499710083 0 -0.3826783299446106
  outer loop
  vertex -4.826900005340576 20.5359001159668 -1.300600051879883
  vertex -4.330100059509277 120 -2.5
  vertex -4.330100059509277 20.94120025634766 -2.5
  endloop
 endfacet

 facet normal 0.6087678074836731 0 -0.7933484315872192
  outer loop
  vertex 3.535499572753906 120 -3.535499572753906
  vertex 3.535499572753906 27.3578987121582 -3.535499572753906
  vertex 2.567999839782715 26.56859970092773 -4.277900695800781
  endloop
 endfacet

 facet normal 0.6089104413986206 0 -0.7932389974594116
  outer loop
  vertex 2.5 120 -4.330099105834961
  vertex 2.567999839782715 26.56859970092773 -4.277900695800781
  vertex 2.5 26.51319885253906 -4.330099105834961
  endloop
 endfacet

 facet normal 0.6087772250175476 -1.540820733225701e-07 -0.7933412790298462
  outer loop
  vertex 2.5 120 -4.330099105834961
  vertex 3.535499572753906 120 -3.535499572753906
  vertex 2.567999839782715 26.56859970092773 -4.277900695800781
  endloop
 endfacet

 facet normal 0 1 0
  outer loop
  vertex 2.5 120 -4.330099105834961
  vertex 1.294099807739258 120 -4.829599380493164
  vertex 0 120 0
  endloop
 endfacet

 facet normal 0 1 0
  outer loop
  vertex -1.294099807739258 120 -4.829599380493164
  vertex -2.5 120 -4.330099105834961
  vertex 0 120 0
  endloop
 endfacet

 facet normal -0.6087770462036133 -3.000447463819e-07 -0.793341338634491
  outer loop
  vertex -3.518899917602539 21.60300064086914 -3.548200607299805
  vertex -3.535500049591064 120 -3.535499572753906
  vertex -2.5 120 -4.330099105834961
  endloop
 endfacet

 facet normal -0.6076558232307434 0 -0.7942004799842834
  outer loop
  vertex -3.518899917602539 21.60300064086914 -3.548200607299805
  vertex -3.535500049591064 21.58950042724609 -3.535499572753906
  vertex -3.535500049591064 120 -3.535499572753906
  endloop
 endfacet

 facet normal -0.7933336496353149 0 -0.6087871789932251
  outer loop
  vertex -4.3225998878479 20.9473991394043 -2.509799957275391
  vertex -3.535500049591064 120 -3.535499572753906
  vertex -3.535500049591064 21.58950042724609 -3.535499572753906
  endloop
 endfacet

 facet normal 0.3826680779457092 0 -0.9238859415054321
  outer loop
  vertex 2.5 120 -4.330099105834961
  vertex 2.5 26.51319885253906 -4.330099105834961
  vertex 1.36139965057373 25.58430099487305 -4.801700592041016
  endloop
 endfacet

 facet normal 0.3829444646835327 0 -0.9237713813781738
  outer loop
  vertex 1.294099807739258 120 -4.829599380493164
  vertex 1.36139965057373 25.58430099487305 -4.801700592041016
  vertex 1.294099807739258 25.52939987182617 -4.829599380493164
  endloop
 endfacet

 facet normal 0.3826835155487061 -2.179900207011087e-07 -0.9238795638084412
  outer loop
  vertex 1.294099807739258 120 -4.829599380493164
  vertex 2.5 120 -4.330099105834961
  vertex 1.36139965057373 25.58430099487305 -4.801700592041016
  endloop
 endfacet

 facet normal 0 1 0
  outer loop
  vertex 1.294099807739258 120 -4.829599380493164
  vertex 0 120 -5
  vertex 0 120 0
  endloop
 endfacet

 facet normal 0 1 0
  outer loop
  vertex 0 120 -5
  vertex -1.294099807739258 120 -4.829599380493164
  vertex 0 120 0
  endloop
 endfacet

 facet normal -0.3826835155487061 3.761096536436526e-07 -0.9238795638084412
  outer loop
  vertex -2.470399856567383 22.45840072631836 -4.342399597167969
  vertex -2.5 120 -4.330099105834961
  vertex -1.294099807739258 120 -4.829599380493164
  endloop
 endfacet

 facet normal -0.3837406039237976 0 -0.9234409332275391
  outer loop
  vertex -2.470399856567383 22.45840072631836 -4.342399597167969
  vertex -2.5 22.43420028686523 -4.330099105834961
  vertex -2.5 120 -4.330099105834961
  endloop
 endfacet

 facet normal -0.6087952852249146 0 -0.7933274507522583
  outer loop
  vertex -3.518899917602539 21.60300064086914 -3.548200607299805
  vertex -2.5 120 -4.330099105834961
  vertex -2.5 22.43420028686523 -4.330099105834961
  endloop
 endfacet

 facet normal 0.1305505633354187 0 -0.9914416670799255
  outer loop
  vertex 1.294099807739258 120 -4.829599380493164
  vertex 1.294099807739258 25.52939987182617 -4.829599380493164
  vertex 0.05850028991699219 24.52140045166016 -4.992300033569336
  endloop
 endfacet

 facet normal 0.1304971426725388 0 -0.9914486408233643
  outer loop
  vertex 0 120 -5
  vertex 0.05850028991699219 24.52140045166016 -4.992300033569336
  vertex 0 24.47370147705078 -5
  endloop
 endfacet

 facet normal 0.1305481493473053 3.177976992674303e-08 -0.9914419651031494
  outer loop
  vertex 0 120 -5
  vertex 1.294099807739258 120 -4.829599380493164
  vertex 0.05850028991699219 24.52140045166016 -4.992300033569336
  endloop
 endfacet

 facet normal -0.1308862119913101 0 -0.991397500038147
  outer loop
  vertex -1.294099807739258 120 -4.829599380493164
  vertex -1.24940013885498 23.45439910888672 -4.835500717163086
  vertex -1.294099807739258 23.41799926757812 -4.829599380493164
  endloop
 endfacet

 facet normal -0.1305481493473053 1.592420346696599e-07 -0.9914419651031494
  outer loop
  vertex -1.294099807739258 120 -4.829599380493164
  vertex 0 120 -5
  vertex -1.24940013885498 23.45439910888672 -4.835500717163086
  endloop
 endfacet

 facet normal -0.3826568722724915 0 -0.9238905310630798
  outer loop
  vertex -1.294099807739258 120 -4.829599380493164
  vertex -1.294099807739258 23.41799926757812 -4.829599380493164
  vertex -2.470399856567383 22.45840072631836 -4.342399597167969
  endloop
 endfacet

 facet normal -0.1305360645055771 0 -0.9914436936378479
  outer loop
  vertex 0 120 -5
  vertex 0 24.47370147705078 -5
  vertex -1.24940013885498 23.45439910888672 -4.835500717163086
  endloop
 endfacet

 facet normal 0.1305481493473053 0 0.9914419651031494
  outer loop
  vertex 0 21.21049880981445 5
  vertex 0 20 5
  vertex 1.294099807739258 20 4.829599380493164
  endloop
 endfacet

 facet normal 0.1305552423000336 7.727096999587957e-06 0.991441011428833
  outer loop
  vertex 1.26509952545166 22.24259948730469 4.833400726318359
  vertex 0 21.21049880981445 5
  vertex 1.294099807739258 20 4.829599380493164
  endloop
 endfacet

 facet normal -0.1280216723680496 0 0.991771399974823
  outer loop
  vertex -0.01550006866455078 21.19789886474609 4.99799919128418
  vertex 0 20 5
  vertex 0 21.21049880981445 5
  endloop
 endfacet

 facet normal 0 -1 0
  outer loop
  vertex 1.294099807739258 20 4.829599380493164
  vertex 0 20 5
  vertex 0 20 0
  endloop
 endfacet

 facet normal 0.1299678385257721 0 0.9915183186531067
  outer loop
  vertex 1.26509952545166 22.24259948730469 4.833400726318359
  vertex 1.294099807739258 20 4.829599380493164
  vertex 1.294099807739258 22.26620101928711 4.829599380493164
  endloop
 endfacet

 facet normal -0.1305481493473053 0 0.9914419651031494
  outer loop
  vertex -1.294099807739258 20.15480041503906 4.829599380493164
  vertex -1.294099807739258 20 4.829599380493164
  vertex 0 20 5
  endloop
 endfacet

 facet normal -0.1305520683526993 -3.329258106532507e-05 0.9914414882659912
  outer loop
  vertex -0.01550006866455078 21.19789886474609 4.99799919128418
  vertex -1.294099807739258 20.15480041503906 4.829599380493164
  vertex 0 20 5
  endloop
 endfacet

 facet normal 0 -1 0
  outer loop
  vertex 2.5 20 4.330099105834961
  vertex 1.294099807739258 20 4.829599380493164
  vertex 0 20 0
  endloop
 endfacet

 facet normal 0 -1 0
  outer loop
  vertex 0 20 5
  vertex -1.294099807739258 20 4.829599380493164
  vertex 0 20 0
  endloop
 endfacet

 facet normal 0.3826835155487061 0 0.9238795638084412
  outer loop
  vertex 1.294099807739258 22.26620101928711 4.829599380493164
  vertex 1.294099807739258 20 4.829599380493164
  vertex 2.5 20 4.330099105834961
  endloop
 endfacet

 facet normal 0.38266921043396 -8.885186616680585e-06 0.9238854646682739
  outer loop
  vertex 2.461199760437012 23.21829986572266 4.346200942993164
  vertex 1.294099807739258 22.26620101928711 4.829599380493164
  vertex 2.5 20 4.330099105834961
  endloop
 endfacet

 facet normal -0.4057789742946625 0 0.9139711856842041
  outer loop
  vertex -1.295899868011475 20.15330123901367 4.828800201416016
  vertex -1.294099807739258 20 4.829599380493164
  vertex -1.294099807739258 20.15480041503906 4.829599380493164
  endloop
 endfacet

 facet normal 0 -1 0
  outer loop
  vertex 3.535499572753906 20 3.535499572753906
  vertex 2.5 20 4.330099105834961
  vertex 0 20 0
  endloop
 endfacet

 facet normal 0 -1 0
  outer loop
  vertex -1.48390007019043 20 2.570100784301758
  vertex 0 20 0
  vertex -1.294099807739258 20 4.829599380493164
  endloop
 endfacet

 facet normal 0 -1 0
  outer loop
  vertex -1.48390007019043 20 4.750999450683594
  vertex -1.48390007019043 20 2.570100784301758
  vertex -1.294099807739258 20 4.829599380493164
  endloop
 endfacet

 facet normal 0.3832980692386627 0 0.9236247539520264
  outer loop
  vertex 2.461199760437012 23.21829986572266 4.346200942993164
  vertex 2.5 20 4.330099105834961
  vertex 2.5 23.25 4.330099105834961
  endloop
 endfacet

 facet normal -0.3826089799404144 0.0003238757781218737 0.9239103198051453
  outer loop
  vertex -1.48390007019043 20 4.750999450683594
  vertex -1.294099807739258 20 4.829599380493164
  vertex -1.295899868011475 20.15330123901367 4.828800201416016
  endloop
 endfacet

 facet normal 0 -1 0
  outer loop
  vertex 4.330100059509277 20 2.5
  vertex 3.535499572753906 20 3.535499572753906
  vertex 0 20 0
  endloop
 endfacet

 facet normal 0.6087772250175476 0 0.7933412790298462
  outer loop
  vertex 2.5 23.25 4.330099105834961
  vertex 2.5 20 4.330099105834961
  vertex 3.535499572753906 20 3.535499572753906
  endloop
 endfacet

 facet normal 0.6087485551834106 -1.454564608138753e-05 0.7933632731437683
  outer loop
  vertex 3.493499755859375 24.06039810180664 3.567800521850586
  vertex 2.5 23.25 4.330099105834961
  vertex 3.535499572753906 20 3.535499572753906
  endloop
 endfacet

 facet normal 0 -1 0
  outer loop
  vertex -1.48390007019043 20 1.48390007019043
  vertex 0 20 0
  vertex -1.48390007019043 20 2.570100784301758
  endloop
 endfacet

 facet normal 0 -1 0
  outer loop
  vertex 4.82960033416748 20 1.294099807739258
  vertex 4.330100059509277 20 2.5
  vertex 0 20 0
  endloop
 endfacet

 facet normal 0.7933408617973328 0 0.6087777018547058
  outer loop
  vertex 3.535499572753906 24.09469985961914 3.535499572753906
  vertex 3.535499572753906 20 3.535499572753906
  vertex 4.330100059509277 20 2.5
  endloop
 endfacet

 facet normal 0.7933253049850464 -8.167377018253319e-06 0.6087980270385742
  outer loop
  vertex 4.292699813842773 24.71239852905273 2.548799514770508
  vertex 3.535499572753906 24.09469985961914 3.535499572753906
  vertex 4.330100059509277 20 2.5
  endloop
 endfacet

 facet normal 0.6096324324607849 0 0.7926841974258423
  outer loop
  vertex 3.493499755859375 24.06039810180664 3.567800521850586
  vertex 3.535499572753906 20 3.535499572753906
  vertex 3.535499572753906 24.09469985961914 3.535499572753906
  endloop
 endfacet

 facet normal 0 -1 0
  outer loop
  vertex -1.48390007019043 20 0.8567008972167969
  vertex 0 20 0
  vertex -1.48390007019043 20 1.48390007019043
  endloop
 endfacet

 facet normal 0 -1 0
  outer loop
  vertex 5 20 0
  vertex 4.82960033416748 20 1.294099807739258
  vertex 0 20 0
  endloop
 endfacet

 facet normal 0.9238795638084412 0 0.3826835155487061
  outer loop
  vertex 4.330100059509277 24.74300003051758 2.5
  vertex 4.330100059509277 20 2.5
  vertex 4.82960033416748 20 1.294099807739258
  endloop
 endfacet

 facet normal 0.9238690733909607 -7.533277766924584e-06 0.3827087879180908
  outer loop
  vertex 4.803999900817871 25.12960052490234 1.356000900268555
  vertex 4.330100059509277 24.74300003051758 2.5
  vertex 4.82960033416748 20 1.294099807739258
  endloop
 endfacet

 facet normal 0.7937062382698059 0 0.6083012223243713
  outer loop
  vertex 4.292699813842773 24.71239852905273 2.548799514770508
  vertex 4.330100059509277 20 2.5
  vertex 4.330100059509277 24.74300003051758 2.5
  endloop
 endfacet

 facet normal 0 -1 0
  outer loop
  vertex -1.48390007019043 20 0.3976001739501953
  vertex 0 20 0
  vertex -1.48390007019043 20 0.8567008972167969
  endloop
 endfacet

 facet normal 0 -1 0
  outer loop
  vertex 4.82960033416748 20 -1.294099807739258
  vertex 5 20 0
  vertex 0 20 0
  endloop
 endfacet

 facet normal 0.9914421439170837 0 0.130547434091568
  outer loop
  vertex 4.82960033416748 25.1505012512207 1.294099807739258
  vertex 4.82960033416748 20 1.294099807739258
  vertex 5 20 0
  endloop
 endfacet

 facet normal 0.9914414286613464 -1.310352899963618e-06 0.1305525451898575
  outer loop
  vertex 4.991000175476074 25.28210067749023 0.06839942932128906
  vertex 4.82960033416748 25.1505012512207 1.294099807739258
  vertex 5 20 0
  endloop
 endfacet

 facet normal 0.9240896701812744 0 0.3821757733821869
  outer loop
  vertex 4.803999900817871 25.12960052490234 1.356000900268555
  vertex 4.82960033416748 20 1.294099807739258
  vertex 4.82960033416748 25.1505012512207 1.294099807739258
  endloop
 endfacet

 facet normal 0 -1 0
  outer loop
  vertex -1.48390007019043 20 0
  vertex 0 20 0
  vertex -1.48390007019043 20 0.3976001739501953
  endloop
 endfacet

 facet normal 0 -1 0
  outer loop
  vertex 4.330100059509277 20 -2.5
  vertex 4.82960033416748 20 -1.294099807739258
  vertex 0 20 0
  endloop
 endfacet

 facet normal 0.9914421439170837 -3.244941581215244e-06 -0.130547434091568
  outer loop
  vertex 4.838399887084961 25.15760040283203 -1.227399826049805
  vertex 5 20 0
  vertex 4.82960033416748 20 -1.294099807739258
  endloop
 endfacet

 facet normal 0.9914438724517822 0 -0.1305340230464935
  outer loop
  vertex 4.838399887084961 25.15760040283203 -1.227399826049805
  vertex 5 25.28950119018555 0
  vertex 5 20 0
  endloop
 endfacet

 facet normal 0.991454541683197 0 0.1304530948400497
  outer loop
  vertex 4.991000175476074 25.28210067749023 0.06839942932128906
  vertex 5 20 0
  vertex 5 25.28950119018555 0
  endloop
 endfacet

 facet normal 0 -1 0
  outer loop
  vertex -1.48390007019043 20 -0.3976001739501953
  vertex 0 20 0
  vertex -1.48390007019043 20 0
  endloop
 endfacet

 facet normal 0 -1 0
  outer loop
  vertex 3.535499572753906 20 -3.535499572753906
  vertex 4.330100059509277 20 -2.5
  vertex 0 20 0
  endloop
 endfacet

 facet normal 0.9238795638084412 -4.682745839090785e-06 -0.3826835155487061
  outer loop
  vertex 4.353899955749512 24.76240158081055 -2.442600250244141
  vertex 4.82960033416748 20 -1.294099807739258
  vertex 4.330100059509277 20 -2.5
  endloop
 endfacet

 facet normal 0.9238864183425903 0 -0.3826669156551361
  outer loop
  vertex 4.353899955749512 24.76240158081055 -2.442600250244141
  vertex 4.82960033416748 25.1505012512207 -1.294099807739258
  vertex 4.82960033416748 20 -1.294099807739258
  endloop
 endfacet

 facet normal 0.9914095401763916 0 -0.1307940632104874
  outer loop
  vertex 4.838399887084961 25.15760040283203 -1.227399826049805
  vertex 4.82960033416748 20 -1.294099807739258
  vertex 4.82960033416748 25.1505012512207 -1.294099807739258
  endloop
 endfacet

 facet normal 0 -1 0
  outer loop
  vertex -1.48390007019043 20 -0.8567008972167969
  vertex 0 20 0
  vertex -1.48390007019043 20 -0.3976001739501953
  endloop
 endfacet

 facet normal 0 -1 0
  outer loop
  vertex 2.5 20 -4.330099105834961
  vertex 3.535499572753906 20 -3.535499572753906
  vertex 0 20 0
  endloop
 endfacet

 facet normal 0.7933408617973328 1.262172372662462e-05 -0.6087777018547058
  outer loop
  vertex 3.56820011138916 24.12149810791016 -3.492799758911133
  vertex 4.330100059509277 20 -2.5
  vertex 3.535499572753906 20 -3.535499572753906
  endloop
 endfacet

 facet normal 0.793315589427948 0 -0.6088107228279114
  outer loop
  vertex 3.56820011138916 24.12149810791016 -3.492799758911133
  vertex 4.330100059509277 24.74300003051758 -2.5
  vertex 4.330100059509277 20 -2.5
  endloop
 endfacet

 facet normal 0.9237421751022339 0 -0.3830150365829468
  outer loop
  vertex 4.353899955749512 24.76240158081055 -2.442600250244141
  vertex 4.330100059509277 20 -2.5
  vertex 4.330100059509277 24.74300003051758 -2.5
  endloop
 endfacet

 facet normal 0 -1 0
  outer loop
  vertex -1.48390007019043 20 -1.48390007019043
  vertex 0 20 0
  vertex -1.48390007019043 20 -0.8567008972167969
  endloop
 endfacet

 facet normal 0 -1 0
  outer loop
  vertex 1.294099807739258 20 -4.829599380493164
  vertex 2.5 20 -4.330099105834961
  vertex 0 20 0
  endloop
 endfacet

 facet normal 0.6087772250175476 -3.531044740157085e-06 -0.7933412790298462
  outer loop
  vertex 2.533900260925293 23.2776985168457 -4.304100036621094
  vertex 3.535499572753906 20 -3.535499572753906
  vertex 2.5 20 -4.330099105834961
  endloop
 endfacet

 facet normal 0.608784556388855 0 -0.7933356165885925
  outer loop
  vertex 2.533900260925293 23.2776985168457 -4.304100036621094
  vertex 3.535499572753906 24.09469985961914 -3.535499572753906
  vertex 3.535499572753906 20 -3.535499572753906
  endloop
 endfacet

 facet normal 0.7939293384552002 0 -0.6080100536346436
  outer loop
  vertex 3.56820011138916 24.12149810791016 -3.492799758911133
  vertex 3.535499572753906 20 -3.535499572753906
  vertex 3.535499572753906 24.09469985961914 -3.535499572753906
  endloop
 endfacet

 facet normal 0 -1 0
  outer loop
  vertex -1.48390007019043 20 -2.570100784301758
  vertex 0 20 0
  vertex -1.48390007019043 20 -1.48390007019043
  endloop
 endfacet

 facet normal 0 -1 0
  outer loop
  vertex 0 20 -5
  vertex 1.294099807739258 20 -4.829599380493164
  vertex 0 20 0
  endloop
 endfacet

 facet normal 0.3826835155487061 -1.299453288083896e-05 -0.9238795638084412
  outer loop
  vertex 1.321700096130371 22.28879928588867 -4.818199157714844
  vertex 2.5 20 -4.330099105834961
  vertex 1.294099807739258 20 -4.829599380493164
  endloop
 endfacet

 facet normal 0.38270503282547 0 -0.9238705635070801
  outer loop
  vertex 1.321700096130371 22.28879928588867 -4.818199157714844
  vertex 2.5 23.25 -4.330099105834961
  vertex 2.5 20 -4.330099105834961
  endloop
 endfacet

 facet normal 0.6085623502731323 0 -0.7935060858726501
  outer loop
  vertex 2.533900260925293 23.2776985168457 -4.304100036621094
  vertex 2.5 20 -4.330099105834961
  vertex 2.5 23.25 -4.330099105834961
  endloop
 endfacet

 facet normal 0 -1 0
  outer loop
  vertex -1.48390007019043 20 -2.570100784301758
  vertex -1.294099807739258 20 -4.829599380493164
  vertex 0 20 0
  endloop
 endfacet

 facet normal 0 -1 0
  outer loop
  vertex -1.48390007019043 20 -2.570100784301758
  vertex -1.48390007019043 20 -4.750999450683594
  vertex -1.294099807739258 20 -4.829599380493164
  endloop
 endfacet

 facet normal 0 -1 0
  outer loop
  vertex -1.294099807739258 20 -4.829599380493164
  vertex 0 20 -5
  vertex 0 20 0
  endloop
 endfacet

 facet normal 0.1305481493473053 1.57726499310229e-05 -0.9914419651031494
  outer loop
  vertex 0.01580047607421875 21.2234001159668 -4.997900009155273
  vertex 1.294099807739258 20 -4.829599380493164
  vertex 0 20 -5
  endloop
 endfacet

 facet normal 0.130533292889595 0 -0.9914438724517822
  outer loop
  vertex 0.01580047607421875 21.2234001159668 -4.997900009155273
  vertex 1.294099807739258 22.26620101928711 -4.829599380493164
  vertex 1.294099807739258 20 -4.829599380493164
  endloop
 endfacet

 facet normal 0.3817631602287292 0 -0.9242602586746216
  outer loop
  vertex 1.321700096130371 22.28879928588867 -4.818199157714844
  vertex 1.294099807739258 20 -4.829599380493164
  vertex 1.294099807739258 22.26620101928711 -4.829599380493164
  endloop
 endfacet

 facet normal -0.3826089799404144 0 -0.9239103198051453
  outer loop
  vertex -1.294099807739258 20.15480041503906 -4.829599380493164
  vertex -1.294099807739258 20 -4.829599380493164
  vertex -1.48390007019043 20 -4.750999450683594
  endloop
 endfacet

 facet normal -0.1305481344461441 -0.0002409216540399939 -0.9914419054985046
  outer loop
  vertex -1.292099952697754 20.15650177001953 -4.829900741577148
  vertex 0 20 -5
  vertex -1.294099807739258 20 -4.829599380493164
  endloop
 endfacet

 facet normal -0.1305194646120071 0 -0.9914457201957703
  outer loop
  vertex -1.292099952697754 20.15650177001953 -4.829900741577148
  vertex 0 21.21049880981445 -5
  vertex 0 20 -5
  endloop
 endfacet

 facet normal 0.1317482888698578 0 -0.9912831783294678
  outer loop
  vertex 0.01580047607421875 21.2234001159668 -4.997900009155273
  vertex 0 20 -5
  vertex 0 21.21049880981445 -5
  endloop
 endfacet

 facet normal -0.1490091383457184 0 -0.9888358116149902
  outer loop
  vertex -1.292099952697754 20.15650177001953 -4.829900741577148
  vertex -1.294099807739258 20 -4.829599380493164
  vertex -1.294099807739258 20.15480041503906 -4.829599380493164
  endloop
 endfacet

 facet normal 0.6321271657943726 -0.774864673614502 0
  outer loop
  vertex -1.48390007019043 20 -4.750999450683594
  vertex -26 0 9.5
  vertex -26 0 -59.5
  endloop
 endfacet

 facet normal 0.6321271657943726 -0.774864673614502 0
  outer loop
  vertex -1.48390007019043 20 -2.570100784301758
  vertex -26 0 9.5
  vertex -1.48390007019043 20 -4.750999450683594
  endloop
 endfacet

 facet normal 0.6320981383323669 -0.7748884558677673 2.237915578007232e-05
  outer loop
  vertex 0 21.21049880981445 -5
  vertex -1.292099952697754 20.15650177001953 -4.829900741577148
  vertex -26 0 -59.5
  endloop
 endfacet

 facet normal 0.6300404667854309 -0.7765084505081177 0.009143457747995853
  outer loop
  vertex 0 21.21049880981445 5
  vertex 12 31 9.5
  vertex -0.01550006866455078 21.19789886474609 4.99799919128418
  endloop
 endfacet

 facet normal 0.6469478011131287 -0.7624508142471313 -0.01127453334629536
  outer loop
  vertex -1.292099952697754 20.15650177001953 -4.829900741577148
  vertex -1.294099807739258 20.15480041503906 -4.829599380493164
  vertex -26 0 -59.5
  endloop
 endfacet

 facet normal 0.6320510506629944 -0.7749267816543579 5.679398600477725e-05
  outer loop
  vertex -1.294099807739258 20.15480041503906 -4.829599380493164
  vertex -1.48390007019043 20 -4.750999450683594
  vertex -26 0 -59.5
  endloop
 endfacet

 facet normal 0.6321271657943726 -0.774864673614502 0
  outer loop
  vertex -1.48390007019043 20 -1.48390007019043
  vertex -26 0 9.5
  vertex -1.48390007019043 20 -2.570100784301758
  endloop
 endfacet

 facet normal 0.6321271657943726 -0.774864673614502 0
  outer loop
  vertex -1.48390007019043 20 -0.8567008972167969
  vertex -26 0 9.5
  vertex -1.48390007019043 20 -1.48390007019043
  endloop
 endfacet

 facet normal 0.6321271657943726 -0.774864673614502 0
  outer loop
  vertex -1.48390007019043 20 -0.3976001739501953
  vertex -26 0 9.5
  vertex -1.48390007019043 20 -0.8567008972167969
  endloop
 endfacet

 facet normal 0.6321271657943726 -0.774864673614502 0
  outer loop
  vertex -1.48390007019043 20 0
  vertex -26 0 9.5
  vertex -1.48390007019043 20 -0.3976001739501953
  endloop
 endfacet

 facet normal 0.6321271657943726 -0.774864673614502 0
  outer loop
  vertex -1.48390007019043 20 0.3976001739501953
  vertex -26 0 9.5
  vertex -1.48390007019043 20 0
  endloop
 endfacet

 facet normal 0.6321271657943726 -0.774864673614502 0
  outer loop
  vertex -1.48390007019043 20 0.8567008972167969
  vertex -26 0 9.5
  vertex -1.48390007019043 20 0.3976001739501953
  endloop
 endfacet

 facet normal 0.6321271657943726 -0.774864673614502 0
  outer loop
  vertex -1.48390007019043 20 1.48390007019043
  vertex -26 0 9.5
  vertex -1.48390007019043 20 0.8567008972167969
  endloop
 endfacet

 facet normal 0.6321271657943726 -0.774864673614502 0
  outer loop
  vertex -1.48390007019043 20 2.570100784301758
  vertex -26 0 9.5
  vertex -1.48390007019043 20 1.48390007019043
  endloop
 endfacet

 facet normal 0.6321271657943726 -0.774864673614502 0
  outer loop
  vertex -1.48390007019043 20 4.750999450683594
  vertex -26 0 9.5
  vertex -1.48390007019043 20 2.570100784301758
  endloop
 endfacet

 facet normal 0.6320738196372986 -0.7749080657958984 -0.0004581476969178766
  outer loop
  vertex -1.295899868011475 20.15330123901367 4.828800201416016
  vertex -26 0 9.5
  vertex -1.48390007019043 20 4.750999450683594
  endloop
 endfacet

 facet normal 0.6343501806259155 -0.7727653384208679 0.02082483097910881
  outer loop
  vertex -1.294099807739258 20.15480041503906 4.829599380493164
  vertex -26 0 9.5
  vertex -1.295899868011475 20.15330123901367 4.828800201416016
  endloop
 endfacet

 facet normal 0.6321267485618591 -0.7748650312423706 2.140186097676633e-06
  outer loop
  vertex 12 31 9.5
  vertex -26 0 9.5
  vertex -1.294099807739258 20.15480041503906 4.829599380493164
  endloop
 endfacet

 facet normal 0.6321440935134888 -0.7748509645462036 -8.002898539416492e-05
  outer loop
  vertex 12 31 9.5
  vertex -1.294099807739258 20.15480041503906 4.829599380493164
  vertex -0.01550006866455078 21.19789886474609 4.99799919128418
  endloop
 endfacet

 facet normal 0.6321395039558411 -0.7748547196388245 -5.185950067243539e-05
  outer loop
  vertex 1.26509952545166 22.24259948730469 4.833400726318359
  vertex 12 31 9.5
  vertex 0 21.21049880981445 5
  endloop
 endfacet

 facet normal 0.6314260363578796 -0.7754316329956055 0.002672192640602589
  outer loop
  vertex 1.294099807739258 22.26620101928711 4.829599380493164
  vertex 12 31 9.5
  vertex 1.26509952545166 22.24259948730469 4.833400726318359
  endloop
 endfacet

 facet normal 0.6321257352828979 -0.7748658657073975 1.029316172207473e-05
  outer loop
  vertex 2.461199760437012 23.21829986572266 4.346200942993164
  vertex 12 31 9.5
  vertex 1.294099807739258 22.26620101928711 4.829599380493164
  endloop
 endfacet

 facet normal 0.6324480772018433 -0.7746022343635559 -0.0009846139000728726
  outer loop
  vertex 2.5 23.25 4.330099105834961
  vertex 12 31 9.5
  vertex 2.461199760437012 23.21829986572266 4.346200942993164
  endloop
 endfacet

 facet normal 0.632109522819519 -0.7748790979385376 5.265595609671436e-05
  outer loop
  vertex 3.493499755859375 24.06039810180664 3.567800521850586
  vertex 12 31 9.5
  vertex 2.5 23.25 4.330099105834961
  endloop
 endfacet

 facet normal 0.6323332786560059 -0.7746963500976562 -0.0004818971210625023
  outer loop
  vertex 3.535499572753906 24.09469985961914 3.535499572753906
  vertex 12 31 9.5
  vertex 3.493499755859375 24.06039810180664 3.567800521850586
  endloop
 endfacet

 facet normal 0.6320986151695251 -0.7748879790306091 3.736736107384786e-05
  outer loop
  vertex 4.82960033416748 25.1505012512207 1.294099807739258
  vertex 4.991000175476074 25.28210067749023 0.06839942932128906
  vertex 12 31 9.5
  endloop
 endfacet

 facet normal 0.6321247220039368 -0.7748666405677795 1.109648019337328e-05
  outer loop
  vertex 12 31 9.5
  vertex 3.535499572753906 24.09469985961914 3.535499572753906
  vertex 4.292699813842773 24.71239852905273 2.548799514770508
  endloop
 endfacet

 facet normal 0.6320812106132507 -0.7749022245407104 5.36169100087136e-05
  outer loop
  vertex 5 25.28950119018555 0
  vertex 4.838399887084961 25.15760040283203 -1.227399826049805
  vertex 12 31 9.5
  endloop
 endfacet

 facet normal 0.6325899958610535 -0.7744863629341125 -0.0008487938903272152
  outer loop
  vertex 4.330100059509277 24.74300003051758 2.5
  vertex 12 31 9.5
  vertex 4.292699813842773 24.71239852905273 2.548799514770508
  endloop
 endfacet

 facet normal 0.632125198841095 -0.7748664021492004 2.681048556496535e-07
  outer loop
  vertex 4.330100059509277 24.74300003051758 2.5
  vertex 4.803999900817871 25.12960052490234 1.356000900268555
  vertex 12 31 9.5
  endloop
 endfacet

 facet normal 0.6322193741798401 -0.7747894525527954 -0.0001384558563586324
  outer loop
  vertex 4.803999900817871 25.12960052490234 1.356000900268555
  vertex 4.82960033416748 25.1505012512207 1.294099807739258
  vertex 12 31 9.5
  endloop
 endfacet

 facet normal 0.6320743560791016 -0.7749077677726746 5.523007712326944e-05
  outer loop
  vertex 4.82960033416748 25.1505012512207 -1.294099807739258
  vertex 4.353899955749512 24.76240158081055 -2.442600250244141
  vertex 12 31 9.5
  endloop
 endfacet

 facet normal 0.6325833201408386 -0.7744921445846558 -0.0005628631333820522
  outer loop
  vertex 4.991000175476074 25.28210067749023 0.06839942932128906
  vertex 5 25.28950119018555 0
  vertex 12 31 9.5
  endloop
 endfacet

 facet normal 0.6326330304145813 -0.7744514346122742 -0.0005408365395851433
  outer loop
  vertex 4.353899955749512 24.76240158081055 -2.442600250244141
  vertex 4.330100059509277 24.74300003051758 -2.5
  vertex 12 31 9.5
  endloop
 endfacet

 facet normal 0.6331623196601868 -0.7740182876586914 -0.001149508636444807
  outer loop
  vertex 4.838399887084961 25.15760040283203 -1.227399826049805
  vertex 4.82960033416748 25.1505012512207 -1.294099807739258
  vertex 12 31 9.5
  endloop
 endfacet

 facet normal 0.6321163773536682 -0.7748734354972839 9.516877071291674e-06
  outer loop
  vertex 4.330100059509277 24.74300003051758 -2.5
  vertex -26 0 -59.5
  vertex 12 31 9.5
  endloop
 endfacet

 facet normal 0.6376326680183411 -0.7703253030776978 -0.00486098462715745
  outer loop
  vertex 3.56820011138916 24.12149810791016 -3.492799758911133
  vertex 3.535499572753906 24.09469985961914 -3.535499572753906
  vertex -26 0 -59.5
  endloop
 endfacet

 facet normal 0.6320303082466125 -0.7749437689781189 8.583249291405082e-05
  outer loop
  vertex 3.56820011138916 24.12149810791016 -3.492799758911133
  vertex -26 0 -59.5
  vertex 4.330100059509277 24.74300003051758 -2.5
  endloop
 endfacet

 facet normal 0.6331031918525696 -0.7740668654441833 -0.0008408032590523362
  outer loop
  vertex 2.533900260925293 23.2776985168457 -4.304100036621094
  vertex 2.5 23.25 -4.330099105834961
  vertex -26 0 -59.5
  endloop
 endfacet

 facet normal 0.6320548057556152 -0.7749236822128296 6.254563777474687e-05
  outer loop
  vertex 2.533900260925293 23.2776985168457 -4.304100036621094
  vertex -26 0 -59.5
  vertex 3.535499572753906 24.09469985961914 -3.535499572753906
  endloop
 endfacet

 facet normal 0.6321046352386475 -0.7748830318450928 1.899319977383129e-05
  outer loop
  vertex 1.321700096130371 22.28879928588867 -4.818199157714844
  vertex -26 0 -59.5
  vertex 2.5 23.25 -4.330099105834961
  endloop
 endfacet

 facet normal 0.6338678002357483 -0.7734400033950806 -0.001450183452107012
  outer loop
  vertex 1.294099807739258 22.26620101928711 -4.829599380493164
  vertex -26 0 -59.5
  vertex 1.321700096130371 22.28879928588867 -4.818199157714844
  endloop
 endfacet

 facet normal 0.6324862837791443 -0.7745715379714966 -0.0002861749671865255
  outer loop
  vertex 0.01580047607421875 21.2234001159668 -4.997900009155273
  vertex 0 21.21049880981445 -5
  vertex -26 0 -59.5
  endloop
 endfacet

 facet normal 0.6321181058883667 -0.7748720645904541 6.621647116844542e-06
  outer loop
  vertex 0.01580047607421875 21.2234001159668 -4.997900009155273
  vertex -26 0 -59.5
  vertex 1.294099807739258 22.26620101928711 -4.829599380493164
  endloop
 endfacet

 facet normal 0.6321267485618591 -0.7748650312423706 0
  outer loop
  vertex 12 31 9.5
  vertex -26 0 -59.5
  vertex 12 31 -59.5
  endloop
 endfacet

 facet normal 0 0 1
  outer loop
  vertex 8 31 9.5
  vertex -26 0 9.5
  vertex 12 31 9.5
  endloop
 endfacet

 facet normal 0 -1 0
  outer loop
  vertex -30 0 9.5
  vertex -26 0 -59.5
  vertex -26 0 9.5
  endloop
 endfacet

 facet normal 0 1 0
  outer loop
  vertex 8 31 -59.5
  vertex 12 31 9.5
  vertex 12 31 -59.5
  endloop
 endfacet

 facet normal 0 0 -1
  outer loop
  vertex 12 31 -59.5
  vertex -26 0 -59.5
  vertex -30 0 -59.5
  endloop
 endfacet

 facet normal 0 1 0
  outer loop
  vertex 8 31 -59.5
  vertex 8 31 9.5
  vertex 12 31 9.5
  endloop
 endfacet

 facet normal 0 0 1
  outer loop
  vertex 8 31 9.5
  vertex -30 0 9.5
  vertex -26 0 9.5
  endloop
 endfacet

 facet normal 0 -1 0
  outer loop
  vertex -30 0 9.5
  vertex -30 0 -59.5
  vertex -26 0 -59.5
  endloop
 endfacet

 facet normal 0 0 -1
  outer loop
  vertex 12 31 -59.5
  vertex -30 0 -59.5
  vertex 8 31 -59.5
  endloop
 endfacet

 facet normal -0.6333789825439453 0.7738415002822876 0.0006115998839959502
  outer loop
  vertex 4.82960033416748 28.41360092163086 -1.294099807739258
  vertex 4.843999862670898 28.42530059814453 -1.185100555419922
  vertex 8 31 9.5
  endloop
 endfacet

 facet normal -0.6309574246406555 0.7758008241653442 0.005082897376269102
  outer loop
  vertex -4.999300003051758 20.39530181884766 -0.005100250244140625
  vertex -30 0 9.5
  vertex -5 20.39469909667969 0
  endloop
 endfacet

 facet normal -0.6321327090263367 0.774860143661499 -2.678960117918905e-05
  outer loop
  vertex -4.829599857330322 20.53369903564453 -1.294099807739258
  vertex -30 0 9.5
  vertex -4.999300003051758 20.39530181884766 -0.005100250244140625
  endloop
 endfacet

 facet normal -0.6293070912361145 0.7770935297012329 0.009918511845171452
  outer loop
  vertex -4.330100059509277 20.94120025634766 -2.5
  vertex -4.3225998878479 20.9473991394043 -2.509799957275391
  vertex -30 0 9.5
  endloop
 endfacet

 facet normal -0.6321790814399719 0.7748223543167114 -0.0002067157183773816
  outer loop
  vertex -4.826900005340576 20.5359001159668 -1.300600051879883
  vertex -30 0 9.5
  vertex -4.829599857330322 20.53369903564453 -1.294099807739258
  endloop
 endfacet

 facet normal -0.6321223974227905 0.7748686075210571 1.332381179963704e-05
  outer loop
  vertex -4.330100059509277 20.94120025634766 -2.5
  vertex -30 0 9.5
  vertex -4.826900005340576 20.5359001159668 -1.300600051879883
  endloop
 endfacet

 facet normal -0.6321302056312561 0.7748621702194214 -9.306671927333809e-06
  outer loop
  vertex -4.3225998878479 20.9473991394043 -2.509799957275391
  vertex -3.535500049591064 21.58950042724609 -3.535499572753906
  vertex -30 0 9.5
  endloop
 endfacet

 facet normal -0.6321277022361755 0.7748643159866333 -8.83795337358606e-07
  outer loop
  vertex -3.535500049591064 21.58950042724609 -3.535499572753906
  vertex 8 31 -59.5
  vertex -30 0 9.5
  endloop
 endfacet

 facet normal -0.6307264566421509 0.7760051488876343 0.0004798010340891778
  outer loop
  vertex -3.518899917602539 21.60300064086914 -3.548200607299805
  vertex 8 31 -59.5
  vertex -3.535500049591064 21.58950042724609 -3.535499572753906
  endloop
 endfacet

 facet normal -0.632122278213501 0.7748686671257019 1.555122594254499e-06
  outer loop
  vertex -2.5 22.43420028686523 -4.330099105834961
  vertex 8 31 -59.5
  vertex -3.518899917602539 21.60300064086914 -3.548200607299805
  endloop
 endfacet

 facet normal -0.6330291032791138 0.7741279006004333 -0.0002860556123778224
  outer loop
  vertex -2.470399856567383 22.45840072631836 -4.342399597167969
  vertex 8 31 -59.5
  vertex -2.5 22.43420028686523 -4.330099105834961
  endloop
 endfacet

 facet normal -0.6321205496788025 0.7748700380325317 1.337845901616674e-06
  outer loop
  vertex -1.294099807739258 23.41799926757812 -4.829599380493164
  vertex 8 31 -59.5
  vertex -2.470399856567383 22.45840072631836 -4.342399597167969
  endloop
 endfacet

 facet normal -0.6314266920089722 0.7754356265068054 0.0001977342180907726
  outer loop
  vertex -1.24940013885498 23.45439910888672 -4.835500717163086
  vertex 8 31 -59.5
  vertex -1.294099807739258 23.41799926757812 -4.829599380493164
  endloop
 endfacet

 facet normal -0.6321476697921753 0.7748479843139648 -5.345383215171751e-06
  outer loop
  vertex 0 24.47370147705078 -5
  vertex 8 31 -59.5
  vertex -1.24940013885498 23.45439910888672 -4.835500717163086
  endloop
 endfacet

 facet normal -0.6319320201873779 0.7750238180160522 4.735205584438518e-05
  outer loop
  vertex 0.05850028991699219 24.52140045166016 -4.992300033569336
  vertex 8 31 -59.5
  vertex 0 24.47370147705078 -5
  endloop
 endfacet

 facet normal -0.6321305632591248 0.7748619318008423 -8.198255727620563e-07
  outer loop
  vertex 1.294099807739258 25.52939987182617 -4.829599380493164
  vertex 8 31 -59.5
  vertex 0.05850028991699219 24.52140045166016 -4.992300033569336
  endloop
 endfacet

 facet normal -0.6321176290512085 0.7748724818229675 1.81918881025922e-06
  outer loop
  vertex 1.36139965057373 25.58430099487305 -4.801700592041016
  vertex 8 31 -59.5
  vertex 1.294099807739258 25.52939987182617 -4.829599380493164
  endloop
 endfacet

 facet normal -0.632142186164856 0.774852454662323 -3.137574594802572e-06
  outer loop
  vertex 2.5 26.51319885253906 -4.330099105834961
  vertex 8 31 -59.5
  vertex 1.36139965057373 25.58430099487305 -4.801700592041016
  endloop
 endfacet

 facet normal -0.6316641569137573 0.7752422094345093 7.622457633260638e-05
  outer loop
  vertex 2.567999839782715 26.56859970092773 -4.277900695800781
  vertex 8 31 -59.5
  vertex 2.5 26.51319885253906 -4.330099105834961
  endloop
 endfacet

 facet normal -0.6321371793746948 0.7748565077781677 -1.264222873942344e-06
  outer loop
  vertex 3.535499572753906 27.3578987121582 -3.535499572753906
  vertex 8 31 -59.5
  vertex 2.567999839782715 26.56859970092773 -4.277900695800781
  endloop
 endfacet

 facet normal -0.6323513388633728 0.7746816873550415 -2.972850779769942e-05
  outer loop
  vertex 3.594300270080566 27.40589904785156 -3.458799362182617
  vertex 8 31 -59.5
  vertex 3.535499572753906 27.3578987121582 -3.535499572753906
  endloop
 endfacet

 facet normal -0.6320937871932983 0.7748919725418091 4.00353383156471e-06
  outer loop
  vertex 4.330100059509277 28.00609970092773 -2.5
  vertex 8 31 -59.5
  vertex 3.594300270080566 27.40589904785156 -3.458799362182617
  endloop
 endfacet

 facet normal -0.6321848630905151 0.7748176455497742 -5.767069069406716e-06
  outer loop
  vertex 4.37030029296875 28.03890037536621 -2.403099060058594
  vertex 8 31 -59.5
  vertex 4.330100059509277 28.00609970092773 -2.5
  endloop
 endfacet

 facet normal -0.6321346163749695 0.7748586535453796 -4.427182318522682e-07
  outer loop
  vertex 4.37030029296875 28.03890037536621 -2.403099060058594
  vertex 4.82960033416748 28.41360092163086 -1.294099807739258
  vertex 8 31 -59.5
  endloop
 endfacet

 facet normal -0.6320560574531555 0.7749226689338684 -3.96881987398956e-05
  outer loop
  vertex 4.843999862670898 28.42530059814453 -1.185100555419922
  vertex 5 28.5526008605957 0
  vertex 8 31 9.5
  endloop
 endfacet

 facet normal -0.6321297287940979 0.7748625874519348 0
  outer loop
  vertex 4.82960033416748 28.41360092163086 -1.294099807739258
  vertex 8 31 9.5
  vertex 8 31 -59.5
  endloop
 endfacet

 facet normal -0.631868302822113 0.7750757932662964 -0.0002294293080922216
  outer loop
  vertex 4.330100059509277 28.00609970092773 2.5
  vertex 4.266900062561035 27.9546012878418 2.582399368286133
  vertex 8 31 9.5
  endloop
 endfacet

 facet normal -0.6310981512069702 0.7757028341293335 -0.0005431583849713206
  outer loop
  vertex 8 31 9.5
  vertex 5 28.5526008605957 0
  vertex 4.985400199890137 28.54080009460449 0.1105003356933594
  endloop
 endfacet

 facet normal -0.6321381330490112 0.7748557925224304 1.296931986871641e-05
  outer loop
  vertex 4.266900062561035 27.9546012878418 2.582399368286133
  vertex 3.535499572753906 27.3578987121582 3.535499572753906
  vertex 8 31 9.5
  endloop
 endfacet

 facet normal -0.6322042942047119 0.7748017311096191 4.798638838110492e-05
  outer loop
  vertex 4.82960033416748 28.41360092163086 1.294099807739258
  vertex 8 31 9.5
  vertex 4.985400199890137 28.54080009460449 0.1105003356933594
  endloop
 endfacet

 facet normal -0.6316643953323364 0.7752419710159302 -0.0002993628731928766
  outer loop
  vertex 4.82960033416748 28.41360092163086 1.294099807739258
  vertex 4.787699699401855 28.3794994354248 1.395099639892578
  vertex 8 31 9.5
  endloop
 endfacet

 facet normal -0.6321716904640198 0.7748283743858337 3.543856655596755e-05
  outer loop
  vertex 4.787699699401855 28.3794994354248 1.395099639892578
  vertex 4.330100059509277 28.00609970092773 2.5
  vertex 8 31 9.5
  endloop
 endfacet

 facet normal -0.6318389773368835 0.7750997543334961 -0.0003599253541324288
  outer loop
  vertex 3.535499572753906 27.3578987121582 3.535499572753906
  vertex 3.45989990234375 27.29629898071289 3.593500137329102
  vertex 8 31 9.5
  endloop
 endfacet

 facet normal -0.6322550773620605 0.7747601866722107 0.0002337145269848406
  outer loop
  vertex 2.5 26.51319885253906 4.330099105834961
  vertex 2.422200202941895 26.44969940185547 4.362300872802734
  vertex 8 31 9.5
  endloop
 endfacet

 facet normal -0.6323617100715637 0.7746731042861938 0.0005626297206617892
  outer loop
  vertex 1.294099807739258 25.52939987182617 4.829599380493164
  vertex 1.223299980163574 25.47159957885742 4.838899612426758
  vertex 8 31 9.5
  endloop
 endfacet

 facet normal -0.6321315169334412 0.7748610973358154 1.467576203140197e-05
  outer loop
  vertex 3.45989990234375 27.29629898071289 3.593500137329102
  vertex 2.5 26.51319885253906 4.330099105834961
  vertex 8 31 9.5
  endloop
 endfacet

 facet normal -0.6327401995658875 0.7743620872497559 0.001823003287427127
  outer loop
  vertex 0 24.47370147705078 5
  vertex -0.05729961395263672 24.42689895629883 4.992500305175781
  vertex 8 31 9.5
  endloop
 endfacet

 facet normal -0.6321284770965576 0.774863600730896 4.668985184252961e-06
  outer loop
  vertex 2.422200202941895 26.44969940185547 4.362300872802734
  vertex 1.294099807739258 25.52939987182617 4.829599380493164
  vertex 8 31 9.5
  endloop
 endfacet

 facet normal -0.6320921182632446 0.7748932838439941 -0.0001100931403925642
  outer loop
  vertex -0.05729961395263672 24.42689895629883 4.992500305175781
  vertex -1.294099807739258 23.41799926757812 4.829599380493164
  vertex 8 31 9.5
  endloop
 endfacet

 facet normal -0.6321089863777161 0.7748795747756958 -4.973434988642111e-05
  outer loop
  vertex 1.223299980163574 25.47159957885742 4.838899612426758
  vertex 0 24.47370147705078 5
  vertex 8 31 9.5
  endloop
 endfacet

 facet normal -0.632172703742981 0.7748274207115173 -0.0004662961873691529
  outer loop
  vertex -1.294099807739258 23.41799926757812 4.829599380493164
  vertex -1.33489990234375 23.38470077514648 4.812700271606445
  vertex -30 0 9.5
  endloop
 endfacet

 facet normal -0.6321296691894531 0.7748627066612244 -2.70863929472398e-05
  outer loop
  vertex -1.33489990234375 23.38470077514648 4.812700271606445
  vertex -2.5 22.43420028686523 4.330099105834961
  vertex -30 0 9.5
  endloop
 endfacet

 facet normal -0.6321267485618591 0.7748650312423706 4.655113116314169e-06
  outer loop
  vertex -1.294099807739258 23.41799926757812 4.829599380493164
  vertex -30 0 9.5
  vertex 8 31 9.5
  endloop
 endfacet

 facet normal -0.6321492195129395 0.7748467326164246 -0.0002008708834182471
  outer loop
  vertex -2.525000095367432 22.41379928588867 4.31089973449707
  vertex -30 0 9.5
  vertex -2.5 22.43420028686523 4.330099105834961
  endloop
 endfacet

 facet normal -0.6321214437484741 0.7748693823814392 4.471834836294875e-05
  outer loop
  vertex -3.535500049591064 21.58950042724609 3.535499572753906
  vertex -30 0 9.5
  vertex -2.525000095367432 22.41379928588867 4.31089973449707
  endloop
 endfacet

 facet normal -0.6321232914924622 0.774867832660675 1.734734905767255e-05
  outer loop
  vertex -3.547999858856201 21.57920074462891 3.519100189208984
  vertex -4.330100059509277 20.94120025634766 2.5
  vertex -30 0 9.5
  endloop
 endfacet

 facet normal -0.6326805353164673 0.7744019627571106 -0.004128637257963419
  outer loop
  vertex -3.547999858856201 21.57920074462891 3.519100189208984
  vertex -30 0 9.5
  vertex -3.535500049591064 21.58950042724609 3.535499572753906
  endloop
 endfacet

 facet normal -0.6321314573287964 0.774861216545105 -2.858998595911544e-05
  outer loop
  vertex -4.334799766540527 20.93740081787109 2.488700866699219
  vertex -4.829599857330322 20.53369903564453 1.294099807739258
  vertex -30 0 9.5
  endloop
 endfacet

 facet normal -0.6317762732505798 0.7751477956771851 0.002127336570993066
  outer loop
  vertex -4.334799766540527 20.93740081787109 2.488700866699219
  vertex -30 0 9.5
  vertex -4.330100059509277 20.94120025634766 2.5
  endloop
 endfacet

 facet normal -0.632129430770874 0.7748628854751587 -1.484369022364262e-05
  outer loop
  vertex -4.83050012588501 20.53300094604492 1.287200927734375
  vertex -5 20.39469909667969 0
  vertex -30 0 9.5
  endloop
 endfacet

 facet normal -0.6313536763191223 0.775485098361969 0.003918006084859371
  outer loop
  vertex -4.83050012588501 20.53300094604492 1.287200927734375
  vertex -30 0 9.5
  vertex -4.829599857330322 20.53369903564453 1.294099807739258
  endloop
 endfacet

 facet normal -0.6321267485618591 0.7748650312423706 0
  outer loop
  vertex 8 31 -59.5
  vertex -30 0 -59.5
  vertex -30 0 9.5
  endloop
 endfacet

endsolidAssimpScene
