solid AssimpScene
 facet normal 0.9754413366317749 -0.2202595472335815 0
  outer loop
  vertex -1.48389995098114 20 -4.750999450683594
  vertex -6 0 9.5
  vertex -6 0 -59.5
  endloop
 endfacet

 facet normal 0.9754409790039062 -0.2202608585357666 -5.953134859737474e-06
  outer loop
  vertex -1.48389995098114 20 4.750999450683594
  vertex 1 31 9.5
  vertex -6 0 9.5
  endloop
 endfacet

 facet normal 0.9754387140274048 -0.2202714085578918 4.861527031607693e-06
  outer loop
  vertex -0.4647998809814453 24.51300048828125 -4.938800811767578
  vertex -1.282600045204163 20.89149856567383 -4.831100463867188
  vertex -6 0 -59.5
  endloop
 endfacet

 facet normal 0.9755637049674988 -0.2197130024433136 -0.001251403824426234
  outer loop
  vertex -1.294100046157837 20.84040069580078 4.829599380493164
  vertex 1 31 9.5
  vertex -1.303699970245361 20.79779815673828 4.825599670410156
  endloop
 endfacet

 facet normal 0.9755958318710327 -0.2195740342140198 -0.0002751992433331907
  outer loop
  vertex -1.282600045204163 20.89149856567383 -4.831100463867188
  vertex -1.294100046157837 20.84040069580078 -4.829599380493164
  vertex -6 0 -59.5
  endloop
 endfacet

 facet normal 0.9754332900047302 -0.2202950119972229 1.362141392746707e-05
  outer loop
  vertex -1.294100046157837 20.84040069580078 -4.829599380493164
  vertex -1.48389995098114 20 -4.750999450683594
  vertex -6 0 -59.5
  endloop
 endfacet

 facet normal 0.9754413366317749 -0.2202595472335815 0
  outer loop
  vertex -1.48389995098114 20 -4.750999450683594
  vertex -1.48389995098114 20 -2.570100784301758
  vertex -6 0 9.5
  endloop
 endfacet

 facet normal 0.9754413366317749 -0.2202595472335815 0
  outer loop
  vertex -1.48389995098114 20 -2.570100784301758
  vertex -1.48389995098114 20 -1.48390007019043
  vertex -6 0 9.5
  endloop
 endfacet

 facet normal 0.9754413366317749 -0.2202595472335815 0
  outer loop
  vertex -1.48389995098114 20 -1.48390007019043
  vertex -1.48389995098114 20 -0.8567008972167969
  vertex -6 0 9.5
  endloop
 endfacet

 facet normal 0.9754413366317749 -0.2202595472335815 0
  outer loop
  vertex -1.48389995098114 20 -0.8567008972167969
  vertex -1.48389995098114 20 -0.3976001739501953
  vertex -6 0 9.5
  endloop
 endfacet

 facet normal 0.9754413366317749 -0.2202595472335815 0
  outer loop
  vertex -1.48389995098114 20 -0.3976001739501953
  vertex -1.48389995098114 20 0
  vertex -6 0 9.5
  endloop
 endfacet

 facet normal 0.9754413366317749 -0.2202595472335815 0
  outer loop
  vertex -1.48389995098114 20 0
  vertex -1.48389995098114 20 0.3976001739501953
  vertex -6 0 9.5
  endloop
 endfacet

 facet normal 0.9754413366317749 -0.2202595472335815 0
  outer loop
  vertex -1.48389995098114 20 0.3976001739501953
  vertex -1.48389995098114 20 0.8567008972167969
  vertex -6 0 9.5
  endloop
 endfacet

 facet normal 0.9754413366317749 -0.2202595472335815 0
  outer loop
  vertex -1.48389995098114 20 0.8567008972167969
  vertex -1.48389995098114 20 1.48390007019043
  vertex -6 0 9.5
  endloop
 endfacet

 facet normal 0.9754413366317749 -0.2202595472335815 0
  outer loop
  vertex -1.48389995098114 20 1.48390007019043
  vertex -1.48389995098114 20 2.570100784301758
  vertex -6 0 9.5
  endloop
 endfacet

 facet normal 0.9754413366317749 -0.2202595472335815 0
  outer loop
  vertex -1.48389995098114 20 2.570100784301758
  vertex -1.48389995098114 20 4.750999450683594
  vertex -6 0 9.5
  endloop
 endfacet

 facet normal 0.9754237532615662 -0.220337450504303 0.0001804138155421242
  outer loop
  vertex -1.303699970245361 20.79779815673828 4.825599670410156
  vertex 1 31 9.5
  vertex -1.48389995098114 20 4.750999450683594
  endloop
 endfacet

 facet normal 0.9754396080970764 -0.220267578959465 1.588342820468824e-05
  outer loop
  vertex -0.08039999008178711 26.2151985168457 4.989400863647461
  vertex 1 31 9.5
  vertex -1.294100046157837 20.84040069580078 4.829599380493164
  endloop
 endfacet

 facet normal 0.9754607081413269 -0.2201735824346542 -8.88658978510648e-05
  outer loop
  vertex 0 26.5713996887207 5
  vertex 1 31 9.5
  vertex -0.08039999008178711 26.2151985168457 4.989400863647461
  endloop
 endfacet

 facet normal 0.975442111492157 -0.2202557921409607 -3.812069280684227e-06
  outer loop
  vertex 0.5362999439239502 28.94650077819824 4.929399490356445
  vertex 1 31 9.5
  vertex 0 26.5713996887207 5
  endloop
 endfacet

 facet normal 0.9754403829574585 -0.2202638983726501 0
  outer loop
  vertex 1 31 9.5
  vertex 0.5362999439239502 28.94650077819824 4.929399490356445
  vertex 1 31 4.86829948425293
  endloop
 endfacet

 facet normal 0 0 1
  outer loop
  vertex -3 31 9.5
  vertex -6 0 9.5
  vertex 1 31 9.5
  endloop
 endfacet

 facet normal 0 -1 0
  outer loop
  vertex -10 0 9.5
  vertex -6 0 -59.5
  vertex -6 0 9.5
  endloop
 endfacet

 facet normal 0.9754409790039062 -0.2202608585357666 -1.154980893147695e-07
  outer loop
  vertex -0.4647998809814453 24.51300048828125 -4.938800811767578
  vertex -6 0 -59.5
  vertex 1 31 -59.5
  endloop
 endfacet

 facet normal 0.9754409790039062 -0.2202609032392502 -1.193866552284817e-07
  outer loop
  vertex 0 26.5713996887207 -5
  vertex -0.4647998809814453 24.51300048828125 -4.938800811767578
  vertex 1 31 -59.5
  endloop
 endfacet

 facet normal 0.9754408597946167 -0.2202617228031158 0
  outer loop
  vertex 1 31 -4.86829948425293
  vertex 0.09019994735717773 26.97090148925781 -4.988100051879883
  vertex 1 31 -59.5
  endloop
 endfacet

 facet normal 0.975446343421936 -0.2202373743057251 1.88986439297878e-06
  outer loop
  vertex 0.09019994735717773 26.97090148925781 -4.988100051879883
  vertex 0 26.5713996887207 -5
  vertex 1 31 -59.5
  endloop
 endfacet

 facet normal 0 1 0
  outer loop
  vertex 0.7335000038146973 31 4.903400421142578
  vertex 1 31 9.5
  vertex 1 31 4.86829948425293
  endloop
 endfacet

 facet normal 0 1 0
  outer loop
  vertex 0.7335000038146973 31 4.903400421142578
  vertex 0 31 5
  vertex 1 31 9.5
  endloop
 endfacet

 facet normal 0 1 0
  outer loop
  vertex -2.5 31 4.330099105834961
  vertex -2.613899946212769 31 4.242700576782227
  vertex -3 31 9.5
  endloop
 endfacet

 facet normal 0 1 0
  outer loop
  vertex 1 31 9.5
  vertex 0 31 5
  vertex -0.1424000263214111 31 4.981300354003906
  endloop
 endfacet

 facet normal 0 1 0
  outer loop
  vertex 1 31 9.5
  vertex -0.1424000263214111 31 4.981300354003906
  vertex -3 31 9.5
  endloop
 endfacet

 facet normal 0 1 0
  outer loop
  vertex -0.1424000263214111 31 4.981300354003906
  vertex -1.294100046157837 31 4.829599380493164
  vertex -3 31 9.5
  endloop
 endfacet

 facet normal 0 1 0
  outer loop
  vertex -1.294100046157837 31 4.829599380493164
  vertex -1.426699995994568 31 4.774700164794922
  vertex -3 31 9.5
  endloop
 endfacet

 facet normal 0 1 0
  outer loop
  vertex -1.426699995994568 31 4.774700164794922
  vertex -2.5 31 4.330099105834961
  vertex -3 31 9.5
  endloop
 endfacet

 facet normal 0 1 0
  outer loop
  vertex -2.613899946212769 31 4.242700576782227
  vertex -3 31 3.946399688720703
  vertex -3 31 9.5
  endloop
 endfacet

 facet normal 0 0 1
  outer loop
  vertex -3 31 9.5
  vertex -10 0 9.5
  vertex -6 0 9.5
  endloop
 endfacet

 facet normal 0 -1 0
  outer loop
  vertex -10 0 9.5
  vertex -10 0 -59.5
  vertex -6 0 -59.5
  endloop
 endfacet

 facet normal 0 0 -1
  outer loop
  vertex 1 31 -59.5
  vertex -6 0 -59.5
  vertex -10 0 -59.5
  endloop
 endfacet

 facet normal 0 1 0
  outer loop
  vertex 1 31 -59.5
  vertex 0.160599946975708 31 -4.978799819946289
  vertex 1 31 -4.86829948425293
  endloop
 endfacet

 facet normal 0 1 0
  outer loop
  vertex 1 31 -59.5
  vertex -3 31 -59.5
  vertex 0.160599946975708 31 -4.978799819946289
  endloop
 endfacet

 facet normal -0.9754409790039062 0.220260888338089 0
  outer loop
  vertex -3 31 3.946399688720703
  vertex -3.535500049591064 28.62849998474121 3.535499572753906
  vertex -3 31 9.5
  endloop
 endfacet

 facet normal -0.9754647016525269 0.2201559543609619 4.385009742691182e-05
  outer loop
  vertex -3.535500049591064 28.62849998474121 3.535499572753906
  vertex -3.601699829101562 28.3351993560791 3.449199676513672
  vertex -3 31 9.5
  endloop
 endfacet

 facet normal -0.9754378199577332 0.2202752679586411 -1.137816980190109e-05
  outer loop
  vertex -3.601699829101562 28.3351993560791 3.449199676513672
  vertex -4.330100059509277 25.10960006713867 2.5
  vertex -3 31 9.5
  endloop
 endfacet

 facet normal -0.975350558757782 0.2206609696149826 -0.0003525052161421627
  outer loop
  vertex -4.330100059509277 25.10960006713867 2.5
  vertex -4.355100154876709 24.99900054931641 2.439699172973633
  vertex -3 31 9.5
  endloop
 endfacet

 facet normal -0.9754480719566345 0.2202293276786804 3.308993836981244e-05
  outer loop
  vertex -4.355100154876709 24.99900054931641 2.439699172973633
  vertex -4.82960033416748 22.89749908447266 1.294099807739258
  vertex -3 31 9.5
  endloop
 endfacet

 facet normal -0.9754409790039062 0.2202608585357666 3.7026123322903e-07
  outer loop
  vertex -4.82960033416748 22.89749908447266 1.294099807739258
  vertex -10 0 9.5
  vertex -3 31 9.5
  endloop
 endfacet

 facet normal -0.9754403829574585 0.2202639579772949 9.405061973666307e-06
  outer loop
  vertex -4.834500312805176 22.87580108642578 1.256900787353516
  vertex -10 0 9.5
  vertex -4.82960033416748 22.89749908447266 1.294099807739258
  endloop
 endfacet

 facet normal -0.9754407405853271 0.2202620357275009 3.796750206674915e-06
  outer loop
  vertex -5 22.14289855957031 0
  vertex -10 0 9.5
  vertex -4.834500312805176 22.87580108642578 1.256900787353516
  endloop
 endfacet

 facet normal -0.9755237102508545 0.2198920845985413 -0.0009021181613206863
  outer loop
  vertex -4.996299743652344 22.15919876098633 -0.02790069580078125
  vertex -10 0 9.5
  vertex -5 22.14289855957031 0
  endloop
 endfacet

 facet normal -0.9754396677017212 0.2202669680118561 1.379991135763703e-05
  outer loop
  vertex -4.82960033416748 22.89749908447266 -1.294099807739258
  vertex -10 0 9.5
  vertex -4.996299743652344 22.15919876098633 -0.02790069580078125
  endloop
 endfacet

 facet normal -0.9754410982131958 0.2202607095241547 -7.563425441503568e-08
  outer loop
  vertex -3 31 -59.5
  vertex -10 0 9.5
  vertex -4.82960033416748 22.89749908447266 -1.294099807739258
  endloop
 endfacet

 facet normal -0.9754089713096619 0.2204028218984604 2.071437302220147e-05
  outer loop
  vertex -3 31 -59.5
  vertex -4.82960033416748 22.89749908447266 -1.294099807739258
  vertex -4.814800262451172 22.9630012512207 -1.329799652099609
  endloop
 endfacet

 facet normal -0.97544264793396 0.220253512263298 -9.67933374340646e-07
  outer loop
  vertex -3 31 -59.5
  vertex -4.814800262451172 22.9630012512207 -1.329799652099609
  vertex -4.330100059509277 25.10960006713867 -2.5
  endloop
 endfacet

 facet normal -0.9754030704498291 0.2204288244247437 1.807406806619838e-05
  outer loop
  vertex -3 31 -59.5
  vertex -4.330100059509277 25.10960006713867 -2.5
  vertex -4.288000106811523 25.2958984375 -2.554800033569336
  endloop
 endfacet

 facet normal -0.9754424095153809 0.2202543616294861 -2.895866657581792e-07
  outer loop
  vertex -3 31 -59.5
  vertex -4.288000106811523 25.2958984375 -2.554800033569336
  vertex -3.535500049591064 28.62849998474121 -3.535499572753906
  endloop
 endfacet

 facet normal -0.9754623174667358 0.2201666235923767 -4.198090209683869e-06
  outer loop
  vertex -3 31 -59.5
  vertex -3.535500049591064 28.62849998474121 -3.535499572753906
  vertex -3.441900014877319 29.04319953918457 -3.607400894165039
  endloop
 endfacet

 facet normal -0.9754365682601929 0.2202807366847992 0
  outer loop
  vertex -3 31 -59.5
  vertex -3.441900014877319 29.04319953918457 -3.607400894165039
  vertex -3 31 -3.946399688720703
  endloop
 endfacet

 facet normal -0.9754409790039062 0.2202608585357666 0
  outer loop
  vertex -3 31 -59.5
  vertex -10 0 -59.5
  vertex -10 0 9.5
  endloop
 endfacet

 facet normal 0 0 -1
  outer loop
  vertex 1 31 -59.5
  vertex -10 0 -59.5
  vertex -3 31 -59.5
  endloop
 endfacet

 facet normal 0 1 0
  outer loop
  vertex -1.294100046157837 31 -4.829599380493164
  vertex -1.151700019836426 31 -4.848300933837891
  vertex -3 31 -59.5
  endloop
 endfacet

 facet normal 0 1 0
  outer loop
  vertex -3 31 -59.5
  vertex -3 31 -3.946399688720703
  vertex -2.5 31 -4.330099105834961
  endloop
 endfacet

 facet normal 0 1 0
  outer loop
  vertex -1.151700019836426 31 -4.848300933837891
  vertex 0 31 -5
  vertex -3 31 -59.5
  endloop
 endfacet

 facet normal 0 1 0
  outer loop
  vertex -2.367399930953979 31 -4.385000228881836
  vertex -3 31 -59.5
  vertex -2.5 31 -4.330099105834961
  endloop
 endfacet

 facet normal 0 1 0
  outer loop
  vertex -2.367399930953979 31 -4.385000228881836
  vertex -1.294100046157837 31 -4.829599380493164
  vertex -3 31 -59.5
  endloop
 endfacet

 facet normal 0 1 0
  outer loop
  vertex 0 31 -5
  vertex 0.1424000263214111 31 -4.981300354003906
  vertex -3 31 -59.5
  endloop
 endfacet

 facet normal 0 1 0
  outer loop
  vertex 0.1424000263214111 31 -4.981300354003906
  vertex 0.160599946975708 31 -4.978799819946289
  vertex -3 31 -59.5
  endloop
 endfacet

 facet normal 0.1305693387985229 0 0.9914392232894897
  outer loop
  vertex 0 120 5
  vertex 0 31 5
  vertex 0.7335000038146973 31 4.903400421142578
  endloop
 endfacet

 facet normal 0.130384236574173 -2.157647486455971e-06 0.9914635419845581
  outer loop
  vertex 1.294100046157837 20 4.829599380493164
  vertex 0 120 5
  vertex 1 31 4.86829948425293
  endloop
 endfacet

 facet normal 0.1305830627679825 1.149482073969921e-07 0.9914374947547913
  outer loop
  vertex 1 31 4.86829948425293
  vertex 0 120 5
  vertex 0.7335000038146973 31 4.903400421142578
  endloop
 endfacet

 facet normal 0.1305481195449829 0 0.9914419651031494
  outer loop
  vertex 1.294100046157837 20 4.829599380493164
  vertex 0 26.5713996887207 5
  vertex 0 20 5
  endloop
 endfacet

 facet normal 0.130531832575798 -3.263795406382997e-06 0.9914441108703613
  outer loop
  vertex 0.5362999439239502 28.94650077819824 4.929399490356445
  vertex 0 26.5713996887207 5
  vertex 1.294100046157837 20 4.829599380493164
  endloop
 endfacet

 facet normal 0.1306186467409134 4.218738922645571e-06 0.9914326667785645
  outer loop
  vertex 0.5362999439239502 28.94650077819824 4.929399490356445
  vertex 1.294100046157837 20 4.829599380493164
  vertex 1 31 4.86829948425293
  endloop
 endfacet

 facet normal 0.1305481195449829 0 0.9914419651031494
  outer loop
  vertex 0 120 5
  vertex 1.294100046157837 20 4.829599380493164
  vertex 1.294100046157837 120 4.829599380493164
  endloop
 endfacet

 facet normal -0.1301999241113663 0 0.9914878606796265
  outer loop
  vertex 0 120 5
  vertex -0.1424000263214111 31 4.981300354003906
  vertex 0 31 5
  endloop
 endfacet

 facet normal -0.1305481195449829 5.667596951752785e-07 0.9914419651031494
  outer loop
  vertex 0 120 5
  vertex -1.294100046157837 120 4.829599380493164
  vertex -0.1424000263214111 31 4.981300354003906
  endloop
 endfacet

 facet normal -0.1306992471218109 0 0.9914221167564392
  outer loop
  vertex -0.08039999008178711 26.2151985168457 4.989400863647461
  vertex 0 20 5
  vertex 0 26.5713996887207 5
  endloop
 endfacet

 facet normal 0 -1 0
  outer loop
  vertex 1.294100046157837 20 4.829599380493164
  vertex 0 20 5
  vertex 0 20 0
  endloop
 endfacet

 facet normal 0 1 0
  outer loop
  vertex 0 120 5
  vertex 1.294100046157837 120 4.829599380493164
  vertex 0 120 0
  endloop
 endfacet

 facet normal 0.3826835751533508 0 0.9238795042037964
  outer loop
  vertex 1.294100046157837 120 4.829599380493164
  vertex 1.294100046157837 20 4.829599380493164
  vertex 2.5 20 4.330099105834961
  endloop
 endfacet

 facet normal 0 1 0
  outer loop
  vertex -1.294100046157837 120 4.829599380493164
  vertex 0 120 5
  vertex 0 120 0
  endloop
 endfacet

 facet normal -0.1305911839008331 0 0.9914363622665405
  outer loop
  vertex -1.294100046157837 120 4.829599380493164
  vertex -1.294100046157837 31 4.829599380493164
  vertex -0.1424000263214111 31 4.981300354003906
  endloop
 endfacet

 facet normal -0.1305481195449829 0 0.9914419651031494
  outer loop
  vertex -1.294100046157837 20.84040069580078 4.829599380493164
  vertex -1.294100046157837 20 4.829599380493164
  vertex 0 20 5
  endloop
 endfacet

 facet normal -0.1305468380451202 2.005718215514207e-06 0.9914421439170837
  outer loop
  vertex -0.08039999008178711 26.2151985168457 4.989400863647461
  vertex -1.294100046157837 20.84040069580078 4.829599380493164
  vertex 0 20 5
  endloop
 endfacet

 facet normal 0 -1 0
  outer loop
  vertex 2.5 20 4.330099105834961
  vertex 1.294100046157837 20 4.829599380493164
  vertex 0 20 0
  endloop
 endfacet

 facet normal 0 -1 0
  outer loop
  vertex 0 20 5
  vertex -1.294100046157837 20 4.829599380493164
  vertex 0 20 0
  endloop
 endfacet

 facet normal 0 1 0
  outer loop
  vertex 1.294100046157837 120 4.829599380493164
  vertex 2.5 120 4.330099105834961
  vertex 0 120 0
  endloop
 endfacet

 facet normal 0.3826835751533508 0 0.9238795042037964
  outer loop
  vertex 1.294100046157837 120 4.829599380493164
  vertex 2.5 20 4.330099105834961
  vertex 2.5 120 4.330099105834961
  endloop
 endfacet

 facet normal 0 1 0
  outer loop
  vertex -2.5 120 4.330099105834961
  vertex -1.294100046157837 120 4.829599380493164
  vertex 0 120 0
  endloop
 endfacet

 facet normal -0.3825319111347198 0 0.9239422678947449
  outer loop
  vertex -1.294100046157837 120 4.829599380493164
  vertex -1.426699995994568 31 4.774700164794922
  vertex -1.294100046157837 31 4.829599380493164
  endloop
 endfacet

 facet normal -0.3826835751533508 2.647004748723703e-07 0.9238795042037964
  outer loop
  vertex -1.294100046157837 120 4.829599380493164
  vertex -2.5 120 4.330099105834961
  vertex -1.426699995994568 31 4.774700164794922
  endloop
 endfacet

 facet normal -0.3845942318439484 0 0.9230856895446777
  outer loop
  vertex -1.303699970245361 20.79779815673828 4.825599670410156
  vertex -1.294100046157837 20 4.829599380493164
  vertex -1.294100046157837 20.84040069580078 4.829599380493164
  endloop
 endfacet

 facet normal 0 -1 0
  outer loop
  vertex 3.535500049591064 20 3.535499572753906
  vertex 2.5 20 4.330099105834961
  vertex 0 20 0
  endloop
 endfacet

 facet normal 0 -1 0
  outer loop
  vertex -1.48389995098114 20 2.570100784301758
  vertex 0 20 0
  vertex -1.294100046157837 20 4.829599380493164
  endloop
 endfacet

 facet normal 0 -1 0
  outer loop
  vertex -1.48389995098114 20 4.750999450683594
  vertex -1.48389995098114 20 2.570100784301758
  vertex -1.294100046157837 20 4.829599380493164
  endloop
 endfacet

 facet normal 0 1 0
  outer loop
  vertex 2.5 120 4.330099105834961
  vertex 3.535500049591064 120 3.535499572753906
  vertex 0 120 0
  endloop
 endfacet

 facet normal 0.6087770462036133 0 0.793341338634491
  outer loop
  vertex 2.5 120 4.330099105834961
  vertex 2.5 20 4.330099105834961
  vertex 3.535500049591064 20 3.535499572753906
  endloop
 endfacet

 facet normal 0 1 0
  outer loop
  vertex -3.535500049591064 120 3.535499572753906
  vertex -2.5 120 4.330099105834961
  vertex 0 120 0
  endloop
 endfacet

 facet normal -0.3827022612094879 0 0.9238716959953308
  outer loop
  vertex -2.5 120 4.330099105834961
  vertex -2.5 31 4.330099105834961
  vertex -1.426699995994568 31 4.774700164794922
  endloop
 endfacet

 facet normal -0.3826096653938293 2.801367918436881e-05 0.9239102005958557
  outer loop
  vertex -1.48389995098114 20 4.750999450683594
  vertex -1.294100046157837 20 4.829599380493164
  vertex -1.303699970245361 20.79779815673828 4.825599670410156
  endloop
 endfacet

 facet normal 0 -1 0
  outer loop
  vertex 4.330100059509277 20 2.5
  vertex 3.535500049591064 20 3.535499572753906
  vertex 0 20 0
  endloop
 endfacet

 facet normal 0 -1 0
  outer loop
  vertex -1.48389995098114 20 1.48390007019043
  vertex 0 20 0
  vertex -1.48389995098114 20 2.570100784301758
  endloop
 endfacet

 facet normal 0.6087770462036133 0 0.793341338634491
  outer loop
  vertex 2.5 120 4.330099105834961
  vertex 3.535500049591064 20 3.535499572753906
  vertex 3.535500049591064 120 3.535499572753906
  endloop
 endfacet

 facet normal 0 1 0
  outer loop
  vertex 3.535500049591064 120 3.535499572753906
  vertex 4.330100059509277 120 2.5
  vertex 0 120 0
  endloop
 endfacet

 facet normal 0 1 0
  outer loop
  vertex -4.330100059509277 120 2.5
  vertex -3.535500049591064 120 3.535499572753906
  vertex 0 120 0
  endloop
 endfacet

 facet normal -0.6087770462036133 3.188836217304925e-08 0.793341338634491
  outer loop
  vertex -2.613899946212769 31 4.242700576782227
  vertex -2.5 120 4.330099105834961
  vertex -3.535500049591064 120 3.535499572753906
  endloop
 endfacet

 facet normal -0.6087614297866821 0 0.7933534383773804
  outer loop
  vertex -2.613899946212769 31 4.242700576782227
  vertex -2.5 31 4.330099105834961
  vertex -2.5 120 4.330099105834961
  endloop
 endfacet

 facet normal 0 -1 0
  outer loop
  vertex 4.829599857330322 20 1.294099807739258
  vertex 4.330100059509277 20 2.5
  vertex 0 20 0
  endloop
 endfacet

 facet normal 0.7933411002159119 0 0.6087775230407715
  outer loop
  vertex 3.535500049591064 120 3.535499572753906
  vertex 3.535500049591064 20 3.535499572753906
  vertex 4.330100059509277 20 2.5
  endloop
 endfacet

 facet normal 0 -1 0
  outer loop
  vertex -1.48389995098114 20 0.8567008972167969
  vertex 0 20 0
  vertex -1.48389995098114 20 1.48390007019043
  endloop
 endfacet

 facet normal 0.7933411002159119 0 0.6087775230407715
  outer loop
  vertex 3.535500049591064 120 3.535499572753906
  vertex 4.330100059509277 20 2.5
  vertex 4.330100059509277 120 2.5
  endloop
 endfacet

 facet normal 0 1 0
  outer loop
  vertex 4.330100059509277 120 2.5
  vertex 4.829599857330322 120 1.294099807739258
  vertex 0 120 0
  endloop
 endfacet

 facet normal 0 1 0
  outer loop
  vertex -4.82960033416748 120 1.294099807739258
  vertex -4.330100059509277 120 2.5
  vertex 0 120 0
  endloop
 endfacet

 facet normal -0.7933411002159119 0 0.6087775230407715
  outer loop
  vertex -3.535500049591064 28.62849998474121 3.535499572753906
  vertex -3.535500049591064 120 3.535499572753906
  vertex -4.330100059509277 120 2.5
  endloop
 endfacet

 facet normal -0.7934398651123047 -2.318734004802536e-06 0.6086486577987671
  outer loop
  vertex -3.601699829101562 28.3351993560791 3.449199676513672
  vertex -3.535500049591064 28.62849998474121 3.535499572753906
  vertex -4.330100059509277 120 2.5
  endloop
 endfacet

 facet normal -0.6087581515312195 0 0.7933558821678162
  outer loop
  vertex -3.535500049591064 120 3.535499572753906
  vertex -3.535500049591064 28.62849998474121 3.535499572753906
  vertex -3 31 3.946399688720703
  endloop
 endfacet

 facet normal -0.6088079214096069 -4.756919906867552e-07 0.7933176755905151
  outer loop
  vertex -2.613899946212769 31 4.242700576782227
  vertex -3.535500049591064 120 3.535499572753906
  vertex -3 31 3.946399688720703
  endloop
 endfacet

 facet normal 0 -1 0
  outer loop
  vertex 5 20 0
  vertex 4.829599857330322 20 1.294099807739258
  vertex 0 20 0
  endloop
 endfacet

 facet normal 0.9238796234130859 0 0.382683128118515
  outer loop
  vertex 4.330100059509277 120 2.5
  vertex 4.330100059509277 20 2.5
  vertex 4.829599857330322 20 1.294099807739258
  endloop
 endfacet

 facet normal 0 -1 0
  outer loop
  vertex -1.48389995098114 20 0.3976001739501953
  vertex 0 20 0
  vertex -1.48389995098114 20 0.8567008972167969
  endloop
 endfacet

 facet normal 0.9238796234130859 0 0.382683128118515
  outer loop
  vertex 4.330100059509277 120 2.5
  vertex 4.829599857330322 20 1.294099807739258
  vertex 4.829599857330322 120 1.294099807739258
  endloop
 endfacet

 facet normal 0 1 0
  outer loop
  vertex 4.829599857330322 120 1.294099807739258
  vertex 5 120 0
  vertex 0 120 0
  endloop
 endfacet

 facet normal 0 1 0
  outer loop
  vertex -5 120 0
  vertex -4.82960033416748 120 1.294099807739258
  vertex 0 120 0
  endloop
 endfacet

 facet normal -0.9238796830177307 0 0.3826833665370941
  outer loop
  vertex -4.330100059509277 25.10960006713867 2.5
  vertex -4.330100059509277 120 2.5
  vertex -4.82960033416748 120 1.294099807739258
  endloop
 endfacet

 facet normal -0.9237601161003113 4.29287092629238e-06 0.3829716145992279
  outer loop
  vertex -4.355100154876709 24.99900054931641 2.439699172973633
  vertex -4.330100059509277 25.10960006713867 2.5
  vertex -4.82960033416748 120 1.294099807739258
  endloop
 endfacet

 facet normal -0.7933317422866821 0 0.6087896227836609
  outer loop
  vertex -3.601699829101562 28.3351993560791 3.449199676513672
  vertex -4.330100059509277 120 2.5
  vertex -4.330100059509277 25.10960006713867 2.5
  endloop
 endfacet

 facet normal 0 -1 0
  outer loop
  vertex 4.829599857330322 20 -1.294099807739258
  vertex 5 20 0
  vertex 0 20 0
  endloop
 endfacet

 facet normal 0.991442084312439 0 0.1305477917194366
  outer loop
  vertex 4.829599857330322 120 1.294099807739258
  vertex 4.829599857330322 20 1.294099807739258
  vertex 5 20 0
  endloop
 endfacet

 facet normal 0 -1 0
  outer loop
  vertex -1.48389995098114 20 0
  vertex 0 20 0
  vertex -1.48389995098114 20 0.3976001739501953
  endloop
 endfacet

 facet normal 0.991442084312439 0 0.1305477917194366
  outer loop
  vertex 4.829599857330322 120 1.294099807739258
  vertex 5 20 0
  vertex 5 120 0
  endloop
 endfacet

 facet normal 0 1 0
  outer loop
  vertex 5 120 0
  vertex 4.829599857330322 120 -1.294099807739258
  vertex 0 120 0
  endloop
 endfacet

 facet normal 0 1 0
  outer loop
  vertex -4.82960033416748 120 -1.294099807739258
  vertex -5 120 0
  vertex 0 120 0
  endloop
 endfacet

 facet normal -0.991442084312439 0 0.1305476129055023
  outer loop
  vertex -4.82960033416748 22.89749908447266 1.294099807739258
  vertex -4.82960033416748 120 1.294099807739258
  vertex -5 120 0
  endloop
 endfacet

 facet normal -0.9914358854293823 6.405583690138883e-07 0.1305948495864868
  outer loop
  vertex -4.834500312805176 22.87580108642578 1.256900787353516
  vertex -4.82960033416748 22.89749908447266 1.294099807739258
  vertex -5 120 0
  endloop
 endfacet

 facet normal -0.9238860011100769 0 0.3826677799224854
  outer loop
  vertex -4.355100154876709 24.99900054931641 2.439699172973633
  vertex -4.82960033416748 120 1.294099807739258
  vertex -4.82960033416748 22.89749908447266 1.294099807739258
  endloop
 endfacet

 facet normal 0 -1 0
  outer loop
  vertex 4.330100059509277 20 -2.5
  vertex 4.829599857330322 20 -1.294099807739258
  vertex 0 20 0
  endloop
 endfacet

 facet normal 0.991442084312439 0 -0.1305477917194366
  outer loop
  vertex 5 120 0
  vertex 5 20 0
  vertex 4.829599857330322 20 -1.294099807739258
  endloop
 endfacet

 facet normal 0 -1 0
  outer loop
  vertex -1.48389995098114 20 -0.3976001739501953
  vertex 0 20 0
  vertex -1.48389995098114 20 0
  endloop
 endfacet

 facet normal 0.991442084312439 0 -0.1305477917194366
  outer loop
  vertex 5 120 0
  vertex 4.829599857330322 20 -1.294099807739258
  vertex 4.829599857330322 120 -1.294099807739258
  endloop
 endfacet

 facet normal 0 1 0
  outer loop
  vertex 4.829599857330322 120 -1.294099807739258
  vertex 4.330100059509277 120 -2.5
  vertex 0 120 0
  endloop
 endfacet

 facet normal 0 1 0
  outer loop
  vertex -4.330100059509277 120 -2.5
  vertex -4.82960033416748 120 -1.294099807739258
  vertex 0 120 0
  endloop
 endfacet

 facet normal -0.991442084312439 -2.655778530424868e-07 -0.1305476129055023
  outer loop
  vertex -4.996299743652344 22.15919876098633 -0.02790069580078125
  vertex -5 120 0
  vertex -4.82960033416748 120 -1.294099807739258
  endloop
 endfacet

 facet normal -0.9913210868835449 0 -0.1314629018306732
  outer loop
  vertex -4.996299743652344 22.15919876098633 -0.02790069580078125
  vertex -5 22.14289855957031 0
  vertex -5 120 0
  endloop
 endfacet

 facet normal -0.9914423227310181 0 0.1305462121963501
  outer loop
  vertex -4.834500312805176 22.87580108642578 1.256900787353516
  vertex -5 120 0
  vertex -5 22.14289855957031 0
  endloop
 endfacet

 facet normal 0 -1 0
  outer loop
  vertex 3.535500049591064 20 -3.535499572753906
  vertex 4.330100059509277 20 -2.5
  vertex 0 20 0
  endloop
 endfacet

 facet normal 0.9238796234130859 0 -0.382683128118515
  outer loop
  vertex 4.829599857330322 120 -1.294099807739258
  vertex 4.829599857330322 20 -1.294099807739258
  vertex 4.330100059509277 20 -2.5
  endloop
 endfacet

 facet normal 0 -1 0
  outer loop
  vertex -1.48389995098114 20 -0.8567008972167969
  vertex 0 20 0
  vertex -1.48389995098114 20 -0.3976001739501953
  endloop
 endfacet

 facet normal 0.9238796234130859 0 -0.382683128118515
  outer loop
  vertex 4.829599857330322 120 -1.294099807739258
  vertex 4.330100059509277 20 -2.5
  vertex 4.330100059509277 120 -2.5
  endloop
 endfacet

 facet normal 0 1 0
  outer loop
  vertex 4.330100059509277 120 -2.5
  vertex 3.535500049591064 120 -3.535499572753906
  vertex 0 120 0
  endloop
 endfacet

 facet normal 0 1 0
  outer loop
  vertex -3.535500049591064 120 -3.535499572753906
  vertex -4.330100059509277 120 -2.5
  vertex 0 120 0
  endloop
 endfacet

 facet normal -0.9238796830177307 -1.210800206763452e-07 -0.3826833665370941
  outer loop
  vertex -4.814800262451172 22.9630012512207 -1.329799652099609
  vertex -4.82960033416748 120 -1.294099807739258
  vertex -4.330100059509277 120 -2.5
  endloop
 endfacet

 facet normal -0.9237632155418396 0 -0.3829641938209534
  outer loop
  vertex -4.814800262451172 22.9630012512207 -1.329799652099609
  vertex -4.82960033416748 22.89749908447266 -1.294099807739258
  vertex -4.82960033416748 120 -1.294099807739258
  endloop
 endfacet

 facet normal -0.9914447069168091 0 -0.1305274218320847
  outer loop
  vertex -4.996299743652344 22.15919876098633 -0.02790069580078125
  vertex -4.82960033416748 120 -1.294099807739258
  vertex -4.82960033416748 22.89749908447266 -1.294099807739258
  endloop
 endfacet

 facet normal 0 -1 0
  outer loop
  vertex 2.5 20 -4.330099105834961
  vertex 3.535500049591064 20 -3.535499572753906
  vertex 0 20 0
  endloop
 endfacet

 facet normal 0.7933411002159119 0 -0.6087775230407715
  outer loop
  vertex 4.330100059509277 120 -2.5
  vertex 4.330100059509277 20 -2.5
  vertex 3.535500049591064 20 -3.535499572753906
  endloop
 endfacet

 facet normal 0 -1 0
  outer loop
  vertex -1.48389995098114 20 -1.48390007019043
  vertex 0 20 0
  vertex -1.48389995098114 20 -0.8567008972167969
  endloop
 endfacet

 facet normal 0.7933411002159119 0 -0.6087775230407715
  outer loop
  vertex 4.330100059509277 120 -2.5
  vertex 3.535500049591064 20 -3.535499572753906
  vertex 3.535500049591064 120 -3.535499572753906
  endloop
 endfacet

 facet normal 0 1 0
  outer loop
  vertex 3.535500049591064 120 -3.535499572753906
  vertex 2.5 120 -4.330099105834961
  vertex 0 120 0
  endloop
 endfacet

 facet normal 0 1 0
  outer loop
  vertex -2.5 120 -4.330099105834961
  vertex -3.535500049591064 120 -3.535499572753906
  vertex 0 120 0
  endloop
 endfacet

 facet normal -0.7933411002159119 -4.085321450020274e-07 -0.6087775230407715
  outer loop
  vertex -4.288000106811523 25.2958984375 -2.554800033569336
  vertex -4.330100059509277 120 -2.5
  vertex -3.535500049591064 120 -3.535499572753906
  endloop
 endfacet

 facet normal -0.7930001020431519 0 -0.6092215776443481
  outer loop
  vertex -4.288000106811523 25.2958984375 -2.554800033569336
  vertex -4.330100059509277 25.10960006713867 -2.5
  vertex -4.330100059509277 120 -2.5
  endloop
 endfacet

 facet normal -0.9238831400871277 0 -0.3826747834682465
  outer loop
  vertex -4.814800262451172 22.9630012512207 -1.329799652099609
  vertex -4.330100059509277 120 -2.5
  vertex -4.330100059509277 25.10960006713867 -2.5
  endloop
 endfacet

 facet normal 0 -1 0
  outer loop
  vertex 1.294100046157837 20 -4.829599380493164
  vertex 2.5 20 -4.330099105834961
  vertex 0 20 0
  endloop
 endfacet

 facet normal 0.6087770462036133 0 -0.793341338634491
  outer loop
  vertex 3.535500049591064 120 -3.535499572753906
  vertex 3.535500049591064 20 -3.535499572753906
  vertex 2.5 20 -4.330099105834961
  endloop
 endfacet

 facet normal 0 -1 0
  outer loop
  vertex -1.48389995098114 20 -2.570100784301758
  vertex 0 20 0
  vertex -1.48389995098114 20 -1.48390007019043
  endloop
 endfacet

 facet normal 0.6087770462036133 0 -0.793341338634491
  outer loop
  vertex 3.535500049591064 120 -3.535499572753906
  vertex 2.5 20 -4.330099105834961
  vertex 2.5 120 -4.330099105834961
  endloop
 endfacet

 facet normal 0 1 0
  outer loop
  vertex 2.5 120 -4.330099105834961
  vertex 1.294100046157837 120 -4.829599380493164
  vertex 0 120 0
  endloop
 endfacet

 facet normal 0 1 0
  outer loop
  vertex -1.294100046157837 120 -4.829599380493164
  vertex -2.5 120 -4.330099105834961
  vertex 0 120 0
  endloop
 endfacet

 facet normal -0.6087770462036133 6.677709620817041e-07 -0.793341338634491
  outer loop
  vertex -3.441900014877319 29.04319953918457 -3.607400894165039
  vertex -3.535500049591064 120 -3.535499572753906
  vertex -2.5 120 -4.330099105834961
  endloop
 endfacet

 facet normal -0.6091852784156799 0 -0.7930279970169067
  outer loop
  vertex -3.441900014877319 29.04319953918457 -3.607400894165039
  vertex -3.535500049591064 28.62849998474121 -3.535499572753906
  vertex -3.535500049591064 120 -3.535499572753906
  endloop
 endfacet

 facet normal -0.7933601140975952 0 -0.6087526082992554
  outer loop
  vertex -4.288000106811523 25.2958984375 -2.554800033569336
  vertex -3.535500049591064 120 -3.535499572753906
  vertex -3.535500049591064 28.62849998474121 -3.535499572753906
  endloop
 endfacet

 facet normal 0 -1 0
  outer loop
  vertex 0 20 -5
  vertex 1.294100046157837 20 -4.829599380493164
  vertex 0 20 0
  endloop
 endfacet

 facet normal 0.3826835751533508 0 -0.9238795042037964
  outer loop
  vertex 2.5 120 -4.330099105834961
  vertex 2.5 20 -4.330099105834961
  vertex 1.294100046157837 20 -4.829599380493164
  endloop
 endfacet

 facet normal 0 -1 0
  outer loop
  vertex -1.48389995098114 20 -2.570100784301758
  vertex -1.294100046157837 20 -4.829599380493164
  vertex 0 20 0
  endloop
 endfacet

 facet normal 0 -1 0
  outer loop
  vertex -1.48389995098114 20 -2.570100784301758
  vertex -1.48389995098114 20 -4.750999450683594
  vertex -1.294100046157837 20 -4.829599380493164
  endloop
 endfacet

 facet normal 0.3826835751533508 0 -0.9238795042037964
  outer loop
  vertex 2.5 120 -4.330099105834961
  vertex 1.294100046157837 20 -4.829599380493164
  vertex 1.294100046157837 120 -4.829599380493164
  endloop
 endfacet

 facet normal 0 1 0
  outer loop
  vertex 1.294100046157837 120 -4.829599380493164
  vertex 0 120 -5
  vertex 0 120 0
  endloop
 endfacet

 facet normal 0 1 0
  outer loop
  vertex 0 120 -5
  vertex -1.294100046157837 120 -4.829599380493164
  vertex 0 120 0
  endloop
 endfacet

 facet normal -0.3826835751533508 -2.450931333441986e-07 -0.9238795042037964
  outer loop
  vertex -2.367399930953979 31 -4.385000228881836
  vertex -2.5 120 -4.330099105834961
  vertex -1.294100046157837 120 -4.829599380493164
  endloop
 endfacet

 facet normal -0.38254314661026 0 -0.9239376783370972
  outer loop
  vertex -2.367399930953979 31 -4.385000228881836
  vertex -2.5 31 -4.330099105834961
  vertex -2.5 120 -4.330099105834961
  endloop
 endfacet

 facet normal -0.6087973117828369 0 -0.7933258414268494
  outer loop
  vertex -2.5 120 -4.330099105834961
  vertex -2.5 31 -4.330099105834961
  vertex -3 31 -3.946399688720703
  endloop
 endfacet

 facet normal -0.6086642742156982 -1.187137854685716e-06 -0.7934278845787048
  outer loop
  vertex -3.441900014877319 29.04319953918457 -3.607400894165039
  vertex -2.5 120 -4.330099105834961
  vertex -3 31 -3.946399688720703
  endloop
 endfacet

 facet normal 0 -1 0
  outer loop
  vertex -1.294100046157837 20 -4.829599380493164
  vertex 0 20 -5
  vertex 0 20 0
  endloop
 endfacet

 facet normal 0.1305481195449829 3.252751866966719e-06 -0.9914419651031494
  outer loop
  vertex 0.09019994735717773 26.97090148925781 -4.988100051879883
  vertex 1.294100046157837 20 -4.829599380493164
  vertex 0 20 -5
  endloop
 endfacet

 facet normal 0.1305417120456696 2.125543232978089e-06 -0.991442859172821
  outer loop
  vertex 1 31 -4.86829948425293
  vertex 1.294100046157837 20 -4.829599380493164
  vertex 0.09019994735717773 26.97090148925781 -4.988100051879883
  endloop
 endfacet

 facet normal 0.1361138969659805 -7.273316441569477e-05 -0.990693211555481
  outer loop
  vertex 0.1424000263214111 31 -4.981300354003906
  vertex 1.294100046157837 120 -4.829599380493164
  vertex 0.160599946975708 31 -4.978799819946289
  endloop
 endfacet

 facet normal 0.130463570356369 0 -0.9914531111717224
  outer loop
  vertex 1.294100046157837 120 -4.829599380493164
  vertex 1.294100046157837 20 -4.829599380493164
  vertex 1 31 -4.86829948425293
  endloop
 endfacet

 facet normal 0.1305160224437714 -1.76303657895005e-07 -0.991446316242218
  outer loop
  vertex 1.294100046157837 120 -4.829599380493164
  vertex 1 31 -4.86829948425293
  vertex 0.160599946975708 31 -4.978799819946289
  endloop
 endfacet

 facet normal -0.3826096653938293 0 -0.9239102005958557
  outer loop
  vertex -1.294100046157837 20.84040069580078 -4.829599380493164
  vertex -1.294100046157837 20 -4.829599380493164
  vertex -1.48389995098114 20 -4.750999450683594
  endloop
 endfacet

 facet normal 0.1301999241113663 0 -0.9914878606796265
  outer loop
  vertex 0 120 -5
  vertex 0.1424000263214111 31 -4.981300354003906
  vertex 0 31 -5
  endloop
 endfacet

 facet normal 0.1305481195449829 5.667596951752785e-07 -0.9914419651031494
  outer loop
  vertex 0 120 -5
  vertex 1.294100046157837 120 -4.829599380493164
  vertex 0.1424000263214111 31 -4.981300354003906
  endloop
 endfacet

 facet normal -0.1302129626274109 0 -0.9914860725402832
  outer loop
  vertex -1.294100046157837 120 -4.829599380493164
  vertex -1.151700019836426 31 -4.848300933837891
  vertex -1.294100046157837 31 -4.829599380493164
  endloop
 endfacet

 facet normal -0.1305481195449829 -5.455123073261348e-07 -0.9914419651031494
  outer loop
  vertex -1.294100046157837 120 -4.829599380493164
  vertex 0 120 -5
  vertex -1.151700019836426 31 -4.848300933837891
  endloop
 endfacet

 facet normal -0.3827008903026581 0 -0.9238723516464233
  outer loop
  vertex -1.294100046157837 120 -4.829599380493164
  vertex -1.294100046157837 31 -4.829599380493164
  vertex -2.367399930953979 31 -4.385000228881836
  endloop
 endfacet

 facet normal -0.1305481195449829 1.465669993194751e-05 -0.9914419651031494
  outer loop
  vertex -1.282600045204163 20.89149856567383 -4.831100463867188
  vertex 0 20 -5
  vertex -1.294100046157837 20 -4.829599380493164
  endloop
 endfacet

 facet normal -0.1305411159992218 0 -0.991442859172821
  outer loop
  vertex -0.4647998809814453 24.51300048828125 -4.938800811767578
  vertex 0 26.5713996887207 -5
  vertex 0 20 -5
  endloop
 endfacet

 facet normal -0.1305594593286514 -1.919175019793329e-06 -0.9914405941963196
  outer loop
  vertex -1.282600045204163 20.89149856567383 -4.831100463867188
  vertex -0.4647998809814453 24.51300048828125 -4.938800811767578
  vertex 0 20 -5
  endloop
 endfacet

 facet normal 0.1307951956987381 0 -0.9914094209671021
  outer loop
  vertex 0.09019994735717773 26.97090148925781 -4.988100051879883
  vertex 0 20 -5
  vertex 0 26.5713996887207 -5
  endloop
 endfacet

 facet normal -0.1294310241937637 0 -0.9915884733200073
  outer loop
  vertex -1.282600045204163 20.89149856567383 -4.831100463867188
  vertex -1.294100046157837 20 -4.829599380493164
  vertex -1.294100046157837 20.84040069580078 -4.829599380493164
  endloop
 endfacet

 facet normal -0.130589559674263 0 -0.9914364814758301
  outer loop
  vertex 0 120 -5
  vertex 0 31 -5
  vertex -1.151700019836426 31 -4.848300933837891
  endloop
 endfacet

endsolidAssimpScene
