solid AssimpScene
 facet normal 0.8279184699058533 -0.560848593711853 0
  outer loop
  vertex 0.5483999252319336 20 -4.927799224853516
  vertex -13 0 9.5
  vertex -13 0 -59.5
  endloop
 endfacet

 facet normal 0.8279184699058533 -0.560848593711853 0
  outer loop
  vertex 0.5483999252319336 20 -2.046600341796875
  vertex -13 0 9.5
  vertex 0.5483999252319336 20 -4.927799224853516
  endloop
 endfacet

 facet normal 0.8280388712882996 -0.5606707334518433 -0.0001189596296171658
  outer loop
  vertex 4.917099952697754 26.44910049438477 -0.6294994354248047
  vertex 8 31 9.5
  vertex 5 26.5713996887207 0
  endloop
 endfacet

 facet normal 0.8290966749191284 -0.5591042041778564 -0.001141436630859971
  outer loop
  vertex 4.396900177001953 25.68119812011719 -2.338699340820312
  vertex 4.358200073242188 25.62400054931641 -2.432199478149414
  vertex -13 0 -59.5
  endloop
 endfacet

 facet normal 0.8279330134391785 -0.5608270168304443 -7.182860281318426e-05
  outer loop
  vertex 1.280099868774414 21.0802001953125 4.831399917602539
  vertex 8 31 9.5
  vertex 0.5483999252319336 20 4.927799224853516
  endloop
 endfacet

 facet normal 0.828369140625 -0.5601824522018433 -0.0004360107122920454
  outer loop
  vertex 4.358200073242188 25.62400054931641 -2.432199478149414
  vertex 4.330100059509277 25.58250045776367 -2.5
  vertex -13 0 -59.5
  endloop
 endfacet

 facet normal 0.8279287219047546 -0.5608333945274353 -9.954952474799938e-06
  outer loop
  vertex 4.330100059509277 25.58250045776367 -2.5
  vertex 3.571000099182129 24.46189880371094 -3.489299774169922
  vertex -13 0 -59.5
  endloop
 endfacet

 facet normal 0.8278636336326599 -0.5609294176101685 5.12503320351243e-05
  outer loop
  vertex 3.571000099182129 24.46189880371094 -3.489299774169922
  vertex 3.535499572753906 24.40950012207031 -3.535499572753906
  vertex -13 0 -59.5
  endloop
 endfacet

 facet normal 0.827903687953949 -0.560870349407196 1.364469608233776e-05
  outer loop
  vertex 3.535499572753906 24.40950012207031 -3.535499572753906
  vertex 2.530300140380859 22.92570114135742 -4.306900024414062
  vertex -13 0 -59.5
  endloop
 endfacet

 facet normal 0.8277095556259155 -0.5611568689346313 0.0001872752909548581
  outer loop
  vertex 2.530300140380859 22.92570114135742 -4.306900024414062
  vertex 2.5 22.88100051879883 -4.330099105834961
  vertex -13 0 -59.5
  endloop
 endfacet

 facet normal 0.8279170989990234 -0.5608505010604858 1.898528580568382e-06
  outer loop
  vertex 2.5 22.88100051879883 -4.330099105834961
  vertex 1.307600021362305 21.12080001831055 -4.823999404907227
  vertex -13 0 -59.5
  endloop
 endfacet

 facet normal 0.8289631605148315 -0.5593026876449585 -0.0008697357843630016
  outer loop
  vertex 1.307600021362305 21.12080001831055 -4.823999404907227
  vertex 1.294099807739258 21.10079956054688 -4.829599380493164
  vertex -13 0 -59.5
  endloop
 endfacet

 facet normal 0.8279198408126831 -0.5608465075492859 -1.069056338565133e-06
  outer loop
  vertex 1.294099807739258 21.10079956054688 -4.829599380493164
  vertex 0.5483999252319336 20 -4.927799224853516
  vertex -13 0 -59.5
  endloop
 endfacet

 facet normal 0.8279184699058533 -0.560848593711853 0
  outer loop
  vertex 0.5483999252319336 20 -0.9498004913330078
  vertex -13 0 9.5
  vertex 0.5483999252319336 20 -2.046600341796875
  endloop
 endfacet

 facet normal 0.8279184699058533 -0.560848593711853 0
  outer loop
  vertex 0.5483999252319336 20 -0.54840087890625
  vertex -13 0 9.5
  vertex 0.5483999252319336 20 -0.9498004913330078
  endloop
 endfacet

 facet normal 0.8279184699058533 -0.560848593711853 0
  outer loop
  vertex 0.5483999252319336 20 -0.3166007995605469
  vertex -13 0 9.5
  vertex 0.5483999252319336 20 -0.54840087890625
  endloop
 endfacet

 facet normal 0.8279184699058533 -0.560848593711853 0
  outer loop
  vertex 0.5483999252319336 20 -0.1469001770019531
  vertex -13 0 9.5
  vertex 0.5483999252319336 20 -0.3166007995605469
  endloop
 endfacet

 facet normal 0.8279184699058533 -0.560848593711853 0
  outer loop
  vertex 0.5483999252319336 20 0
  vertex -13 0 9.5
  vertex 0.5483999252319336 20 -0.1469001770019531
  endloop
 endfacet

 facet normal 0.8279184699058533 -0.560848593711853 0
  outer loop
  vertex 0.5483999252319336 20 0.1469001770019531
  vertex -13 0 9.5
  vertex 0.5483999252319336 20 0
  endloop
 endfacet

 facet normal 0.8279184699058533 -0.560848593711853 0
  outer loop
  vertex 0.5483999252319336 20 0.3166007995605469
  vertex -13 0 9.5
  vertex 0.5483999252319336 20 0.1469001770019531
  endloop
 endfacet

 facet normal 0.8279184699058533 -0.560848593711853 0
  outer loop
  vertex 0.5483999252319336 20 0.54840087890625
  vertex -13 0 9.5
  vertex 0.5483999252319336 20 0.3166007995605469
  endloop
 endfacet

 facet normal 0.8279184699058533 -0.560848593711853 0
  outer loop
  vertex 0.5483999252319336 20 0.9498004913330078
  vertex -13 0 9.5
  vertex 0.5483999252319336 20 0.54840087890625
  endloop
 endfacet

 facet normal 0.8279184699058533 -0.560848593711853 0
  outer loop
  vertex 0.5483999252319336 20 2.046600341796875
  vertex -13 0 9.5
  vertex 0.5483999252319336 20 0.9498004913330078
  endloop
 endfacet

 facet normal 0.8279184699058533 -0.560848593711853 0
  outer loop
  vertex 0.5483999252319336 20 4.927799224853516
  vertex -13 0 9.5
  vertex 0.5483999252319336 20 2.046600341796875
  endloop
 endfacet

 facet normal 0.8279187083244324 -0.5608481168746948 2.322933823961648e-06
  outer loop
  vertex 8 31 9.5
  vertex -13 0 9.5
  vertex 0.5483999252319336 20 4.927799224853516
  endloop
 endfacet

 facet normal 0.8271974325180054 -0.5619019269943237 0.003270995570346713
  outer loop
  vertex 1.294099807739258 21.10079956054688 4.829599380493164
  vertex 8 31 9.5
  vertex 1.280099868774414 21.0802001953125 4.831399917602539
  endloop
 endfacet

 facet normal 0.8279189467430115 -0.5608478784561157 6.66687128614285e-07
  outer loop
  vertex 2.46589994430542 22.83060073852539 4.344200134277344
  vertex 8 31 9.5
  vertex 1.294099807739258 21.10079956054688 4.829599380493164
  endloop
 endfacet

 facet normal 0.8281391859054565 -0.5605221390724182 -0.000751759042032063
  outer loop
  vertex 2.5 22.88100051879883 4.330099105834961
  vertex 8 31 9.5
  vertex 2.46589994430542 22.83060073852539 4.344200134277344
  endloop
 endfacet

 facet normal 0.8279213309288025 -0.560844361782074 -1.399721531925024e-05
  outer loop
  vertex 3.490499973297119 24.34320068359375 3.569999694824219
  vertex 8 31 9.5
  vertex 2.5 22.88100051879883 4.330099105834961
  endloop
 endfacet

 facet normal 0.827598512172699 -0.5613199472427368 0.000765367120038718
  outer loop
  vertex 3.535499572753906 24.40950012207031 3.535499572753906
  vertex 8 31 9.5
  vertex 3.490499973297119 24.34320068359375 3.569999694824219
  endloop
 endfacet

 facet normal 0.82791668176651 -0.5608511567115784 9.236394362233113e-06
  outer loop
  vertex 4.286299705505371 25.51779937744141 2.557100296020508
  vertex 8 31 9.5
  vertex 3.535499572753906 24.40950012207031 3.535499572753906
  endloop
 endfacet

 facet normal 0.8280230760574341 -0.5606940388679504 -0.0001717349659884349
  outer loop
  vertex 4.330100059509277 25.58250045776367 2.5
  vertex 8 31 9.5
  vertex 4.286299705505371 25.51779937744141 2.557100296020508
  endloop
 endfacet

 facet normal 0.8279110193252563 -0.5608595013618469 1.51094591274159e-05
  outer loop
  vertex 4.798299789428711 26.27360153198242 1.369800567626953
  vertex 8 31 9.5
  vertex 4.330100059509277 25.58250045776367 2.5
  endloop
 endfacet

 facet normal 0.8281902074813843 -0.560447096824646 -0.0003345752775203437
  outer loop
  vertex 4.82960033416748 26.31990051269531 1.294099807739258
  vertex 8 31 9.5
  vertex 4.798299789428711 26.27360153198242 1.369800567626953
  endloop
 endfacet

 facet normal 0.8279157876968384 -0.5608525276184082 2.689125494725886e-06
  outer loop
  vertex 4.988800048828125 26.55490112304688 0.08480072021484375
  vertex 8 31 9.5
  vertex 4.82960033416748 26.31990051269531 1.294099807739258
  endloop
 endfacet

 facet normal 0.8277586698532104 -0.5610843300819397 0.0001623688294785097
  outer loop
  vertex 5 26.5713996887207 0
  vertex 8 31 9.5
  vertex 4.988800048828125 26.55490112304688 0.08480072021484375
  endloop
 endfacet

 facet normal 0.8279179334640503 -0.5608493089675903 0
  outer loop
  vertex 4.82960033416748 26.31990051269531 -1.294099807739258
  vertex 8 31 -59.5
  vertex 8 31 9.5
  endloop
 endfacet

 facet normal 0.8277801275253296 -0.561052680015564 0.0001313625107286498
  outer loop
  vertex 8 31 9.5
  vertex 4.917099952697754 26.44910049438477 -0.6294994354248047
  vertex 4.840399742126465 26.33580017089844 -1.212099075317383
  endloop
 endfacet

 facet normal 0.8284779191017151 -0.5600214600563049 -0.0005234198761172593
  outer loop
  vertex 4.82960033416748 26.31990051269531 -1.294099807739258
  vertex 8 31 9.5
  vertex 4.840399742126465 26.33580017089844 -1.212099075317383
  endloop
 endfacet

 facet normal 0.8279187083244324 -0.5608481168746948 5.86380963341071e-07
  outer loop
  vertex 8 31 -59.5
  vertex 4.396900177001953 25.68119812011719 -2.338699340820312
  vertex -13 0 -59.5
  endloop
 endfacet

 facet normal 0.8279022574424744 -0.5608724355697632 -2.714697757255635e-06
  outer loop
  vertex 4.82960033416748 26.31990051269531 -1.294099807739258
  vertex 4.396900177001953 25.68119812011719 -2.338699340820312
  vertex 8 31 -59.5
  endloop
 endfacet

 facet normal 0 0 1
  outer loop
  vertex 4 31 9.5
  vertex -13 0 9.5
  vertex 8 31 9.5
  endloop
 endfacet

 facet normal 0 -1 0
  outer loop
  vertex -17 0 9.5
  vertex -13 0 -59.5
  vertex -13 0 9.5
  endloop
 endfacet

 facet normal 0 1 0
  outer loop
  vertex 4 31 -59.5
  vertex 8 31 9.5
  vertex 8 31 -59.5
  endloop
 endfacet

 facet normal 0 0 -1
  outer loop
  vertex 8 31 -59.5
  vertex -13 0 -59.5
  vertex -17 0 -59.5
  endloop
 endfacet

 facet normal 0 1 0
  outer loop
  vertex 4.82960033416748 31 -1.294099807739258
  vertex 4.848299980163574 31 -1.151699066162109
  vertex 8 31 9.5
  endloop
 endfacet

 facet normal 0 1 0
  outer loop
  vertex 4 31 -59.5
  vertex 4 31 -2.930200576782227
  vertex 4.330100059509277 31 -2.5
  endloop
 endfacet

 facet normal 0 1 0
  outer loop
  vertex 4.848299980163574 31 -1.151699066162109
  vertex 5 31 0
  vertex 8 31 9.5
  endloop
 endfacet

 facet normal 0 1 0
  outer loop
  vertex 4.385000228881836 31 -2.367399215698242
  vertex 4 31 -59.5
  vertex 4.330100059509277 31 -2.5
  endloop
 endfacet

 facet normal 0 1 0
  outer loop
  vertex 4.385000228881836 31 -2.367399215698242
  vertex 4.82960033416748 31 -1.294099807739258
  vertex 4 31 -59.5
  endloop
 endfacet

 facet normal 0 1 0
  outer loop
  vertex 4.82960033416748 31 -1.294099807739258
  vertex 8 31 9.5
  vertex 4 31 -59.5
  endloop
 endfacet

 facet normal 0 1 0
  outer loop
  vertex 8 31 9.5
  vertex 4.82960033416748 31 1.294099807739258
  vertex 4.774700164794922 31 1.426700592041016
  endloop
 endfacet

 facet normal 0 1 0
  outer loop
  vertex 4.981300354003906 31 0.1424007415771484
  vertex 4.82960033416748 31 1.294099807739258
  vertex 8 31 9.5
  endloop
 endfacet

 facet normal 0 1 0
  outer loop
  vertex 8 31 9.5
  vertex 4.330100059509277 31 2.5
  vertex 4.24269962310791 31 2.613899230957031
  endloop
 endfacet

 facet normal 0 1 0
  outer loop
  vertex 4.774700164794922 31 1.426700592041016
  vertex 4.330100059509277 31 2.5
  vertex 8 31 9.5
  endloop
 endfacet

 facet normal 0 1 0
  outer loop
  vertex 4.24269962310791 31 2.613899230957031
  vertex 4 31 2.930200576782227
  vertex 8 31 9.5
  endloop
 endfacet

 facet normal 0 1 0
  outer loop
  vertex 4 31 2.930200576782227
  vertex 4 31 9.5
  vertex 8 31 9.5
  endloop
 endfacet

 facet normal 0 1 0
  outer loop
  vertex 4.981300354003906 31 0.1424007415771484
  vertex 8 31 9.5
  vertex 5 31 0
  endloop
 endfacet

 facet normal 0 0 1
  outer loop
  vertex 4 31 9.5
  vertex -17 0 9.5
  vertex -13 0 9.5
  endloop
 endfacet

 facet normal 0 -1 0
  outer loop
  vertex -17 0 9.5
  vertex -17 0 -59.5
  vertex -13 0 -59.5
  endloop
 endfacet

 facet normal 0 0 -1
  outer loop
  vertex 8 31 -59.5
  vertex -17 0 -59.5
  vertex 4 31 -59.5
  endloop
 endfacet

 facet normal -0.8277735114097595 0.5610623359680176 -0.0002644177584443241
  outer loop
  vertex 1.294099807739258 27.00559997558594 4.829599380493164
  vertex 1.205100059509277 26.87429809570312 4.841299057006836
  vertex 4 31 9.5
  endloop
 endfacet

 facet normal -0.8279373645782471 0.5608205795288086 4.802176408702508e-05
  outer loop
  vertex 1.205100059509277 26.87429809570312 4.841299057006836
  vertex 0 25.09519958496094 5
  vertex 4 31 9.5
  endloop
 endfacet

 facet normal -0.8279218673706055 0.5608434677124023 0
  outer loop
  vertex 4 31 2.930200576782227
  vertex 3.535499572753906 30.31430053710938 3.535499572753906
  vertex 4 31 9.5
  endloop
 endfacet

 facet normal -0.8279305696487427 0.5608306527137756 -4.829251793125877e-06
  outer loop
  vertex -2.5 21.40480041503906 -4.330099105834961
  vertex 4 31 -59.5
  vertex -3.451600074768066 20 -3.599899291992188
  endloop
 endfacet

 facet normal -0.8279281854629517 0.5608341097831726 1.562598413329397e-06
  outer loop
  vertex 3.535499572753906 30.31430053710938 3.535499572753906
  vertex 3.430300235748291 30.15900039672852 3.616199493408203
  vertex 4 31 9.5
  endloop
 endfacet

 facet normal -0.8279190063476562 0.5608476400375366 -1.252115680472343e-06
  outer loop
  vertex 3.430300235748291 30.15900039672852 3.616199493408203
  vertex 2.5 28.78569984436035 4.330099105834961
  vertex 4 31 9.5
  endloop
 endfacet

 facet normal -0.8278113603591919 0.5610066652297974 -0.0001006085876724683
  outer loop
  vertex 2.5 28.78569984436035 4.330099105834961
  vertex 2.395899772644043 28.63209915161133 4.373199462890625
  vertex 4 31 9.5
  endloop
 endfacet

 facet normal -0.8279225826263428 0.5608423948287964 1.007509308692534e-05
  outer loop
  vertex 2.395899772644043 28.63209915161133 4.373199462890625
  vertex 1.294099807739258 27.00559997558594 4.829599380493164
  vertex 4 31 9.5
  endloop
 endfacet

 facet normal -0.82789146900177 0.560888409614563 -8.190285007003695e-05
  outer loop
  vertex 0 25.09519958496094 5
  vertex -0.06470012664794922 24.99969863891602 4.991500854492188
  vertex 4 31 9.5
  endloop
 endfacet

 facet normal -0.8279139399528503 0.5608551502227783 -1.735539808578324e-05
  outer loop
  vertex -0.06470012664794922 24.99969863891602 4.991500854492188
  vertex -1.294100046157837 23.18489837646484 4.829599380493164
  vertex 4 31 9.5
  endloop
 endfacet

 facet normal -0.8283234834671021 0.5602481961250305 0.001462450600229204
  outer loop
  vertex -1.294100046157837 23.18489837646484 4.829599380493164
  vertex -1.331799983978271 23.12919998168945 4.813999176025391
  vertex 4 31 9.5
  endloop
 endfacet

 facet normal -0.8278927206993103 0.5608866214752197 -9.983218478737399e-05
  outer loop
  vertex -1.331799983978271 23.12919998168945 4.813999176025391
  vertex -2.5 21.40480041503906 4.330099105834961
  vertex 4 31 9.5
  endloop
 endfacet

 facet normal -0.8279187083244324 0.5608481168746948 4.177723894827068e-06
  outer loop
  vertex -2.5 21.40480041503906 4.330099105834961
  vertex -17 0 9.5
  vertex 4 31 9.5
  endloop
 endfacet

 facet normal -0.8282759189605713 0.5603111982345581 -0.003220995422452688
  outer loop
  vertex -2.514299869537354 21.38359832763672 4.319099426269531
  vertex -17 0 9.5
  vertex -2.5 21.40480041503906 4.330099105834961
  endloop
 endfacet

 facet normal -0.8279162049293518 0.5608518719673157 1.67325579241151e-05
  outer loop
  vertex -3.451600074768066 20 3.599899291992188
  vertex -17 0 9.5
  vertex -2.514299869537354 21.38359832763672 4.319099426269531
  endloop
 endfacet

 facet normal -0.8279184699058533 0.560848593711853 0
  outer loop
  vertex -3.451600074768066 20 3.45159912109375
  vertex -17 0 9.5
  vertex -3.451600074768066 20 3.599899291992188
  endloop
 endfacet

 facet normal -0.8279184699058533 0.560848593711853 0
  outer loop
  vertex -3.451600074768066 20 1.992799758911133
  vertex -17 0 9.5
  vertex -3.451600074768066 20 3.45159912109375
  endloop
 endfacet

 facet normal -0.8279184699058533 0.560848593711853 0
  outer loop
  vertex -3.451600074768066 20 0.9249000549316406
  vertex -17 0 9.5
  vertex -3.451600074768066 20 1.992799758911133
  endloop
 endfacet

 facet normal -0.8279184699058533 0.560848593711853 0
  outer loop
  vertex -3.451600074768066 20 0
  vertex -17 0 9.5
  vertex -3.451600074768066 20 0.9249000549316406
  endloop
 endfacet

 facet normal -0.8279184699058533 0.560848593711853 0
  outer loop
  vertex -3.451600074768066 20 -0.9249000549316406
  vertex -17 0 9.5
  vertex -3.451600074768066 20 0
  endloop
 endfacet

 facet normal -0.8279184699058533 0.560848593711853 0
  outer loop
  vertex -3.451600074768066 20 -1.992799758911133
  vertex -17 0 9.5
  vertex -3.451600074768066 20 -0.9249000549316406
  endloop
 endfacet

 facet normal -0.8279184699058533 0.560848593711853 0
  outer loop
  vertex -3.451600074768066 20 -3.45159912109375
  vertex -17 0 9.5
  vertex -3.451600074768066 20 -1.992799758911133
  endloop
 endfacet

 facet normal -0.8279184699058533 0.560848593711853 0
  outer loop
  vertex -3.451600074768066 20 -3.599899291992188
  vertex -17 0 9.5
  vertex -3.451600074768066 20 -3.45159912109375
  endloop
 endfacet

 facet normal -0.8279184103012085 0.5608486533164978 3.412125124668819e-07
  outer loop
  vertex 4 31 -59.5
  vertex -17 0 9.5
  vertex -3.451600074768066 20 -3.599899291992188
  endloop
 endfacet

 facet normal -0.8280026912689209 0.560724139213562 -3.185505192959681e-05
  outer loop
  vertex -2.482800006866455 21.43019866943359 -4.337200164794922
  vertex 4 31 -59.5
  vertex -2.5 21.40480041503906 -4.330099105834961
  endloop
 endfacet

 facet normal -0.8279113173484802 0.5608590841293335 2.294444811923313e-06
  outer loop
  vertex -1.294100046157837 23.18489837646484 -4.829599380493164
  vertex 4 31 -59.5
  vertex -2.482800006866455 21.43019866943359 -4.337200164794922
  endloop
 endfacet

 facet normal -0.827919602394104 0.5608469247817993 -2.366214459925686e-07
  outer loop
  vertex -1.252099990844727 23.24689865112305 -4.835100173950195
  vertex 4 31 -59.5
  vertex -1.294100046157837 23.18489837646484 -4.829599380493164
  endloop
 endfacet

 facet normal -0.8279134035110474 0.5608559250831604 1.633359715924598e-06
  outer loop
  vertex 0 25.09519958496094 -5
  vertex 4 31 -59.5
  vertex -1.252099990844727 23.24689865112305 -4.835100173950195
  endloop
 endfacet

 facet normal -0.8281787633895874 0.560464084148407 -6.029968790244311e-05
  outer loop
  vertex 0.0672001838684082 25.19449996948242 -4.991100311279297
  vertex 4 31 -59.5
  vertex 0 25.09519958496094 -5
  endloop
 endfacet

 facet normal -0.8279133439064026 0.56085604429245 5.984118729429611e-07
  outer loop
  vertex 1.294099807739258 27.00559997558594 -4.829599380493164
  vertex 4 31 -59.5
  vertex 0.0672001838684082 25.19449996948242 -4.991100311279297
  endloop
 endfacet

 facet normal -0.8278129100799561 0.5610044002532959 1.640346090425737e-05
  outer loop
  vertex 1.380099773406982 27.13249969482422 -4.794000625610352
  vertex 4 31 -59.5
  vertex 1.294099807739258 27.00559997558594 -4.829599380493164
  endloop
 endfacet

 facet normal -0.8279209136962891 0.560844898223877 -4.468633818532908e-08
  outer loop
  vertex 2.5 28.78569984436035 -4.330099105834961
  vertex 4 31 -59.5
  vertex 1.380099773406982 27.13249969482422 -4.794000625610352
  endloop
 endfacet

 facet normal -0.8279189467430115 0.5608477592468262 1.254548180895654e-07
  outer loop
  vertex 2.592400074005127 28.92210006713867 -4.259199142456055
  vertex 4 31 -59.5
  vertex 2.5 28.78569984436035 -4.330099105834961
  endloop
 endfacet

 facet normal -0.8279199004173279 0.5608465075492859 5.392014656990796e-08
  outer loop
  vertex 3.535499572753906 30.31430053710938 -3.535499572753906
  vertex 4 31 -59.5
  vertex 2.592400074005127 28.92210006713867 -4.259199142456055
  endloop
 endfacet

 facet normal -0.8279692530632019 0.5607734322547913 -1.251511207556177e-06
  outer loop
  vertex 3.618399620056152 30.43670082092285 -3.427400588989258
  vertex 4 31 -59.5
  vertex 3.535499572753906 30.31430053710938 -3.535499572753906
  endloop
 endfacet

 facet normal -0.8279114961624146 0.5608588457107544 0
  outer loop
  vertex 4 31 -2.930200576782227
  vertex 4 31 -59.5
  vertex 3.618399620056152 30.43670082092285 -3.427400588989258
  endloop
 endfacet

 facet normal -0.8279187083244324 0.5608481168746948 0
  outer loop
  vertex 4 31 -59.5
  vertex -17 0 -59.5
  vertex -17 0 9.5
  endloop
 endfacet

 facet normal 0.13056381046772 0 0.9914399385452271
  outer loop
  vertex 0 120 5
  vertex 0 25.09519958496094 5
  vertex 1.205100059509277 26.87429809570312 4.841299057006836
  endloop
 endfacet

 facet normal 0.1303403228521347 -2.942000492112129e-06 0.9914693236351013
  outer loop
  vertex 0 120 5
  vertex 1.205100059509277 26.87429809570312 4.841299057006836
  vertex 1.294099807739258 27.00559997558594 4.829599380493164
  endloop
 endfacet

 facet normal 0.1305481493473053 0 0.9914419651031494
  outer loop
  vertex 1.294099807739258 120 4.829599380493164
  vertex 0 120 5
  vertex 1.294099807739258 27.00559997558594 4.829599380493164
  endloop
 endfacet

 facet normal -0.1305481195449829 0 0.9914419651031494
  outer loop
  vertex 0 25.09519958496094 5
  vertex 0 120 5
  vertex -1.294100046157837 120 4.829599380493164
  endloop
 endfacet

 facet normal -0.1302492022514343 4.14657642977545e-06 0.9914813041687012
  outer loop
  vertex -0.06470012664794922 24.99969863891602 4.991500854492188
  vertex 0 25.09519958496094 5
  vertex -1.294100046157837 120 4.829599380493164
  endloop
 endfacet

 facet normal 0 1 0
  outer loop
  vertex 0 120 5
  vertex 1.294099807739258 120 4.829599380493164
  vertex 0 120 0
  endloop
 endfacet

 facet normal 0.3826973438262939 0 0.9238737821578979
  outer loop
  vertex 1.294099807739258 120 4.829599380493164
  vertex 1.294099807739258 27.00559997558594 4.829599380493164
  vertex 2.395899772644043 28.63209915161133 4.373199462890625
  endloop
 endfacet

 facet normal 0 1 0
  outer loop
  vertex -1.294100046157837 120 4.829599380493164
  vertex 0 120 5
  vertex 0 120 0
  endloop
 endfacet

 facet normal -0.1305641680955887 0 0.9914398193359375
  outer loop
  vertex -0.06470012664794922 24.99969863891602 4.991500854492188
  vertex -1.294100046157837 120 4.829599380493164
  vertex -1.294100046157837 23.18489837646484 4.829599380493164
  endloop
 endfacet

 facet normal 0 1 0
  outer loop
  vertex 1.294099807739258 120 4.829599380493164
  vertex 2.5 120 4.330099105834961
  vertex 0 120 0
  endloop
 endfacet

 facet normal 0.3825395703315735 -2.229835217804066e-06 0.9239391684532166
  outer loop
  vertex 1.294099807739258 120 4.829599380493164
  vertex 2.395899772644043 28.63209915161133 4.373199462890625
  vertex 2.5 28.78569984436035 4.330099105834961
  endloop
 endfacet

 facet normal 0.3826835155487061 0 0.9238795638084412
  outer loop
  vertex 2.5 120 4.330099105834961
  vertex 1.294099807739258 120 4.829599380493164
  vertex 2.5 28.78569984436035 4.330099105834961
  endloop
 endfacet

 facet normal 0 1 0
  outer loop
  vertex -2.5 120 4.330099105834961
  vertex -1.294100046157837 120 4.829599380493164
  vertex 0 120 0
  endloop
 endfacet

 facet normal -0.3826835751533508 0 0.9238795042037964
  outer loop
  vertex -1.294100046157837 23.18489837646484 4.829599380493164
  vertex -1.294100046157837 120 4.829599380493164
  vertex -2.5 120 4.330099105834961
  endloop
 endfacet

 facet normal -0.3823625147342682 4.684196483140113e-06 0.9240123629570007
  outer loop
  vertex -1.331799983978271 23.12919998168945 4.813999176025391
  vertex -1.294100046157837 23.18489837646484 4.829599380493164
  vertex -2.5 120 4.330099105834961
  endloop
 endfacet

 facet normal 0 1 0
  outer loop
  vertex 2.5 120 4.330099105834961
  vertex 3.535499572753906 120 3.535499572753906
  vertex 0 120 0
  endloop
 endfacet

 facet normal 0.6087909936904907 0 0.7933307290077209
  outer loop
  vertex 2.5 120 4.330099105834961
  vertex 2.5 28.78569984436035 4.330099105834961
  vertex 3.430300235748291 30.15900039672852 3.616199493408203
  endloop
 endfacet

 facet normal 0 1 0
  outer loop
  vertex -3.535500049591064 120 3.535499572753906
  vertex -2.5 120 4.330099105834961
  vertex 0 120 0
  endloop
 endfacet

 facet normal -0.3826941549777985 0 0.923875093460083
  outer loop
  vertex -1.331799983978271 23.12919998168945 4.813999176025391
  vertex -2.5 120 4.330099105834961
  vertex -2.5 21.40480041503906 4.330099105834961
  endloop
 endfacet

 facet normal 0.6086573004722595 -2.200344169978052e-06 0.7934333086013794
  outer loop
  vertex 2.5 120 4.330099105834961
  vertex 3.430300235748291 30.15900039672852 3.616199493408203
  vertex 3.535499572753906 30.31430053710938 3.535499572753906
  endloop
 endfacet

 facet normal 0.6087772250175476 0 0.7933412790298462
  outer loop
  vertex 3.535499572753906 120 3.535499572753906
  vertex 2.5 120 4.330099105834961
  vertex 3.535499572753906 30.31430053710938 3.535499572753906
  endloop
 endfacet

 facet normal 0 1 0
  outer loop
  vertex 3.535499572753906 120 3.535499572753906
  vertex 4.330100059509277 120 2.5
  vertex 0 120 0
  endloop
 endfacet

 facet normal 0 1 0
  outer loop
  vertex -4.330100059509277 120 2.5
  vertex -3.535500049591064 120 3.535499572753906
  vertex 0 120 0
  endloop
 endfacet

 facet normal -0.6087770462036133 0 0.793341338634491
  outer loop
  vertex -2.5 21.40480041503906 4.330099105834961
  vertex -2.5 120 4.330099105834961
  vertex -3.535500049591064 120 3.535499572753906
  endloop
 endfacet

 facet normal -0.6096857786178589 -1.516997508588247e-05 0.7926432490348816
  outer loop
  vertex -2.514299869537354 21.38359832763672 4.319099426269531
  vertex -2.5 21.40480041503906 4.330099105834961
  vertex -3.535500049591064 120 3.535499572753906
  endloop
 endfacet

 facet normal 0.7933291792869568 0 0.6087929010391235
  outer loop
  vertex 3.535499572753906 120 3.535499572753906
  vertex 3.535499572753906 30.31430053710938 3.535499572753906
  vertex 4 31 2.930200576782227
  endloop
 endfacet

 facet normal 0.7933617830276489 4.585887722896587e-07 0.6087504625320435
  outer loop
  vertex 4.24269962310791 31 2.613899230957031
  vertex 3.535499572753906 120 3.535499572753906
  vertex 4 31 2.930200576782227
  endloop
 endfacet

 facet normal 0.7933449745178223 0 0.6087723970413208
  outer loop
  vertex 4.330100059509277 120 2.5
  vertex 4.24269962310791 31 2.613899230957031
  vertex 4.330100059509277 31 2.5
  endloop
 endfacet

 facet normal 0.7933408617973328 1.093094592619082e-08 0.6087777018547058
  outer loop
  vertex 4.330100059509277 120 2.5
  vertex 3.535499572753906 120 3.535499572753906
  vertex 4.24269962310791 31 2.613899230957031
  endloop
 endfacet

 facet normal 0 1 0
  outer loop
  vertex 4.330100059509277 120 2.5
  vertex 4.82960033416748 120 1.294099807739258
  vertex 0 120 0
  endloop
 endfacet

 facet normal 0 1 0
  outer loop
  vertex -4.829599857330322 120 1.294099807739258
  vertex -4.330100059509277 120 2.5
  vertex 0 120 0
  endloop
 endfacet

 facet normal -0.7933411002159119 0 0.6087775230407715
  outer loop
  vertex -4.330100059509277 120 2.5
  vertex -3.535500049591064 20 3.535499572753906
  vertex -3.535500049591064 120 3.535499572753906
  endloop
 endfacet

 facet normal -0.608764111995697 0 0.7933513522148132
  outer loop
  vertex -2.514299869537354 21.38359832763672 4.319099426269531
  vertex -3.535500049591064 120 3.535499572753906
  vertex -3.535500049591064 20 3.535499572753906
  endloop
 endfacet

 facet normal -0.608886182308197 0.0001430841075489298 0.7932576537132263
  outer loop
  vertex -3.451600074768066 20 3.599899291992188
  vertex -2.514299869537354 21.38359832763672 4.319099426269531
  vertex -3.535500049591064 20 3.535499572753906
  endloop
 endfacet

 facet normal 0.9238719344139099 0 0.3827017545700073
  outer loop
  vertex 4.330100059509277 120 2.5
  vertex 4.330100059509277 31 2.5
  vertex 4.774700164794922 31 1.426700592041016
  endloop
 endfacet

 facet normal 0.9239408373832703 0 0.3825355172157288
  outer loop
  vertex 4.82960033416748 120 1.294099807739258
  vertex 4.774700164794922 31 1.426700592041016
  vertex 4.82960033416748 31 1.294099807739258
  endloop
 endfacet

 facet normal 0.9238795638084412 2.582760600944312e-07 0.3826835155487061
  outer loop
  vertex 4.82960033416748 120 1.294099807739258
  vertex 4.330100059509277 120 2.5
  vertex 4.774700164794922 31 1.426700592041016
  endloop
 endfacet

 facet normal 0 1 0
  outer loop
  vertex 4.82960033416748 120 1.294099807739258
  vertex 5 120 0
  vertex 0 120 0
  endloop
 endfacet

 facet normal 0 1 0
  outer loop
  vertex -5 120 0
  vertex -4.829599857330322 120 1.294099807739258
  vertex 0 120 0
  endloop
 endfacet

 facet normal -0.9238796830177307 0 0.3826833665370941
  outer loop
  vertex -4.829599857330322 120 1.294099807739258
  vertex -4.330100059509277 20 2.5
  vertex -4.330100059509277 120 2.5
  endloop
 endfacet

 facet normal -0.7933411002159119 0 0.6087775230407715
  outer loop
  vertex -4.330100059509277 120 2.5
  vertex -4.330100059509277 20 2.5
  vertex -3.535500049591064 20 3.535499572753906
  endloop
 endfacet

 facet normal 0 -1 0
  outer loop
  vertex -3.451600074768066 20 3.599899291992188
  vertex -3.535500049591064 20 3.535499572753906
  vertex -3.451600074768066 20 3.45159912109375
  endloop
 endfacet

 facet normal 0.9914363622665405 0 0.1305904537439346
  outer loop
  vertex 4.82960033416748 120 1.294099807739258
  vertex 4.82960033416748 31 1.294099807739258
  vertex 4.981300354003906 31 0.1424007415771484
  endloop
 endfacet

 facet normal 0.9914878606796265 0 0.1301992833614349
  outer loop
  vertex 5 120 0
  vertex 4.981300354003906 31 0.1424007415771484
  vertex 5 31 0
  endloop
 endfacet

 facet normal 0.9914421439170837 5.666784659297264e-07 0.130547434091568
  outer loop
  vertex 5 120 0
  vertex 4.82960033416748 120 1.294099807739258
  vertex 4.981300354003906 31 0.1424007415771484
  endloop
 endfacet

 facet normal 0 1 0
  outer loop
  vertex 5 120 0
  vertex 4.82960033416748 120 -1.294099807739258
  vertex 0 120 0
  endloop
 endfacet

 facet normal 0 1 0
  outer loop
  vertex -4.829599857330322 120 -1.294099807739258
  vertex -5 120 0
  vertex 0 120 0
  endloop
 endfacet

 facet normal -0.991442084312439 0 0.1305476725101471
  outer loop
  vertex -5 120 0
  vertex -4.829599857330322 20 1.294099807739258
  vertex -4.829599857330322 120 1.294099807739258
  endloop
 endfacet

 facet normal -0.9238796830177307 0 0.3826833665370941
  outer loop
  vertex -4.829599857330322 120 1.294099807739258
  vertex -4.829599857330322 20 1.294099807739258
  vertex -4.330100059509277 20 2.5
  endloop
 endfacet

 facet normal 0 -1 0
  outer loop
  vertex -3.451600074768066 20 3.45159912109375
  vertex -3.535500049591064 20 3.535499572753906
  vertex -4.330100059509277 20 2.5
  endloop
 endfacet

 facet normal 0 -1 0
  outer loop
  vertex -3.451600074768066 20 1.992799758911133
  vertex -3.451600074768066 20 3.45159912109375
  vertex -4.330100059509277 20 2.5
  endloop
 endfacet

 facet normal 0.9914363622665405 0 -0.1305904537439346
  outer loop
  vertex 5 120 0
  vertex 5 31 0
  vertex 4.848299980163574 31 -1.151699066162109
  endloop
 endfacet

 facet normal 0.9914878606796265 0 -0.1301992833614349
  outer loop
  vertex 4.82960033416748 120 -1.294099807739258
  vertex 4.848299980163574 31 -1.151699066162109
  vertex 4.82960033416748 31 -1.294099807739258
  endloop
 endfacet

 facet normal 0.9914421439170837 -5.666784659297264e-07 -0.130547434091568
  outer loop
  vertex 4.82960033416748 120 -1.294099807739258
  vertex 5 120 0
  vertex 4.848299980163574 31 -1.151699066162109
  endloop
 endfacet

 facet normal 0 1 0
  outer loop
  vertex 4.82960033416748 120 -1.294099807739258
  vertex 4.330100059509277 120 -2.5
  vertex 0 120 0
  endloop
 endfacet

 facet normal 0 1 0
  outer loop
  vertex -4.330100059509277 120 -2.5
  vertex -4.829599857330322 120 -1.294099807739258
  vertex 0 120 0
  endloop
 endfacet

 facet normal -0.991442084312439 0 -0.1305476725101471
  outer loop
  vertex -4.829599857330322 120 -1.294099807739258
  vertex -5 20 0
  vertex -5 120 0
  endloop
 endfacet

 facet normal -0.991442084312439 0 0.1305476725101471
  outer loop
  vertex -5 120 0
  vertex -5 20 0
  vertex -4.829599857330322 20 1.294099807739258
  endloop
 endfacet

 facet normal 0 -1 0
  outer loop
  vertex -3.451600074768066 20 1.992799758911133
  vertex -4.330100059509277 20 2.5
  vertex -4.829599857330322 20 1.294099807739258
  endloop
 endfacet

 facet normal 0 -1 0
  outer loop
  vertex -3.451600074768066 20 0.9249000549316406
  vertex -3.451600074768066 20 1.992799758911133
  vertex -4.829599857330322 20 1.294099807739258
  endloop
 endfacet

 facet normal 0.9238719344139099 0 -0.3827017545700073
  outer loop
  vertex 4.82960033416748 120 -1.294099807739258
  vertex 4.82960033416748 31 -1.294099807739258
  vertex 4.385000228881836 31 -2.367399215698242
  endloop
 endfacet

 facet normal 0.9239408373832703 0 -0.3825355172157288
  outer loop
  vertex 4.330100059509277 120 -2.5
  vertex 4.385000228881836 31 -2.367399215698242
  vertex 4.330100059509277 31 -2.5
  endloop
 endfacet

 facet normal 0.9238795638084412 -2.582760600944312e-07 -0.3826835155487061
  outer loop
  vertex 4.330100059509277 120 -2.5
  vertex 4.82960033416748 120 -1.294099807739258
  vertex 4.385000228881836 31 -2.367399215698242
  endloop
 endfacet

 facet normal 0 1 0
  outer loop
  vertex 4.330100059509277 120 -2.5
  vertex 3.535499572753906 120 -3.535499572753906
  vertex 0 120 0
  endloop
 endfacet

 facet normal 0 1 0
  outer loop
  vertex -3.535500049591064 120 -3.535499572753906
  vertex -4.330100059509277 120 -2.5
  vertex 0 120 0
  endloop
 endfacet

 facet normal -0.9238796830177307 0 -0.3826833665370941
  outer loop
  vertex -4.330100059509277 120 -2.5
  vertex -4.829599857330322 20 -1.294099807739258
  vertex -4.829599857330322 120 -1.294099807739258
  endloop
 endfacet

 facet normal -0.991442084312439 0 -0.1305476725101471
  outer loop
  vertex -4.829599857330322 120 -1.294099807739258
  vertex -4.829599857330322 20 -1.294099807739258
  vertex -5 20 0
  endloop
 endfacet

 facet normal 0 -1 0
  outer loop
  vertex -3.451600074768066 20 0.9249000549316406
  vertex -4.829599857330322 20 1.294099807739258
  vertex -5 20 0
  endloop
 endfacet

 facet normal 0 -1 0
  outer loop
  vertex -3.451600074768066 20 0
  vertex -3.451600074768066 20 0.9249000549316406
  vertex -5 20 0
  endloop
 endfacet

 facet normal 0.7933573722839355 0 -0.6087563037872314
  outer loop
  vertex 4.330100059509277 120 -2.5
  vertex 4.330100059509277 31 -2.5
  vertex 4 31 -2.930200576782227
  endloop
 endfacet

 facet normal 0.7932871580123901 7.021030796749983e-07 -0.6088477373123169
  outer loop
  vertex 3.618399620056152 30.43670082092285 -3.427400588989258
  vertex 4.330100059509277 120 -2.5
  vertex 4 31 -2.930200576782227
  endloop
 endfacet

 facet normal 0.7935207486152649 0 -0.6085432171821594
  outer loop
  vertex 3.535499572753906 120 -3.535499572753906
  vertex 3.618399620056152 30.43670082092285 -3.427400588989258
  vertex 3.535499572753906 30.31430053710938 -3.535499572753906
  endloop
 endfacet

 facet normal 0.7933408617973328 -4.494514200814592e-07 -0.6087777018547058
  outer loop
  vertex 3.535499572753906 120 -3.535499572753906
  vertex 4.330100059509277 120 -2.5
  vertex 3.618399620056152 30.43670082092285 -3.427400588989258
  endloop
 endfacet

 facet normal 0 1 0
  outer loop
  vertex 3.535499572753906 120 -3.535499572753906
  vertex 2.5 120 -4.330099105834961
  vertex 0 120 0
  endloop
 endfacet

 facet normal 0 1 0
  outer loop
  vertex -2.5 120 -4.330099105834961
  vertex -3.535500049591064 120 -3.535499572753906
  vertex 0 120 0
  endloop
 endfacet

 facet normal -0.7933411002159119 0 -0.6087775230407715
  outer loop
  vertex -3.535500049591064 120 -3.535499572753906
  vertex -4.330100059509277 20 -2.5
  vertex -4.330100059509277 120 -2.5
  endloop
 endfacet

 facet normal -0.9238796830177307 0 -0.3826833665370941
  outer loop
  vertex -4.330100059509277 120 -2.5
  vertex -4.330100059509277 20 -2.5
  vertex -4.829599857330322 20 -1.294099807739258
  endloop
 endfacet

 facet normal 0 -1 0
  outer loop
  vertex -3.451600074768066 20 -0.9249000549316406
  vertex -5 20 0
  vertex -4.829599857330322 20 -1.294099807739258
  endloop
 endfacet

 facet normal 0 -1 0
  outer loop
  vertex -3.451600074768066 20 -0.9249000549316406
  vertex -3.451600074768066 20 0
  vertex -5 20 0
  endloop
 endfacet

 facet normal 0.6087793707847595 0 -0.7933396100997925
  outer loop
  vertex 3.535499572753906 120 -3.535499572753906
  vertex 3.535499572753906 30.31430053710938 -3.535499572753906
  vertex 2.592400074005127 28.92210006713867 -4.259199142456055
  endloop
 endfacet

 facet normal 0.6087554693222046 0 -0.7933579683303833
  outer loop
  vertex 2.5 120 -4.330099105834961
  vertex 2.592400074005127 28.92210006713867 -4.259199142456055
  vertex 2.5 28.78569984436035 -4.330099105834961
  endloop
 endfacet

 facet normal 0.6087772250175476 3.511045321147321e-08 -0.7933412790298462
  outer loop
  vertex 2.5 120 -4.330099105834961
  vertex 3.535499572753906 120 -3.535499572753906
  vertex 2.592400074005127 28.92210006713867 -4.259199142456055
  endloop
 endfacet

 facet normal 0 1 0
  outer loop
  vertex 2.5 120 -4.330099105834961
  vertex 1.294099807739258 120 -4.829599380493164
  vertex 0 120 0
  endloop
 endfacet

 facet normal 0 1 0
  outer loop
  vertex -1.294100046157837 120 -4.829599380493164
  vertex -2.5 120 -4.330099105834961
  vertex 0 120 0
  endloop
 endfacet

 facet normal -0.6087770462036133 0 -0.793341338634491
  outer loop
  vertex -2.5 120 -4.330099105834961
  vertex -3.535500049591064 20 -3.535499572753906
  vertex -3.535500049591064 120 -3.535499572753906
  endloop
 endfacet

 facet normal -0.7933411002159119 0 -0.6087775230407715
  outer loop
  vertex -3.535500049591064 120 -3.535499572753906
  vertex -3.535500049591064 20 -3.535499572753906
  vertex -4.330100059509277 20 -2.5
  endloop
 endfacet

 facet normal 0 -1 0
  outer loop
  vertex -3.451600074768066 20 -1.992799758911133
  vertex -4.829599857330322 20 -1.294099807739258
  vertex -4.330100059509277 20 -2.5
  endloop
 endfacet

 facet normal 0 -1 0
  outer loop
  vertex -3.451600074768066 20 -1.992799758911133
  vertex -3.451600074768066 20 -0.9249000549316406
  vertex -4.829599857330322 20 -1.294099807739258
  endloop
 endfacet

 facet normal 0.3827000856399536 0 -0.9238726496696472
  outer loop
  vertex 2.5 120 -4.330099105834961
  vertex 2.5 28.78569984436035 -4.330099105834961
  vertex 1.380099773406982 27.13249969482422 -4.794000625610352
  endloop
 endfacet

 facet normal 0.3824670314788818 0 -0.9239691495895386
  outer loop
  vertex 1.294099807739258 120 -4.829599380493164
  vertex 1.380099773406982 27.13249969482422 -4.794000625610352
  vertex 1.294099807739258 27.00559997558594 -4.829599380493164
  endloop
 endfacet

 facet normal 0.3826835155487061 2.347968148797008e-07 -0.9238795638084412
  outer loop
  vertex 1.294099807739258 120 -4.829599380493164
  vertex 2.5 120 -4.330099105834961
  vertex 1.380099773406982 27.13249969482422 -4.794000625610352
  endloop
 endfacet

 facet normal 0 1 0
  outer loop
  vertex 1.294099807739258 120 -4.829599380493164
  vertex 0 120 -5
  vertex 0 120 0
  endloop
 endfacet

 facet normal 0 1 0
  outer loop
  vertex 0 120 -5
  vertex -1.294100046157837 120 -4.829599380493164
  vertex 0 120 0
  endloop
 endfacet

 facet normal -0.3826835751533508 -2.194533124111331e-07 -0.9238795042037964
  outer loop
  vertex -2.482800006866455 21.43019866943359 -4.337200164794922
  vertex -2.5 120 -4.330099105834961
  vertex -1.294100046157837 120 -4.829599380493164
  endloop
 endfacet

 facet normal -0.3816092908382416 0 -0.9243237376213074
  outer loop
  vertex -2.482800006866455 21.43019866943359 -4.337200164794922
  vertex -2.5 21.40480041503906 -4.330099105834961
  vertex -2.5 120 -4.330099105834961
  endloop
 endfacet

 facet normal -0.6087770462036133 0 -0.793341338634491
  outer loop
  vertex -2.5 21.40480041503906 -4.330099105834961
  vertex -3.535500049591064 20 -3.535499572753906
  vertex -2.5 120 -4.330099105834961
  endloop
 endfacet

 facet normal -0.608886182308197 0.0001277450064662844 -0.7932576537132263
  outer loop
  vertex -2.5 21.40480041503906 -4.330099105834961
  vertex -3.451600074768066 20 -3.599899291992188
  vertex -3.535500049591064 20 -3.535499572753906
  endloop
 endfacet

 facet normal 0 -1 0
  outer loop
  vertex -3.451600074768066 20 -3.45159912109375
  vertex -4.330100059509277 20 -2.5
  vertex -3.535500049591064 20 -3.535499572753906
  endloop
 endfacet

 facet normal 0 -1 0
  outer loop
  vertex -3.451600074768066 20 -3.45159912109375
  vertex -3.451600074768066 20 -1.992799758911133
  vertex -4.330100059509277 20 -2.5
  endloop
 endfacet

 facet normal 0.1305075585842133 0 -0.991447389125824
  outer loop
  vertex 1.294099807739258 120 -4.829599380493164
  vertex 1.294099807739258 27.00559997558594 -4.829599380493164
  vertex 0.0672001838684082 25.19449996948242 -4.991100311279297
  endloop
 endfacet

 facet normal 0.1305481493473053 -5.344178362065577e-07 -0.9914419651031494
  outer loop
  vertex 0.0672001838684082 25.19449996948242 -4.991100311279297
  vertex 0 120 -5
  vertex 1.294099807739258 120 -4.829599380493164
  endloop
 endfacet

 facet normal 0.1312891393899918 0 -0.991344153881073
  outer loop
  vertex 0.0672001838684082 25.19449996948242 -4.991100311279297
  vertex 0 25.09519958496094 -5
  vertex 0 120 -5
  endloop
 endfacet

 facet normal -0.1305481195449829 -3.029431354661938e-07 -0.9914419651031494
  outer loop
  vertex -1.252099990844727 23.24689865112305 -4.835100173950195
  vertex -1.294100046157837 120 -4.829599380493164
  vertex 0 120 -5
  endloop
 endfacet

 facet normal -0.1298620402812958 0 -0.9915320873260498
  outer loop
  vertex -1.252099990844727 23.24689865112305 -4.835100173950195
  vertex -1.294100046157837 23.18489837646484 -4.829599380493164
  vertex -1.294100046157837 120 -4.829599380493164
  endloop
 endfacet

 facet normal -0.3826990723609924 0 -0.9238730669021606
  outer loop
  vertex -2.482800006866455 21.43019866943359 -4.337200164794922
  vertex -1.294100046157837 120 -4.829599380493164
  vertex -1.294100046157837 23.18489837646484 -4.829599380493164
  endloop
 endfacet

 facet normal 0 -1 0
  outer loop
  vertex -3.451600074768066 20 -3.45159912109375
  vertex -3.535500049591064 20 -3.535499572753906
  vertex -3.451600074768066 20 -3.599899291992188
  endloop
 endfacet

 facet normal -0.1305711269378662 0 -0.9914389848709106
  outer loop
  vertex -1.252099990844727 23.24689865112305 -4.835100173950195
  vertex 0 120 -5
  vertex 0 25.09519958496094 -5
  endloop
 endfacet

 facet normal 0.130560964345932 3.954844942199998e-05 0.9914402961730957
  outer loop
  vertex 0.5483999252319336 20 4.927799224853516
  vertex 1.294099807739258 20 4.829599380493164
  vertex 1.280099868774414 21.0802001953125 4.831399917602539
  endloop
 endfacet

 facet normal 0 -1 0
  outer loop
  vertex 0.5483999252319336 20 2.046600341796875
  vertex 1.294099807739258 20 4.829599380493164
  vertex 0.5483999252319336 20 4.927799224853516
  endloop
 endfacet

 facet normal 0.1275597214698792 0 0.9918309450149536
  outer loop
  vertex 1.280099868774414 21.0802001953125 4.831399917602539
  vertex 1.294099807739258 20 4.829599380493164
  vertex 1.294099807739258 21.10079956054688 4.829599380493164
  endloop
 endfacet

 facet normal 0 -1 0
  outer loop
  vertex 0.5483999252319336 20 2.046600341796875
  vertex 2.5 20 4.330099105834961
  vertex 1.294099807739258 20 4.829599380493164
  endloop
 endfacet

 facet normal 0 -1 0
  outer loop
  vertex 0.5483999252319336 20 2.046600341796875
  vertex 0.5483999252319336 20 0.9498004913330078
  vertex 2.5 20 4.330099105834961
  endloop
 endfacet

 facet normal 0.3826835155487061 0 0.9238795638084412
  outer loop
  vertex 1.294099807739258 21.10079956054688 4.829599380493164
  vertex 1.294099807739258 20 4.829599380493164
  vertex 2.5 20 4.330099105834961
  endloop
 endfacet

 facet normal 0.3826895654201508 7.814436685293913e-06 0.9238770008087158
  outer loop
  vertex 2.46589994430542 22.83060073852539 4.344200134277344
  vertex 1.294099807739258 21.10079956054688 4.829599380493164
  vertex 2.5 20 4.330099105834961
  endloop
 endfacet

 facet normal 0 -1 0
  outer loop
  vertex 0.5483999252319336 20 0.9498004913330078
  vertex 3.535499572753906 20 3.535499572753906
  vertex 2.5 20 4.330099105834961
  endloop
 endfacet

 facet normal 0 -1 0
  outer loop
  vertex 0.5483999252319336 20 0.9498004913330078
  vertex 0.5483999252319336 20 0.54840087890625
  vertex 3.535499572753906 20 3.535499572753906
  endloop
 endfacet

 facet normal 0.3821356892585754 0 0.924106240272522
  outer loop
  vertex 2.46589994430542 22.83060073852539 4.344200134277344
  vertex 2.5 20 4.330099105834961
  vertex 2.5 22.88100051879883 4.330099105834961
  endloop
 endfacet

 facet normal 0 -1 0
  outer loop
  vertex 0.5483999252319336 20 0.54840087890625
  vertex 4.330100059509277 20 2.5
  vertex 3.535499572753906 20 3.535499572753906
  endloop
 endfacet

 facet normal 0 -1 0
  outer loop
  vertex 0.5483999252319336 20 0.54840087890625
  vertex 0.5483999252319336 20 0.3166007995605469
  vertex 4.330100059509277 20 2.5
  endloop
 endfacet

 facet normal 0.6087772250175476 0 0.7933412790298462
  outer loop
  vertex 2.5 22.88100051879883 4.330099105834961
  vertex 2.5 20 4.330099105834961
  vertex 3.535499572753906 20 3.535499572753906
  endloop
 endfacet

 facet normal 0.6087874174118042 5.775816134701017e-06 0.7933334708213806
  outer loop
  vertex 3.490499973297119 24.34320068359375 3.569999694824219
  vertex 2.5 22.88100051879883 4.330099105834961
  vertex 3.535499572753906 20 3.535499572753906
  endloop
 endfacet

 facet normal 0 -1 0
  outer loop
  vertex 0.5483999252319336 20 0.3166007995605469
  vertex 4.82960033416748 20 1.294099807739258
  vertex 4.330100059509277 20 2.5
  endloop
 endfacet

 facet normal 0 -1 0
  outer loop
  vertex 0.5483999252319336 20 0.3166007995605469
  vertex 0.5483999252319336 20 0.1469001770019531
  vertex 4.82960033416748 20 1.294099807739258
  endloop
 endfacet

 facet normal 0.7933408617973328 0 0.6087777018547058
  outer loop
  vertex 3.535499572753906 24.40950012207031 3.535499572753906
  vertex 3.535499572753906 20 3.535499572753906
  vertex 4.330100059509277 20 2.5
  endloop
 endfacet

 facet normal 0.7933358550071716 -2.422053057671292e-06 0.6087841987609863
  outer loop
  vertex 4.286299705505371 25.51779937744141 2.557100296020508
  vertex 3.535499572753906 24.40950012207031 3.535499572753906
  vertex 4.330100059509277 20 2.5
  endloop
 endfacet

 facet normal 0.6084362864494324 0 0.7936027050018311
  outer loop
  vertex 3.490499973297119 24.34320068359375 3.569999694824219
  vertex 3.535499572753906 20 3.535499572753906
  vertex 3.535499572753906 24.40950012207031 3.535499572753906
  endloop
 endfacet

 facet normal 0 -1 0
  outer loop
  vertex 0.5483999252319336 20 0.1469001770019531
  vertex 5 20 0
  vertex 4.82960033416748 20 1.294099807739258
  endloop
 endfacet

 facet normal 0 -1 0
  outer loop
  vertex 0.5483999252319336 20 0.1469001770019531
  vertex 0.5483999252319336 20 0
  vertex 5 20 0
  endloop
 endfacet

 facet normal 0.9238795638084412 0 0.3826835155487061
  outer loop
  vertex 4.330100059509277 25.58250045776367 2.5
  vertex 4.330100059509277 20 2.5
  vertex 4.82960033416748 20 1.294099807739258
  endloop
 endfacet

 facet normal 0.9238653182983398 -8.69412633619504e-06 0.3827178776264191
  outer loop
  vertex 4.798299789428711 26.27360153198242 1.369800567626953
  vertex 4.330100059509277 25.58250045776367 2.5
  vertex 4.82960033416748 20 1.294099807739258
  endloop
 endfacet

 facet normal 0.7934489250183105 0 0.6086368560791016
  outer loop
  vertex 4.286299705505371 25.51779937744141 2.557100296020508
  vertex 4.330100059509277 20 2.5
  vertex 4.330100059509277 25.58250045776367 2.5
  endloop
 endfacet

 facet normal 0 -1 0
  outer loop
  vertex 0.5483999252319336 20 -0.1469001770019531
  vertex 4.82960033416748 20 -1.294099807739258
  vertex 5 20 0
  endloop
 endfacet

 facet normal 0 -1 0
  outer loop
  vertex 0.5483999252319336 20 0
  vertex 0.5483999252319336 20 -0.1469001770019531
  vertex 5 20 0
  endloop
 endfacet

 facet normal 0.9914421439170837 0 0.130547434091568
  outer loop
  vertex 4.82960033416748 26.31990051269531 1.294099807739258
  vertex 4.82960033416748 20 1.294099807739258
  vertex 5 20 0
  endloop
 endfacet

 facet normal 0.9914454817771912 5.469551524583949e-06 0.130521148443222
  outer loop
  vertex 4.988800048828125 26.55490112304688 0.08480072021484375
  vertex 4.82960033416748 26.31990051269531 1.294099807739258
  vertex 5 20 0
  endloop
 endfacet

 facet normal 0.9241200089454651 0 0.3821026086807251
  outer loop
  vertex 4.798299789428711 26.27360153198242 1.369800567626953
  vertex 4.82960033416748 20 1.294099807739258
  vertex 4.82960033416748 26.31990051269531 1.294099807739258
  endloop
 endfacet

 facet normal 0 -1 0
  outer loop
  vertex 0.5483999252319336 20 -0.3166007995605469
  vertex 4.330100059509277 20 -2.5
  vertex 4.82960033416748 20 -1.294099807739258
  endloop
 endfacet

 facet normal 0 -1 0
  outer loop
  vertex 0.5483999252319336 20 -0.1469001770019531
  vertex 0.5483999252319336 20 -0.3166007995605469
  vertex 4.82960033416748 20 -1.294099807739258
  endloop
 endfacet

 facet normal 0.9914421439170837 -3.161285064834374e-07 -0.130547434091568
  outer loop
  vertex 4.840399742126465 26.33580017089844 -1.212099075317383
  vertex 5 20 0
  vertex 4.82960033416748 20 -1.294099807739258
  endloop
 endfacet

 facet normal 0.9914397597312927 0 -0.1305647045373917
  outer loop
  vertex 4.917099952697754 26.44910049438477 -0.6294994354248047
  vertex 5 26.5713996887207 0
  vertex 5 20 0
  endloop
 endfacet

 facet normal 0.9914448261260986 3.832204583886778e-06 -0.1305260956287384
  outer loop
  vertex 4.840399742126465 26.33580017089844 -1.212099075317383
  vertex 4.917099952697754 26.44910049438477 -0.6294994354248047
  vertex 5 20 0
  endloop
 endfacet

 facet normal 0.9913908243179321 0 0.1309367269277573
  outer loop
  vertex 4.988800048828125 26.55490112304688 0.08480072021484375
  vertex 5 20 0
  vertex 5 26.5713996887207 0
  endloop
 endfacet

 facet normal 0 -1 0
  outer loop
  vertex 0.5483999252319336 20 -0.54840087890625
  vertex 3.535499572753906 20 -3.535499572753906
  vertex 4.330100059509277 20 -2.5
  endloop
 endfacet

 facet normal 0 -1 0
  outer loop
  vertex 0.5483999252319336 20 -0.3166007995605469
  vertex 0.5483999252319336 20 -0.54840087890625
  vertex 4.330100059509277 20 -2.5
  endloop
 endfacet

 facet normal 0.9238795638084412 -2.647227802299312e-06 -0.3826835155487061
  outer loop
  vertex 4.358200073242188 25.62400054931641 -2.432199478149414
  vertex 4.82960033416748 20 -1.294099807739258
  vertex 4.330100059509277 20 -2.5
  endloop
 endfacet

 facet normal 0.9238755106925964 0 -0.3826931416988373
  outer loop
  vertex 4.396900177001953 25.68119812011719 -2.338699340820312
  vertex 4.82960033416748 26.31990051269531 -1.294099807739258
  vertex 4.82960033416748 20 -1.294099807739258
  endloop
 endfacet

 facet normal 0.9239699244499207 4.911723590339534e-05 -0.382465124130249
  outer loop
  vertex 4.358200073242188 25.62400054931641 -2.432199478149414
  vertex 4.396900177001953 25.68119812011719 -2.338699340820312
  vertex 4.82960033416748 20 -1.294099807739258
  endloop
 endfacet

 facet normal 0.9914388656616211 0 -0.1305714398622513
  outer loop
  vertex 4.840399742126465 26.33580017089844 -1.212099075317383
  vertex 4.82960033416748 20 -1.294099807739258
  vertex 4.82960033416748 26.31990051269531 -1.294099807739258
  endloop
 endfacet

 facet normal 0 -1 0
  outer loop
  vertex 0.5483999252319336 20 -0.9498004913330078
  vertex 2.5 20 -4.330099105834961
  vertex 3.535499572753906 20 -3.535499572753906
  endloop
 endfacet

 facet normal 0 -1 0
  outer loop
  vertex 0.5483999252319336 20 -0.54840087890625
  vertex 0.5483999252319336 20 -0.9498004913330078
  vertex 3.535499572753906 20 -3.535499572753906
  endloop
 endfacet

 facet normal 0.7933408617973328 -8.653648364997935e-06 -0.6087777018547058
  outer loop
  vertex 3.571000099182129 24.46189880371094 -3.489299774169922
  vertex 4.330100059509277 20 -2.5
  vertex 3.535499572753906 20 -3.535499572753906
  endloop
 endfacet

 facet normal 0.7933596968650818 0 -0.6087531447410583
  outer loop
  vertex 3.571000099182129 24.46189880371094 -3.489299774169922
  vertex 4.330100059509277 25.58250045776367 -2.5
  vertex 4.330100059509277 20 -2.5
  endloop
 endfacet

 facet normal 0.9238018989562988 0 -0.3828709423542023
  outer loop
  vertex 4.358200073242188 25.62400054931641 -2.432199478149414
  vertex 4.330100059509277 20 -2.5
  vertex 4.330100059509277 25.58250045776367 -2.5
  endloop
 endfacet

 facet normal 0 -1 0
  outer loop
  vertex 0.5483999252319336 20 -2.046600341796875
  vertex 1.294099807739258 20 -4.829599380493164
  vertex 2.5 20 -4.330099105834961
  endloop
 endfacet

 facet normal 0 -1 0
  outer loop
  vertex 0.5483999252319336 20 -0.9498004913330078
  vertex 0.5483999252319336 20 -2.046600341796875
  vertex 2.5 20 -4.330099105834961
  endloop
 endfacet

 facet normal 0.6087772250175476 -1.40985057441867e-05 -0.7933412790298462
  outer loop
  vertex 2.530300140380859 22.92570114135742 -4.306900024414062
  vertex 3.535499572753906 20 -3.535499572753906
  vertex 2.5 20 -4.330099105834961
  endloop
 endfacet

 facet normal 0.6088030934333801 0 -0.793321430683136
  outer loop
  vertex 2.530300140380859 22.92570114135742 -4.306900024414062
  vertex 3.535499572753906 24.40950012207031 -3.535499572753906
  vertex 3.535499572753906 20 -3.535499572753906
  endloop
 endfacet

 facet normal 0.7929372787475586 0 -0.60930335521698
  outer loop
  vertex 3.571000099182129 24.46189880371094 -3.489299774169922
  vertex 3.535499572753906 20 -3.535499572753906
  vertex 3.535499572753906 24.40950012207031 -3.535499572753906
  endloop
 endfacet

 facet normal 0 -1 0
  outer loop
  vertex 0.5483999252319336 20 -4.927799224853516
  vertex 1.294099807739258 20 -4.829599380493164
  vertex 0.5483999252319336 20 -2.046600341796875
  endloop
 endfacet

 facet normal 0.3826835155487061 6.597178980882745e-06 -0.9238795638084412
  outer loop
  vertex 1.307600021362305 21.12080001831055 -4.823999404907227
  vertex 2.5 20 -4.330099105834961
  vertex 1.294099807739258 20 -4.829599380493164
  endloop
 endfacet

 facet normal 0.382678210735321 0 -0.9238817095756531
  outer loop
  vertex 1.307600021362305 21.12080001831055 -4.823999404907227
  vertex 2.5 22.88100051879883 -4.330099105834961
  vertex 2.5 20 -4.330099105834961
  endloop
 endfacet

 facet normal 0.6079193353652954 0 -0.7939988374710083
  outer loop
  vertex 2.530300140380859 22.92570114135742 -4.306900024414062
  vertex 2.5 20 -4.330099105834961
  vertex 2.5 22.88100051879883 -4.330099105834961
  endloop
 endfacet

 facet normal 0.130560964345932 0 -0.9914402961730957
  outer loop
  vertex 1.294099807739258 21.10079956054688 -4.829599380493164
  vertex 1.294099807739258 20 -4.829599380493164
  vertex 0.5483999252319336 20 -4.927799224853516
  endloop
 endfacet

 facet normal 0.3831508159637451 0 -0.9236857891082764
  outer loop
  vertex 1.307600021362305 21.12080001831055 -4.823999404907227
  vertex 1.294099807739258 20 -4.829599380493164
  vertex 1.294099807739258 21.10079956054688 -4.829599380493164
  endloop
 endfacet

endsolidAssimpScene
